G04*
G04 #@! TF.GenerationSoftware,Altium Limited,Altium Designer,21.0.3 (12)*
G04*
G04 Layer_Physical_Order=2*
G04 Layer_Color=16711680*
%FSLAX25Y25*%
%MOIN*%
G70*
G04*
G04 #@! TF.SameCoordinates,1F937BB2-0F7F-430D-ABFA-2F21A117A81B*
G04*
G04*
G04 #@! TF.FilePolarity,Positive*
G04*
G01*
G75*
%ADD14R,0.06102X0.06102*%
%ADD15C,0.06102*%
%ADD16R,0.11237X0.11237*%
%ADD17C,0.11237*%
%ADD24C,0.01500*%
%ADD25R,0.05118X0.05118*%
%ADD26C,0.05118*%
%ADD27R,0.04449X0.04449*%
%ADD28C,0.04449*%
%ADD29R,0.06102X0.06102*%
D14*
X201862Y173500D02*
D03*
X202224Y213500D02*
D03*
X130815Y151000D02*
D03*
X202224Y133500D02*
D03*
D15*
X287138Y173500D02*
D03*
X287500Y213500D02*
D03*
X170185Y151000D02*
D03*
X287500Y133500D02*
D03*
X123000Y276000D02*
D03*
Y286000D02*
D03*
D16*
X275000Y284500D02*
D03*
D17*
Y266000D02*
D03*
Y247500D02*
D03*
D24*
X140300Y230000D02*
X155500D01*
X139800Y230500D02*
X140300Y230000D01*
X124000Y230500D02*
X139800D01*
X124000Y210500D02*
X132300Y218800D01*
X206070D01*
X211370Y213500D01*
X165000Y259870D02*
X206070Y218800D01*
X211370Y213500D02*
X287500D01*
X191130Y266000D02*
X275000D01*
X185000Y259870D02*
X191130Y266000D01*
X128130Y291130D02*
X155000D01*
X123000Y286000D02*
X128130Y291130D01*
X242224Y173500D02*
X287138D01*
X202224Y213500D02*
X242224Y173500D01*
X123000Y276000D02*
X158870D01*
X175000Y259870D01*
D25*
X155500Y210000D02*
D03*
X124000Y210500D02*
D03*
D26*
X155500Y230000D02*
D03*
X124000Y230500D02*
D03*
D27*
X155000Y259870D02*
D03*
D28*
X165000D02*
D03*
X175000D02*
D03*
X185000D02*
D03*
Y291130D02*
D03*
X175000D02*
D03*
X165000D02*
D03*
X155000D02*
D03*
D29*
X123000Y266000D02*
D03*
M02*
