G04*
G04 #@! TF.GenerationSoftware,Altium Limited,Altium Designer,21.0.3 (12)*
G04*
G04 Layer_Color=8388736*
%FSLAX25Y25*%
%MOIN*%
G70*
G04*
G04 #@! TF.SameCoordinates,1F937BB2-0F7F-430D-ABFA-2F21A117A81B*
G04*
G04*
G04 #@! TF.FilePolarity,Negative*
G04*
G01*
G75*
%ADD14R,0.06102X0.06102*%
%ADD15C,0.06102*%
%ADD16R,0.11237X0.11237*%
%ADD17C,0.11237*%
%ADD18R,0.05918X0.05918*%
%ADD19C,0.05918*%
%ADD20R,0.05249X0.05249*%
%ADD21C,0.05249*%
%ADD22R,0.06902X0.06902*%
%ADD23C,0.06902*%
D14*
X201862Y173500D02*
D03*
X202224Y213500D02*
D03*
X130815Y151000D02*
D03*
X202224Y133500D02*
D03*
D15*
X287138Y173500D02*
D03*
X287500Y213500D02*
D03*
X170185Y151000D02*
D03*
X287500Y133500D02*
D03*
D16*
X275000Y284500D02*
D03*
D17*
Y266000D02*
D03*
Y247500D02*
D03*
D18*
X155500Y210000D02*
D03*
X124000Y210500D02*
D03*
D19*
X155500Y230000D02*
D03*
X124000Y230500D02*
D03*
D20*
X155000Y259870D02*
D03*
D21*
X165000D02*
D03*
X175000D02*
D03*
X185000D02*
D03*
Y291130D02*
D03*
X175000D02*
D03*
X165000D02*
D03*
X155000D02*
D03*
D22*
X123000Y266000D02*
D03*
D23*
Y276000D02*
D03*
Y286000D02*
D03*
M02*
