G04*
G04 #@! TF.GenerationSoftware,Altium Limited,Altium Designer,21.0.3 (12)*
G04*
G04 Layer_Physical_Order=2*
G04 Layer_Color=16711680*
%FSLAX43Y43*%
%MOMM*%
G71*
G04*
G04 #@! TF.SameCoordinates,4E316A9E-77FC-4309-9E54-DBFB9EC2A46A*
G04*
G04*
G04 #@! TF.FilePolarity,Positive*
G04*
G01*
G75*
%ADD15C,1.550*%
%ADD16R,1.550X1.550*%
%ADD21C,1.570*%
%ADD22R,1.570X1.570*%
%ADD23C,1.450*%
%ADD24R,1.450X1.450*%
%ADD25C,0.381*%
%ADD26R,1.130X1.130*%
%ADD27C,1.130*%
%ADD28R,1.350X1.350*%
%ADD29C,1.350*%
D15*
X59503Y11557D02*
D03*
X26864Y11612D02*
D03*
D16*
X52003Y11557D02*
D03*
X19364Y11612D02*
D03*
D21*
X67691Y18470D02*
D03*
Y15930D02*
D03*
D22*
Y13390D02*
D03*
D23*
X41275Y17708D02*
D03*
D24*
X38735D02*
D03*
D25*
X67691Y18470D02*
X68885Y17276D01*
Y9754D02*
Y17276D01*
X68072Y8941D02*
X68885Y9754D01*
X55309Y8941D02*
X68072D01*
X52638Y11612D02*
X55309Y8941D01*
X34701Y17708D02*
X38735D01*
X27432Y10439D02*
X34701Y17708D01*
X20537Y10439D02*
X27432D01*
X19364Y11612D02*
X20537Y10439D01*
X58948Y12802D02*
X60138Y11612D01*
X47473Y12802D02*
X58948D01*
X44958Y10287D02*
X47473Y12802D01*
X12606Y13771D02*
X13012Y13365D01*
X25111D01*
X26864Y11612D01*
X7206Y13771D02*
X12606D01*
X4666Y16311D02*
X7206Y13771D01*
X4666D02*
X12951Y5486D01*
X23876D01*
X34163Y15773D01*
X39340D01*
X41275Y17708D01*
X63373D02*
X67691Y13390D01*
X41275Y17708D02*
X63373D01*
X4666Y11231D02*
X13255Y2642D01*
X37313D01*
X44958Y10287D01*
D26*
X4666Y18851D02*
D03*
D27*
Y16311D02*
D03*
Y13771D02*
D03*
Y11231D02*
D03*
X12606D02*
D03*
Y13771D02*
D03*
Y16311D02*
D03*
Y18851D02*
D03*
D28*
X34163Y10287D02*
D03*
X44958D02*
D03*
D29*
X34163Y19287D02*
D03*
X44958D02*
D03*
M02*
