M48
;Layer_Color=9474304
;FILE_FORMAT=4:3
METRIC,LZ
;TYPE=PLATED
T1F00S00C0.780
T2F00S00C0.850
T3F00S00C0.950
T4F00S00C1.000
T5F00S00C1.020
%
T01
X0004666Y0011231
Y0013771
Y0016311
Y0018851
X0012606
Y0016311
Y0013771
Y0011231
T02
X0034163Y0010287
Y0019287
X0044958
Y0010287
T03
X0038735Y0017708
X0041275
T04
X0019364Y0011612
X0026864
X0052003Y0011557
X0059503
T05
X0067691Y001339
Y001593
Y001847
M30
