G04*
G04 #@! TF.GenerationSoftware,Altium Limited,Altium Designer,21.0.3 (12)*
G04*
G04 Layer_Color=32768*
%FSLAX43Y43*%
%MOMM*%
G71*
G04*
G04 #@! TF.SameCoordinates,4E316A9E-77FC-4309-9E54-DBFB9EC2A46A*
G04*
G04*
G04 #@! TF.FilePolarity,Positive*
G04*
G01*
G75*
%ADD11C,0.200*%
%ADD30C,0.100*%
%ADD31C,0.050*%
D11*
X47403Y11557D02*
G03*
X64103Y11557I8350J0D01*
G01*
D02*
G03*
X47403Y11557I-8350J0D01*
G01*
X37782Y17708D02*
G03*
X42228Y17708I2223J0D01*
G01*
D02*
G03*
X37782Y17708I-2223J0D01*
G01*
X14764Y11612D02*
G03*
X31464Y11612I8350J0D01*
G01*
D02*
G03*
X14764Y11612I-8350J0D01*
G01*
X66221Y11895D02*
X69161D01*
Y19965D01*
X66221D02*
X69161D01*
X66221Y11895D02*
Y19965D01*
D30*
X33663Y14787D02*
X34663D01*
X34163Y14287D02*
Y15287D01*
X44458Y14787D02*
X45458D01*
X44958Y14287D02*
Y15287D01*
D31*
X3851Y20086D02*
X13421D01*
X3851Y9996D02*
X13421D01*
Y20086D01*
X3851Y9996D02*
Y20086D01*
X32863Y20062D02*
X35463D01*
X32863Y9512D02*
Y20062D01*
X35463Y9512D02*
Y20062D01*
X32863Y9512D02*
X35463D01*
X43658Y20062D02*
X46258D01*
X43658Y9512D02*
Y20062D01*
X46258Y9512D02*
Y20062D01*
X43658Y9512D02*
X46258D01*
M02*
