G04*
G04 #@! TF.GenerationSoftware,Altium Limited,Altium Designer,22.10.1 (41)*
G04*
G04 Layer_Color=8388736*
%FSLAX25Y25*%
%MOIN*%
G70*
G04*
G04 #@! TF.SameCoordinates,21556AB6-08DB-41F7-8633-05A54B1CEEA3*
G04*
G04*
G04 #@! TF.FilePolarity,Negative*
G04*
G01*
G75*
%ADD13C,0.16548*%
%ADD14C,0.14170*%
%ADD15C,0.06737*%
%ADD16R,0.06737X0.06737*%
%ADD17C,0.07800*%
%ADD18C,0.09800*%
%ADD19R,0.06824X0.06824*%
%ADD20C,0.06824*%
D13*
X255906Y15748D02*
D03*
X15748Y188976D02*
D03*
D14*
X41000Y11268D02*
D03*
Y63000D02*
D03*
Y90500D02*
D03*
Y142232D02*
D03*
D15*
X51669Y23354D02*
D03*
Y33197D02*
D03*
Y41071D02*
D03*
Y102587D02*
D03*
Y112429D02*
D03*
Y120303D02*
D03*
D16*
Y50913D02*
D03*
Y130146D02*
D03*
D17*
X171000Y122500D02*
D03*
Y132500D02*
D03*
Y142500D02*
D03*
X221000Y92500D02*
D03*
X211000D02*
D03*
X201000D02*
D03*
X223500Y162500D02*
D03*
X198500D02*
D03*
X223500Y182500D02*
D03*
X198500D02*
D03*
D18*
X241000Y158750D02*
D03*
Y106250D02*
D03*
X181000D02*
D03*
Y158750D02*
D03*
D19*
X129000Y159000D02*
D03*
Y142500D02*
D03*
Y125500D02*
D03*
Y108500D02*
D03*
D20*
X139000Y159000D02*
D03*
Y142500D02*
D03*
Y125500D02*
D03*
Y108500D02*
D03*
M02*
