G04*
G04 #@! TF.GenerationSoftware,Altium Limited,Altium Designer,22.10.1 (41)*
G04*
G04 Layer_Color=16711935*
%FSLAX25Y25*%
%MOIN*%
G70*
G04*
G04 #@! TF.SameCoordinates,21556AB6-08DB-41F7-8633-05A54B1CEEA3*
G04*
G04*
G04 #@! TF.FilePolarity,Positive*
G04*
G01*
G75*
%ADD10C,0.00787*%
%ADD11C,0.00500*%
D10*
X54031Y64693D02*
X53244D01*
X54031D01*
Y143925D02*
X53244D01*
X54031D01*
X187575Y185059D02*
X186787D01*
X187575D01*
X129394Y167543D02*
X128606D01*
X129394D01*
Y151043D02*
X128606D01*
X129394D01*
Y134043D02*
X128606D01*
X129394D01*
Y117043D02*
X128606D01*
X129394D01*
D11*
X189767Y180435D02*
X188856Y180019D01*
X187954Y179586D01*
X187060Y179135D01*
X186175Y178668D01*
X185299Y178183D01*
X184433Y177682D01*
X183576Y177165D01*
X182730Y176631D01*
X181893Y176081D01*
X181068Y175515D01*
X180253Y174933D01*
X179450Y174336D01*
X178658Y173723D01*
X177879Y173095D01*
X177111Y172453D01*
X176356Y171796D01*
X175614Y171124D01*
X174884Y170439D01*
X174168Y169740D01*
X173466Y169027D01*
X172777Y168300D01*
X172102Y167561D01*
X171442Y166809D01*
X170796Y166044D01*
X170165Y165267D01*
X169549Y164478D01*
X168948Y163678D01*
X168363Y162866D01*
X167793Y162043D01*
X167240Y161209D01*
X166702Y160365D01*
X166181Y159510D01*
X165675Y158646D01*
X165187Y157772D01*
X164716Y156889D01*
X164261Y155998D01*
X163824Y155097D01*
X163404Y154189D01*
X163002Y153272D01*
X162617Y152348D01*
X162250Y151417D01*
X161901Y150479D01*
X161570Y149534D01*
X161257Y148583D01*
X160963Y147627D01*
X160687Y146665D01*
X160429Y145697D01*
X160190Y144726D01*
X159970Y143749D01*
X159768Y142769D01*
X159585Y141785D01*
X159421Y140797D01*
X159276Y139807D01*
X159151Y138814D01*
X159044Y137819D01*
X158956Y136821D01*
X158887Y135823D01*
X158838Y134823D01*
X158808Y133823D01*
X158797Y132822D01*
X158805Y131821D01*
X158832Y130820D01*
X158879Y129821D01*
X158944Y128822D01*
X159029Y127824D01*
X159133Y126829D01*
X159256Y125836D01*
X159398Y124845D01*
X159559Y123857D01*
X159739Y122872D01*
X159937Y121891D01*
X160155Y120914D01*
X160391Y119941D01*
X160646Y118974D01*
X160919Y118011D01*
X161211Y117053D01*
X161521Y116102D01*
X161849Y115156D01*
X162195Y114217D01*
X162559Y113284D01*
X162941Y112359D01*
X163341Y111442D01*
X163758Y110532D01*
X164193Y109630D01*
X164645Y108737D01*
X165113Y107853D01*
X165599Y106977D01*
X166102Y106112D01*
X166620Y105256D01*
X167156Y104410D01*
X167707Y103575D01*
X168274Y102750D01*
X168857Y101936D01*
X169456Y101134D01*
X170069Y100343D01*
X170698Y99564D01*
X171342Y98798D01*
X172000Y98044D01*
X172672Y97302D01*
X173359Y96574D01*
X174059Y95859D01*
X174773Y95157D01*
X175501Y94470D01*
X176241Y93796D01*
X176994Y93137D01*
X177760Y92492D01*
X178537Y91862D01*
X179327Y91247D01*
X180129Y90648D01*
X180942Y90064D01*
X181765Y89495D01*
X182600Y88942D01*
X183445Y88406D01*
X184300Y87886D01*
X185165Y87382D01*
X186040Y86895D01*
X186923Y86425D01*
X187816Y85972D01*
X188717Y85536D01*
X189626Y85118D01*
X190543Y84716D01*
X191468Y84333D01*
X192400Y83968D01*
X193338Y83620D01*
X194283Y83290D01*
X195234Y82979D01*
X196192Y82686D01*
X197154Y82411D01*
X198122Y82155D01*
X199094Y81917D01*
X200071Y81698D01*
X201051Y81498D01*
X202036Y81317D01*
X203023Y81154D01*
X204014Y81011D01*
X205007Y80886D01*
X206002Y80781D01*
X207000Y80695D01*
X207998Y80628D01*
X208998Y80580D01*
X209999Y80551D01*
X211000Y80541D01*
X212001Y80551D01*
X213001Y80580D01*
X214001Y80628D01*
X215000Y80695D01*
X215997Y80781D01*
X216992Y80886D01*
X217985Y81011D01*
X218976Y81154D01*
X219964Y81317D01*
X220948Y81498D01*
X221929Y81698D01*
X222905Y81917D01*
X223878Y82155D01*
X224845Y82411D01*
X225808Y82686D01*
X226765Y82979D01*
X227716Y83290D01*
X228661Y83620D01*
X229600Y83967D01*
X230532Y84333D01*
X231456Y84716D01*
X232373Y85117D01*
X233283Y85536D01*
X234184Y85972D01*
X235076Y86425D01*
X235960Y86895D01*
X236835Y87382D01*
X237699Y87886D01*
X238555Y88406D01*
X239400Y88942D01*
X240234Y89495D01*
X241058Y90063D01*
X241871Y90648D01*
X242672Y91247D01*
X243462Y91862D01*
X244240Y92492D01*
X245006Y93137D01*
X245759Y93796D01*
X246499Y94469D01*
X247227Y95157D01*
X247941Y95859D01*
X248641Y96574D01*
X249328Y97302D01*
X250000Y98043D01*
X250658Y98798D01*
X251302Y99564D01*
X251931Y100343D01*
X252544Y101134D01*
X253143Y101936D01*
X253726Y102750D01*
X254293Y103574D01*
X254844Y104410D01*
X255380Y105256D01*
X255898Y106112D01*
X256401Y106977D01*
X256887Y107852D01*
X257355Y108737D01*
X257807Y109630D01*
X258242Y110532D01*
X258659Y111442D01*
X259059Y112359D01*
X259441Y113284D01*
X259805Y114217D01*
X260151Y115156D01*
X260479Y116102D01*
X260789Y117053D01*
X261081Y118011D01*
X261354Y118974D01*
X261609Y119942D01*
X261845Y120914D01*
X262063Y121891D01*
X262261Y122872D01*
X262441Y123857D01*
X262602Y124845D01*
X262744Y125836D01*
X262867Y126829D01*
X262971Y127825D01*
X263056Y128822D01*
X263121Y129821D01*
X263168Y130821D01*
X263195Y131821D01*
X263203Y132822D01*
X263192Y133823D01*
X263162Y134824D01*
X263112Y135823D01*
X263044Y136822D01*
X262956Y137819D01*
X262849Y138814D01*
X262723Y139807D01*
X262579Y140798D01*
X262415Y141785D01*
X262232Y142769D01*
X262030Y143749D01*
X261810Y144726D01*
X261571Y145698D01*
X261313Y146665D01*
X261037Y147627D01*
X260742Y148584D01*
X260430Y149535D01*
X260099Y150479D01*
X259750Y151417D01*
X259383Y152349D01*
X258998Y153273D01*
X258595Y154189D01*
X258176Y155098D01*
X257738Y155998D01*
X257284Y156890D01*
X256812Y157773D01*
X256324Y158647D01*
X255819Y159511D01*
X255298Y160365D01*
X254760Y161210D01*
X254206Y162043D01*
X253637Y162866D01*
X253051Y163678D01*
X252450Y164479D01*
X251834Y165268D01*
X251203Y166045D01*
X250557Y166809D01*
X249897Y167562D01*
X249222Y168301D01*
X248534Y169027D01*
X247831Y169740D01*
X247115Y170440D01*
X246386Y171125D01*
X245643Y171797D01*
X244888Y172453D01*
X244121Y173096D01*
X243341Y173724D01*
X242549Y174336D01*
X241746Y174933D01*
X240931Y175515D01*
X240106Y176081D01*
X239269Y176631D01*
X238423Y177165D01*
X237566Y177683D01*
X236700Y178184D01*
X235824Y178668D01*
X234939Y179136D01*
X234045Y179586D01*
X233142Y180019D01*
X232233Y180435D01*
X26315Y62921D02*
X55055D01*
X528D02*
X26315D01*
X528Y11346D02*
Y62921D01*
Y11346D02*
X55055D01*
Y62921D01*
X26315Y142154D02*
X55055D01*
X528D02*
X26315D01*
X528Y90579D02*
Y142154D01*
Y90579D02*
X55055D01*
Y142154D01*
X179701Y101398D02*
Y113209D01*
Y151791D02*
Y163996D01*
X167299Y113209D02*
Y151791D01*
Y113209D02*
X179701D01*
X167299Y151791D02*
X179701D01*
X189543Y163996D02*
Y188799D01*
X232457Y163996D02*
Y188799D01*
X179701Y163996D02*
X189543D01*
X232457D02*
X242299D01*
Y116752D02*
X248402D01*
X242299Y148642D02*
X248402D01*
X242299Y101398D02*
Y116752D01*
Y148642D02*
Y163996D01*
X248402Y116752D02*
Y148642D01*
X179701Y101398D02*
X191906D01*
X230094D02*
X242299D01*
X191906Y88799D02*
Y101398D01*
X230094Y88799D02*
Y101398D01*
X191906Y88799D02*
X230094D01*
X189543Y188799D02*
X232457D01*
X124787Y154394D02*
Y163606D01*
X143213D01*
Y154394D02*
Y163606D01*
X124787Y154394D02*
X143213D01*
X124787Y137894D02*
Y147106D01*
X143213D01*
Y137894D02*
Y147106D01*
X124787Y137894D02*
X143213D01*
X124787Y120894D02*
Y130106D01*
X143213D01*
Y120894D02*
Y130106D01*
X124787Y120894D02*
X143213D01*
X124787Y103894D02*
Y113106D01*
X143213D01*
Y103894D02*
Y113106D01*
X124787Y103894D02*
X143213D01*
M02*
