G04*
G04 #@! TF.GenerationSoftware,Altium Limited,Altium Designer,22.10.1 (41)*
G04*
G04 Layer_Color=32768*
%FSLAX25Y25*%
%MOIN*%
G70*
G04*
G04 #@! TF.SameCoordinates,21556AB6-08DB-41F7-8633-05A54B1CEEA3*
G04*
G04*
G04 #@! TF.FilePolarity,Positive*
G04*
G01*
G75*
%ADD30C,0.00197*%
D30*
X188283Y181177D02*
X187380Y180746D01*
X186485Y180297D01*
X185599Y179832D01*
X184721Y179350D01*
X183853Y178852D01*
X182994Y178338D01*
X182145Y177807D01*
X181306Y177261D01*
X180478Y176699D01*
X179660Y176122D01*
X178853Y175529D01*
X178058Y174921D01*
X177274Y174299D01*
X176502Y173662D01*
X175742Y173010D01*
X174994Y172344D01*
X174259Y171665D01*
X173537Y170971D01*
X172828Y170264D01*
X172133Y169545D01*
X171451Y168812D01*
X170783Y168066D01*
X170129Y167308D01*
X169490Y166538D01*
X168865Y165756D01*
X168254Y164962D01*
X167659Y164157D01*
X167079Y163341D01*
X166515Y162515D01*
X165966Y161677D01*
X165433Y160830D01*
X164916Y159973D01*
X164415Y159106D01*
X163931Y158230D01*
X163463Y157345D01*
X163012Y156451D01*
X162578Y155549D01*
X162160Y154639D01*
X161760Y153722D01*
X161378Y152797D01*
X161012Y151865D01*
X160664Y150926D01*
X160334Y149981D01*
X160022Y149030D01*
X159728Y148073D01*
X159451Y147111D01*
X159193Y146144D01*
X158953Y145172D01*
X158731Y144196D01*
X158528Y143216D01*
X158343Y142232D01*
X158177Y141245D01*
X158029Y140255D01*
X157900Y139262D01*
X157789Y138267D01*
X157697Y137270D01*
X157624Y136272D01*
X157570Y135272D01*
X157535Y134272D01*
X157518Y133271D01*
X157520Y132270D01*
X157541Y131269D01*
X157581Y130269D01*
X157639Y129269D01*
X157717Y128271D01*
X157813Y127275D01*
X157927Y126280D01*
X158061Y125288D01*
X158213Y124299D01*
X158383Y123312D01*
X158572Y122329D01*
X158780Y121350D01*
X159005Y120375D01*
X159250Y119404D01*
X159512Y118438D01*
X159792Y117477D01*
X160091Y116522D01*
X160407Y115572D01*
X160741Y114628D01*
X161093Y113691D01*
X161462Y112760D01*
X161849Y111837D01*
X162253Y110921D01*
X162674Y110013D01*
X163112Y109113D01*
X163567Y108221D01*
X164039Y107338D01*
X164527Y106464D01*
X165031Y105600D01*
X165552Y104745D01*
X166089Y103900D01*
X166641Y103065D01*
X167209Y102240D01*
X167792Y101427D01*
X168391Y100624D01*
X169004Y99833D01*
X169632Y99054D01*
X170275Y98286D01*
X170932Y97531D01*
X171603Y96789D01*
X172288Y96058D01*
X172987Y95341D01*
X173699Y94638D01*
X174424Y93947D01*
X175162Y93271D01*
X175912Y92608D01*
X176675Y91960D01*
X177450Y91326D01*
X178236Y90707D01*
X179034Y90102D01*
X179843Y89513D01*
X180664Y88939D01*
X181494Y88381D01*
X182336Y87838D01*
X183187Y87311D01*
X184048Y86801D01*
X184918Y86306D01*
X185798Y85828D01*
X186686Y85367D01*
X187583Y84922D01*
X188488Y84494D01*
X189401Y84084D01*
X190322Y83690D01*
X191249Y83314D01*
X192184Y82956D01*
X193125Y82615D01*
X194072Y82291D01*
X195026Y81986D01*
X195985Y81699D01*
X196949Y81429D01*
X197918Y81178D01*
X198891Y80945D01*
X199869Y80731D01*
X200851Y80534D01*
X201836Y80357D01*
X202824Y80198D01*
X203815Y80057D01*
X204809Y79935D01*
X205805Y79832D01*
X206802Y79747D01*
X207801Y79681D01*
X208801Y79634D01*
X209802Y79606D01*
X210803Y79597D01*
X211804Y79606D01*
X212804Y79634D01*
X213804Y79681D01*
X214803Y79747D01*
X215801Y79832D01*
X216796Y79935D01*
X217790Y80057D01*
X218781Y80197D01*
X219769Y80357D01*
X220755Y80534D01*
X221736Y80730D01*
X222714Y80945D01*
X223688Y81178D01*
X224657Y81429D01*
X225621Y81698D01*
X226580Y81986D01*
X227533Y82291D01*
X228481Y82614D01*
X229422Y82955D01*
X230356Y83314D01*
X231284Y83690D01*
X232205Y84083D01*
X233118Y84494D01*
X234022Y84922D01*
X234919Y85366D01*
X235808Y85828D01*
X236687Y86306D01*
X237558Y86800D01*
X238419Y87311D01*
X239270Y87838D01*
X240111Y88380D01*
X240942Y88939D01*
X241762Y89513D01*
X242571Y90102D01*
X243369Y90706D01*
X244156Y91325D01*
X244931Y91959D01*
X245693Y92608D01*
X246444Y93270D01*
X247182Y93947D01*
X247907Y94637D01*
X248619Y95341D01*
X249317Y96058D01*
X250002Y96788D01*
X250674Y97531D01*
X251330Y98286D01*
X251973Y99053D01*
X252602Y99833D01*
X253215Y100624D01*
X253814Y101426D01*
X254397Y102240D01*
X254965Y103064D01*
X255517Y103899D01*
X256054Y104744D01*
X256575Y105599D01*
X257079Y106464D01*
X257567Y107337D01*
X258039Y108220D01*
X258494Y109112D01*
X258932Y110012D01*
X259353Y110920D01*
X259757Y111836D01*
X260144Y112760D01*
X260513Y113690D01*
X260865Y114627D01*
X261199Y115571D01*
X261515Y116521D01*
X261814Y117476D01*
X262094Y118437D01*
X262356Y119403D01*
X262601Y120374D01*
X262826Y121349D01*
X263034Y122329D01*
X263223Y123312D01*
X263393Y124298D01*
X263545Y125287D01*
X263679Y126280D01*
X263794Y127274D01*
X263890Y128270D01*
X263967Y129269D01*
X264025Y130268D01*
X264065Y131268D01*
X264086Y132269D01*
X264088Y133270D01*
X264072Y134271D01*
X264036Y135271D01*
X263982Y136271D01*
X263909Y137269D01*
X263817Y138266D01*
X263707Y139261D01*
X263578Y140254D01*
X263430Y141244D01*
X263263Y142231D01*
X263078Y143215D01*
X262875Y144195D01*
X262653Y145171D01*
X262414Y146143D01*
X262155Y147110D01*
X261879Y148072D01*
X261585Y149029D01*
X261272Y149980D01*
X260942Y150925D01*
X260595Y151864D01*
X260229Y152796D01*
X259846Y153721D01*
X259446Y154639D01*
X259029Y155549D01*
X258595Y156450D01*
X258144Y157344D01*
X257676Y158229D01*
X257191Y159105D01*
X256691Y159972D01*
X256174Y160829D01*
X255641Y161677D01*
X255092Y162514D01*
X254527Y163341D01*
X253947Y164156D01*
X253352Y164962D01*
X252742Y165755D01*
X252117Y166537D01*
X251478Y167307D01*
X250824Y168065D01*
X250156Y168811D01*
X249474Y169544D01*
X248779Y170264D01*
X248070Y170971D01*
X247348Y171664D01*
X246613Y172344D01*
X245865Y173009D01*
X245105Y173661D01*
X244333Y174298D01*
X243549Y174921D01*
X242754Y175528D01*
X241947Y176121D01*
X241129Y176699D01*
X240301Y177260D01*
X239462Y177807D01*
X238613Y178337D01*
X237754Y178852D01*
X236886Y179350D01*
X236008Y179832D01*
X235122Y180297D01*
X234227Y180745D01*
X233324Y181177D01*
X56039Y3591D02*
Y70677D01*
X-496Y3591D02*
X56039D01*
X-496D02*
Y70677D01*
X56039D01*
Y82823D02*
Y149909D01*
X-496Y82823D02*
X56039D01*
X-496D02*
Y149909D01*
X56039D01*
X233441Y181122D02*
Y189980D01*
X188165D02*
X233441D01*
X188165Y181122D02*
Y189980D01*
X123803Y153409D02*
Y164591D01*
X144197D01*
Y153409D02*
Y164591D01*
X123803Y153409D02*
X144197D01*
X123803Y136909D02*
Y148091D01*
X144197D01*
Y136909D02*
Y148091D01*
X123803Y136909D02*
X144197D01*
X123803Y119909D02*
Y131091D01*
X144197D01*
Y119909D02*
Y131091D01*
X123803Y119909D02*
X144197D01*
X123803Y102909D02*
Y114091D01*
X144197D01*
Y102909D02*
Y114091D01*
X123803Y102909D02*
X144197D01*
M02*
