M48
;Layer_Color=9474304
;FILE_FORMAT=2:4
INCH,TZ
;TYPE=PLATED
T1F00S00C0.0350
T2F00S00C0.0354
T3F00S00C0.0394
T4F00S00C0.0402
T5F00S00C0.0550
T6F00S00C0.0937
T7F00S00C0.1339
%
T01
X21100Y9250
X22100
X20100
X17100Y12250
Y13250
Y14250
T02
X22350Y16250
Y18250
X19850
Y16250
T03
X5167Y2335
Y3320
Y4107
Y5091
Y10259
Y11243
Y12030
Y13015
T04
X12900Y10850
X13900
Y12550
X12900
Y14250
X13900
Y15900
X12900
T05
X24100Y10625
Y15875
X18100
Y10625
T06
X4100Y1127
Y6300
Y9050
Y14223
T07
X25591Y1575
X1575Y18898
M30
