G04*
G04 #@! TF.GenerationSoftware,Altium Limited,Altium Designer,22.10.1 (41)*
G04*
G04 Layer_Color=32768*
%FSLAX25Y25*%
%MOIN*%
G70*
G04*
G04 #@! TF.SameCoordinates,0999A839-FE00-46F6-A3B1-7260279DBB53*
G04*
G04*
G04 #@! TF.FilePolarity,Positive*
G04*
G01*
G75*
%ADD12C,0.00787*%
%ADD82C,0.00394*%
%ADD83C,0.00197*%
D12*
X79988Y7961D02*
X91012D01*
Y53039D01*
X79988D02*
X91012D01*
X79988Y7961D02*
Y53039D01*
D82*
X64000Y255032D02*
Y258969D01*
X62032Y257000D02*
X65969D01*
D83*
X205346Y120500D02*
X205329Y121500D01*
X205276Y122500D01*
X205188Y123496D01*
X205064Y124489D01*
X204906Y125477D01*
X204713Y126459D01*
X204486Y127433D01*
X204224Y128399D01*
X203928Y129355D01*
X203599Y130299D01*
X203236Y131232D01*
X202841Y132151D01*
X202414Y133056D01*
X201955Y133945D01*
X201465Y134817D01*
X200944Y135672D01*
X200394Y136507D01*
X199815Y137323D01*
X199207Y138118D01*
X198571Y138891D01*
X197909Y139640D01*
X197220Y140366D01*
X196506Y141068D01*
X195768Y141743D01*
X195007Y142392D01*
X194223Y143014D01*
X193418Y143608D01*
X192592Y144173D01*
X191747Y144709D01*
X190883Y145214D01*
X190003Y145688D01*
X189105Y146132D01*
X188193Y146543D01*
X187267Y146922D01*
X186328Y147267D01*
X185378Y147580D01*
X184417Y147859D01*
X183447Y148104D01*
X182469Y148314D01*
X181484Y148490D01*
X180493Y148630D01*
X179498Y148736D01*
X178500Y148807D01*
X177500Y148842D01*
X176500Y148842D01*
X175500Y148807D01*
X174502Y148736D01*
X173507Y148630D01*
X172516Y148490D01*
X171531Y148314D01*
X170553Y148104D01*
X169583Y147859D01*
X168622Y147580D01*
X167672Y147267D01*
X166733Y146922D01*
X165807Y146543D01*
X164894Y146132D01*
X163997Y145688D01*
X163117Y145214D01*
X162253Y144709D01*
X161408Y144173D01*
X160582Y143608D01*
X159777Y143014D01*
X158993Y142392D01*
X158232Y141743D01*
X157494Y141068D01*
X156780Y140366D01*
X156091Y139640D01*
X155429Y138891D01*
X154793Y138118D01*
X154185Y137323D01*
X153606Y136507D01*
X153056Y135672D01*
X152535Y134817D01*
X152045Y133945D01*
X151586Y133056D01*
X151159Y132151D01*
X150764Y131232D01*
X150401Y130299D01*
X150072Y129355D01*
X149776Y128399D01*
X149514Y127433D01*
X149287Y126459D01*
X149094Y125477D01*
X148936Y124489D01*
X148812Y123496D01*
X148724Y122500D01*
X148671Y121500D01*
X148653Y120500D01*
X148671Y119500D01*
X148724Y118500D01*
X148812Y117504D01*
X148936Y116511D01*
X149094Y115523D01*
X149287Y114541D01*
X149514Y113567D01*
X149776Y112601D01*
X150072Y111645D01*
X150401Y110701D01*
X150764Y109768D01*
X151159Y108849D01*
X151586Y107944D01*
X152045Y107055D01*
X152535Y106183D01*
X153056Y105328D01*
X153606Y104492D01*
X154185Y103677D01*
X154793Y102882D01*
X155429Y102109D01*
X156091Y101360D01*
X156780Y100634D01*
X157494Y99932D01*
X158232Y99257D01*
X158993Y98608D01*
X159777Y97986D01*
X160582Y97392D01*
X161408Y96827D01*
X162253Y96292D01*
X163117Y95786D01*
X163997Y95312D01*
X164894Y94868D01*
X165807Y94457D01*
X166733Y94078D01*
X167672Y93732D01*
X168622Y93420D01*
X169583Y93141D01*
X170553Y92896D01*
X171531Y92686D01*
X172516Y92510D01*
X173507Y92370D01*
X174502Y92264D01*
X175500Y92193D01*
X176500Y92158D01*
X177500Y92158D01*
X178500Y92193D01*
X179498Y92264D01*
X180493Y92370D01*
X181484Y92510D01*
X182469Y92686D01*
X183447Y92896D01*
X184417Y93141D01*
X185378Y93420D01*
X186328Y93733D01*
X187267Y94078D01*
X188193Y94457D01*
X189105Y94868D01*
X190003Y95312D01*
X190883Y95786D01*
X191747Y96292D01*
X192592Y96827D01*
X193418Y97392D01*
X194223Y97986D01*
X195007Y98608D01*
X195768Y99257D01*
X196506Y99932D01*
X197220Y100634D01*
X197908Y101360D01*
X198571Y102109D01*
X199207Y102882D01*
X199814Y103677D01*
X200394Y104492D01*
X200944Y105328D01*
X201465Y106183D01*
X201955Y107055D01*
X202414Y107944D01*
X202841Y108849D01*
X203236Y109768D01*
X203599Y110700D01*
X203928Y111645D01*
X204224Y112601D01*
X204486Y113567D01*
X204713Y114541D01*
X204906Y115523D01*
X205064Y116511D01*
X205188Y117504D01*
X205276Y118500D01*
X205329Y119499D01*
X205346Y120500D01*
X58691Y347859D02*
X57722Y347788D01*
X56767Y347608D01*
X55839Y347323D01*
X54948Y346936D01*
X54106Y346451D01*
X53323Y345875D01*
X52610Y345215D01*
X51976Y344479D01*
X51427Y343677D01*
X50972Y342819D01*
X50616Y341915D01*
X50364Y340977D01*
X50218Y340017D01*
X50180Y339046D01*
X78135D02*
X78097Y340017D01*
X77951Y340977D01*
X77699Y341915D01*
X77342Y342819D01*
X76888Y343677D01*
X76339Y344479D01*
X75704Y345215D01*
X74992Y345875D01*
X74209Y346451D01*
X73367Y346936D01*
X72476Y347323D01*
X71547Y347608D01*
X70593Y347788D01*
X69624Y347859D01*
X69624Y330141D02*
X70592Y330212D01*
X71547Y330392D01*
X72476Y330677D01*
X73367Y331064D01*
X74209Y331549D01*
X74992Y332125D01*
X75704Y332785D01*
X76339Y333521D01*
X76887Y334323D01*
X77342Y335181D01*
X77699Y336085D01*
X77951Y337023D01*
X78097Y337983D01*
X78135Y338954D01*
X50180Y338954D02*
X50218Y337983D01*
X50364Y337023D01*
X50616Y336085D01*
X50972Y335181D01*
X51427Y334323D01*
X51976Y333521D01*
X52610Y332785D01*
X53323Y332125D01*
X54106Y331549D01*
X54948Y331064D01*
X55839Y330677D01*
X56767Y330392D01*
X57722Y330212D01*
X58691Y330141D01*
X189094Y284095D02*
Y305748D01*
X200905D01*
Y284095D02*
Y305748D01*
X189094Y284095D02*
X200905D01*
Y334673D02*
Y356327D01*
X189094Y334673D02*
X200905D01*
X189094D02*
Y356327D01*
X200905D01*
X78756Y62768D02*
Y106232D01*
X99228D01*
Y62768D02*
Y106232D01*
X78756Y62768D02*
X99228D01*
X216705Y304205D02*
Y359795D01*
Y304205D02*
X272295D01*
Y312020D01*
X351587D01*
Y351980D01*
X272295D02*
X351587D01*
X272295D02*
Y359795D01*
X216705D02*
X272295D01*
X216705Y245705D02*
Y301295D01*
Y245705D02*
X272295D01*
Y253520D01*
X351587D01*
Y293480D01*
X272295D02*
X351587D01*
X272295D02*
Y301295D01*
X216705D02*
X272295D01*
X106394Y47610D02*
X124110D01*
Y59421D01*
X106394Y47610D02*
Y59421D01*
X124110D01*
X106394Y62110D02*
X124110D01*
Y73921D01*
X106394Y62110D02*
Y73921D01*
X124110D01*
X106394Y76110D02*
X124110D01*
Y87921D01*
X106394Y76110D02*
Y87921D01*
X124110D01*
X104425Y90610D02*
Y102421D01*
Y90610D02*
X126079D01*
Y102421D01*
X104425D02*
X126079D01*
X104425Y106110D02*
Y117921D01*
Y106110D02*
X126079D01*
Y117921D01*
X104425D02*
X126079D01*
X104425Y121110D02*
Y132921D01*
Y121110D02*
X126079D01*
Y132921D01*
X104425D02*
X126079D01*
X54484Y25059D02*
Y79390D01*
X2673Y25059D02*
Y79390D01*
Y25059D02*
X54484D01*
X2673Y79390D02*
X54484D01*
X87693Y207343D02*
X124307D01*
Y187657D02*
Y207343D01*
X87693Y187657D02*
X124307D01*
X87693D02*
Y207343D01*
X13008Y186016D02*
Y217984D01*
Y186016D02*
X33992D01*
Y217984D01*
X13008D02*
X33992D01*
X34492Y236094D02*
Y328063D01*
X13508D02*
X34492D01*
X13508Y236094D02*
Y328063D01*
Y236094D02*
X34492D01*
X86803Y168909D02*
X107197D01*
Y180091D01*
X86803D02*
X107197D01*
X86803Y168909D02*
Y180091D01*
X86382Y149909D02*
X106776D01*
Y161091D01*
X86382D02*
X106776D01*
X86382Y149909D02*
Y161091D01*
X12303Y168909D02*
X32697D01*
Y180091D01*
X12303D02*
X32697D01*
X12303Y168909D02*
Y180091D01*
Y149909D02*
X32697D01*
Y161091D01*
X12303D02*
X32697D01*
X12303Y149909D02*
Y161091D01*
X215961Y19323D02*
X272496D01*
Y86409D01*
X215961D02*
X272496D01*
X215961Y19323D02*
Y86409D01*
X126642Y226906D02*
X144358D01*
X126642Y215094D02*
Y226906D01*
X144358Y215094D02*
Y226906D01*
X126642Y215094D02*
X144358D01*
X215961Y88823D02*
X272496D01*
Y155909D01*
X215961D02*
X272496D01*
X215961Y88823D02*
Y155909D01*
X146327Y226594D02*
Y238406D01*
X124673D02*
X146327D01*
X124673Y226594D02*
Y238406D01*
Y226594D02*
X146327D01*
X58646Y347858D02*
X69669D01*
X58646Y330142D02*
X69669D01*
X61059Y124752D02*
X63224D01*
Y106642D02*
Y124752D01*
X61059Y106642D02*
X63224D01*
X61059Y96799D02*
Y106642D01*
Y124752D02*
Y134201D01*
X2004D02*
X61059D01*
X2004Y96799D02*
Y134201D01*
Y96799D02*
X35272D01*
Y91484D02*
Y96799D01*
Y91484D02*
X55350D01*
Y96799D01*
X61059D01*
X69386Y93626D02*
X77614D01*
Y105260D01*
X79839D01*
Y127740D01*
X77614D02*
X79839D01*
X77614D02*
Y139374D01*
X69386D02*
X77614D01*
X69386Y127740D02*
Y139374D01*
X67161Y127740D02*
X69386D01*
X67161Y105260D02*
Y127740D01*
Y105260D02*
X69386D01*
Y93626D02*
Y105260D01*
X84268Y246094D02*
Y257906D01*
Y246094D02*
X105921D01*
Y257906D01*
X84268D02*
X105921D01*
X79594Y329563D02*
Y347280D01*
Y329563D02*
X91406D01*
X79594Y347280D02*
X91406D01*
Y329563D02*
Y347280D01*
X47906Y329563D02*
Y347280D01*
X36094D02*
X47906D01*
X36094Y329563D02*
X47906D01*
X36094D02*
Y347280D01*
X60626Y33850D02*
Y60031D01*
Y33850D02*
X76374D01*
X60626Y60031D02*
X76374D01*
Y33850D02*
Y60031D01*
M02*
