M48
;Layer_Color=9474304
;FILE_FORMAT=2:4
INCH,TZ
;TYPE=PLATED
T1F00S00C0.0248
T2F00S00C0.0280
T3F00S00C0.0295
T4F00S00C0.0315
T5F00S00C0.0335
T6F00S00C0.0354
T7F00S00C0.0394
T9F00S00C0.0402
T10F00S00C0.0417
T11F00S00C0.0433
T12F00S00C0.0440
T13F00S00C0.0488
T14F00S00C0.0512
T15F00S00C0.0551
T16F00S00C0.0937
T17F00S00C0.1142
T18F00S00C0.1339
%
T01
X5924Y33900
X6908
T02
X12650Y18500
T03
X8550Y1081
Y5019
X11033Y9652
X12017
Y11202
X11033
Y12702
X12017
X13058Y23250
X14042
X10002Y25200
X9017
X19500Y29000
Y29984
Y34058
Y35042
T04
X6850Y3710
Y5678
X11033Y5352
X12017
Y6802
X11033
Y8202
X12017
X4200Y33350
Y34334
X8550
Y33350
X13058Y22100
X14042
T05
X16250Y2159
Y3009
Y3909
X19250
Y3009
Y2159
Y4759
Y5678
Y6663
Y7450
Y8434
X16250
Y7450
Y6663
Y5678
Y4759
X7900Y15200
Y16350
Y17450
X4900
Y16350
Y15200
X9017Y22200
X12017
X20950Y28450
Y31450
Y33450
Y36450
T06
X4900Y19200
Y20200
X7900
Y19200
X17700Y13546
Y10554
X7900Y21200
Y22200
Y23200
Y24200
Y25200
Y26200
Y27200
Y28200
Y29200
Y30200
Y31200
Y32200
X4900
Y31200
Y30200
Y29200
Y28200
Y27200
Y26200
Y25200
Y24200
Y23200
Y22200
Y21200
T07
X22033Y3909
Y4893
Y5680
Y6665
Y10859
Y11843
Y12630
Y13615
T09
X9158Y15550
X10158
X10200Y17450
X9200
X2750
X1750
Y15550
X2750
X2900Y24208
Y25208
Y26208
Y27208
Y28208
Y29208
Y30208
Y31208
Y32208
X1900
Y31208
Y30208
Y29208
Y28208
Y27208
Y26208
Y25208
Y24208
T10
X7350Y9774
Y13526
T11
X1850Y19200
X2850
Y20200
X1850
Y21200
X2850
T12
X13050Y25000
Y26000
Y27000
Y28000
Y29000
Y30000
Y31000
Y32000
Y33000
Y34000
X16050
Y33000
Y32000
Y31000
Y30000
Y29000
Y28000
Y27000
Y26000
Y25000
T13
X9100Y7450
Y8450
Y9450
T14
X24450Y27350
Y33200
T15
X2350Y4250
X4350
Y7250
X2350
T16
X23100Y2700
Y7873
Y9650
Y14823
T17
X22541Y25441
Y29259
Y31291
Y35109
X26359
Y31291
Y29259
Y25441
T18
X2550Y1450
X25750Y18875
X2550Y36100
M30
