G04*
G04 #@! TF.GenerationSoftware,Altium Limited,Altium Designer,22.10.1 (41)*
G04*
G04 Layer_Color=16711935*
%FSLAX25Y25*%
%MOIN*%
G70*
G04*
G04 #@! TF.SameCoordinates,0999A839-FE00-46F6-A3B1-7260279DBB53*
G04*
G04*
G04 #@! TF.FilePolarity,Positive*
G04*
G01*
G75*
%ADD10C,0.00500*%
%ADD11C,0.00600*%
%ADD12C,0.00787*%
%ADD16C,0.01000*%
%ADD81C,0.00000*%
%ADD82C,0.00394*%
D10*
X204362Y120500D02*
X204344Y121499D01*
X204289Y122497D01*
X204198Y123493D01*
X204071Y124484D01*
X203907Y125470D01*
X203708Y126449D01*
X203472Y127421D01*
X203202Y128383D01*
X202897Y129335D01*
X202557Y130275D01*
X202183Y131202D01*
X201775Y132114D01*
X201334Y133011D01*
X200861Y133892D01*
X200356Y134754D01*
X199820Y135598D01*
X199253Y136421D01*
X198657Y137223D01*
X198032Y138003D01*
X197379Y138759D01*
X196698Y139491D01*
X195991Y140198D01*
X195259Y140879D01*
X194503Y141532D01*
X193723Y142157D01*
X192921Y142753D01*
X192098Y143320D01*
X191254Y143856D01*
X190392Y144361D01*
X189511Y144834D01*
X188614Y145275D01*
X187701Y145683D01*
X186775Y146057D01*
X185835Y146397D01*
X184883Y146702D01*
X183921Y146973D01*
X182949Y147208D01*
X181970Y147407D01*
X180984Y147571D01*
X179993Y147698D01*
X178997Y147789D01*
X177999Y147844D01*
X177000Y147862D01*
X176001Y147844D01*
X175003Y147789D01*
X174007Y147698D01*
X173016Y147571D01*
X172030Y147407D01*
X171051Y147208D01*
X170079Y146973D01*
X169117Y146702D01*
X168165Y146397D01*
X167225Y146057D01*
X166298Y145683D01*
X165386Y145275D01*
X164489Y144834D01*
X163608Y144361D01*
X162746Y143856D01*
X161902Y143320D01*
X161079Y142753D01*
X160277Y142157D01*
X159497Y141532D01*
X158741Y140879D01*
X158009Y140198D01*
X157302Y139491D01*
X156621Y138759D01*
X155968Y138003D01*
X155343Y137223D01*
X154747Y136421D01*
X154180Y135598D01*
X153644Y134754D01*
X153139Y133891D01*
X152666Y133011D01*
X152225Y132114D01*
X151817Y131202D01*
X151443Y130275D01*
X151103Y129335D01*
X150798Y128383D01*
X150528Y127421D01*
X150292Y126449D01*
X150093Y125470D01*
X149929Y124484D01*
X149802Y123493D01*
X149711Y122497D01*
X149656Y121499D01*
X149638Y120500D01*
X149656Y119501D01*
X149711Y118503D01*
X149802Y117507D01*
X149929Y116516D01*
X150093Y115530D01*
X150292Y114551D01*
X150528Y113579D01*
X150798Y112617D01*
X151103Y111665D01*
X151443Y110725D01*
X151817Y109799D01*
X152225Y108886D01*
X152666Y107989D01*
X153139Y107108D01*
X153644Y106246D01*
X154180Y105403D01*
X154747Y104579D01*
X155343Y103777D01*
X155968Y102997D01*
X156621Y102241D01*
X157302Y101509D01*
X158009Y100802D01*
X158741Y100121D01*
X159497Y99468D01*
X160277Y98843D01*
X161079Y98247D01*
X161902Y97680D01*
X162746Y97144D01*
X163608Y96639D01*
X164489Y96166D01*
X165386Y95725D01*
X166298Y95317D01*
X167225Y94943D01*
X168165Y94603D01*
X169117Y94298D01*
X170079Y94028D01*
X171051Y93792D01*
X172030Y93593D01*
X173016Y93429D01*
X174007Y93302D01*
X175003Y93211D01*
X176000Y93156D01*
X177000Y93138D01*
X177999Y93156D01*
X178997Y93211D01*
X179992Y93302D01*
X180984Y93429D01*
X181970Y93593D01*
X182949Y93792D01*
X183921Y94028D01*
X184883Y94298D01*
X185835Y94603D01*
X186775Y94943D01*
X187701Y95317D01*
X188614Y95725D01*
X189511Y96166D01*
X190391Y96639D01*
X191254Y97144D01*
X192097Y97680D01*
X192921Y98247D01*
X193723Y98843D01*
X194503Y99468D01*
X195259Y100121D01*
X195991Y100802D01*
X196698Y101508D01*
X197379Y102241D01*
X198032Y102997D01*
X198657Y103777D01*
X199253Y104579D01*
X199820Y105402D01*
X200356Y106246D01*
X200861Y107108D01*
X201334Y107989D01*
X201775Y108886D01*
X202183Y109798D01*
X202557Y110725D01*
X202897Y111665D01*
X203202Y112617D01*
X203472Y113579D01*
X203708Y114550D01*
X203907Y115530D01*
X204071Y116516D01*
X204198Y117507D01*
X204289Y118502D01*
X204344Y119500D01*
X204362Y120500D01*
X58709Y346875D02*
X57707Y346792D01*
X56726Y346579D01*
X55780Y346240D01*
X54887Y345780D01*
X54062Y345207D01*
X53318Y344532D01*
X52669Y343765D01*
X52126Y342920D01*
X51697Y342011D01*
X51391Y341055D01*
X51212Y340066D01*
X51164Y339063D01*
X77151D02*
X77103Y340066D01*
X76924Y341055D01*
X76618Y342011D01*
X76189Y342920D01*
X75646Y343765D01*
X74997Y344532D01*
X74253Y345207D01*
X73428Y345780D01*
X72535Y346240D01*
X71589Y346579D01*
X70608Y346792D01*
X69606Y346875D01*
Y331125D02*
X70608Y331208D01*
X71589Y331421D01*
X72535Y331760D01*
X73428Y332220D01*
X74253Y332793D01*
X74997Y333468D01*
X75646Y334235D01*
X76189Y335080D01*
X76618Y335988D01*
X76924Y336945D01*
X77103Y337934D01*
X77151Y338937D01*
X51164D02*
X51212Y337934D01*
X51391Y336945D01*
X51697Y335988D01*
X52126Y335080D01*
X52669Y334235D01*
X53318Y333468D01*
X54062Y332793D01*
X54887Y332220D01*
X55780Y331760D01*
X56726Y331421D01*
X57707Y331208D01*
X58709Y331125D01*
X190079Y285079D02*
Y304764D01*
X199921D01*
Y285079D02*
Y304764D01*
X190079Y285079D02*
X199921D01*
Y335658D02*
Y355343D01*
X190079Y335658D02*
X199921D01*
X190079D02*
Y355343D01*
X199921D01*
X79740Y63752D02*
Y105248D01*
X98244D01*
Y63752D02*
Y105248D01*
X79740Y63752D02*
X98244D01*
X107378Y48594D02*
X123126D01*
X107378D02*
Y58437D01*
X123126Y48594D02*
Y58437D01*
X107378D02*
X123126D01*
X107378Y63094D02*
X123126D01*
X107378D02*
Y72937D01*
X123126Y63094D02*
Y72937D01*
X107378D02*
X123126D01*
X107378Y77094D02*
X123126D01*
X107378D02*
Y86937D01*
X123126Y77094D02*
Y86937D01*
X107378D02*
X123126D01*
X105409Y91594D02*
Y101437D01*
Y91594D02*
X125094D01*
Y101437D01*
X105409D02*
X125094D01*
X105409Y107094D02*
Y116937D01*
Y107094D02*
X125094D01*
Y116937D01*
X105409D02*
X125094D01*
X105409Y122094D02*
Y131937D01*
Y122094D02*
X125094D01*
Y131937D01*
X105409D02*
X125094D01*
X3658Y26043D02*
X53500D01*
Y78406D01*
X3658D02*
X53500D01*
X3658Y26043D02*
Y78406D01*
X97142Y188642D02*
X114858D01*
Y206358D01*
X97142D02*
X114858D01*
X97142Y188642D02*
Y206358D01*
X13992Y187000D02*
X33008D01*
Y217000D01*
X13992D02*
X33008D01*
X13992Y187000D02*
Y217000D01*
Y187000D02*
X33008D01*
Y217000D01*
X13992D02*
X33008D01*
X14492Y327079D02*
X33508D01*
X14492Y237079D02*
Y327079D01*
Y237079D02*
X33508D01*
Y327079D01*
X14492D02*
X33508D01*
X14492Y237079D02*
Y327079D01*
Y237079D02*
X33508D01*
X87787Y169894D02*
X106213D01*
Y179106D01*
X87787D02*
X106213D01*
X87787Y169894D02*
Y179106D01*
X87366Y150894D02*
X105791D01*
Y160106D01*
X87366D02*
X105791D01*
X87366Y150894D02*
Y160106D01*
X13287Y169894D02*
X31713D01*
Y179106D01*
X13287D02*
X31713D01*
X13287Y169894D02*
Y179106D01*
Y150894D02*
X31713D01*
Y160106D01*
X13287D02*
X31713D01*
X13287Y150894D02*
Y160106D01*
X216945Y27079D02*
Y78654D01*
X271472D01*
Y27079D02*
Y78654D01*
X245685Y27079D02*
X271472D01*
X216945D02*
X245685D01*
X127626Y225921D02*
X143374D01*
Y216079D02*
Y225921D01*
X127626Y216079D02*
Y225921D01*
Y216079D02*
X143374D01*
X216945Y96579D02*
Y148153D01*
X271473D01*
Y96579D02*
Y148153D01*
X245685Y96579D02*
X271473D01*
X216945D02*
X245685D01*
X145343Y227579D02*
Y237421D01*
X125657D02*
X145343D01*
X125657Y227579D02*
Y237421D01*
Y227579D02*
X145343D01*
X58646Y346874D02*
X69669D01*
X58646Y331126D02*
X69669D01*
X59878Y97783D02*
Y133217D01*
X3185D02*
X59878D01*
X3185Y97783D02*
Y133217D01*
Y97783D02*
X59878D01*
X73500Y126736D02*
Y130870D01*
Y102130D02*
Y106264D01*
X68146Y106244D02*
X78854D01*
X68146D02*
Y126756D01*
X78854D01*
Y106244D02*
Y126756D01*
X85252Y247079D02*
Y256921D01*
Y247079D02*
X104937D01*
Y256921D01*
X85252D02*
X104937D01*
X80579Y330547D02*
Y346295D01*
X90421D01*
X80579Y330547D02*
X90421D01*
Y346295D01*
X46921Y330547D02*
Y346295D01*
X37079Y330547D02*
X46921D01*
X37079Y346295D02*
X46921D01*
X37079Y330547D02*
Y346295D01*
X61610Y36114D02*
Y57768D01*
X75390D01*
X61610Y36114D02*
X75390D01*
Y57768D01*
D11*
X73500Y116500D02*
X76000D01*
X71000D02*
X73500D01*
X71000Y120500D02*
X73500Y116500D01*
Y122500D01*
Y116500D02*
X76000Y120500D01*
X71000D02*
X76000D01*
X73500Y114000D02*
Y116500D01*
D12*
X101394Y74500D02*
X100606D01*
X101394D01*
X23894Y82342D02*
X23106D01*
X23894D01*
X86709Y191595D02*
X85921D01*
X86709D01*
X18894Y219559D02*
X18106D01*
X18894D01*
X29394Y234520D02*
X28606D01*
X29394D01*
X92394Y183043D02*
X91606D01*
X92394D01*
X91972Y164043D02*
X91185D01*
X91972D01*
X17894Y183043D02*
X17106D01*
X17894D01*
Y164043D02*
X17106D01*
X17894D01*
X218756Y25307D02*
X217969D01*
X218756D01*
X218756Y94807D02*
X217969D01*
X218756D01*
X80382Y17114D02*
X90618D01*
Y43886D01*
X80382D02*
X90618D01*
X80382Y17114D02*
Y43886D01*
D16*
X145504Y136779D02*
X148836D01*
X147170Y138445D02*
Y135113D01*
X145504Y107251D02*
X148836D01*
X128163Y348679D02*
X131499Y345343D01*
X128163D02*
X131499Y348679D01*
X128163Y347011D02*
X131499D01*
X129831Y345343D02*
Y348679D01*
X268713Y302472D02*
X273711D01*
Y299973D01*
X272878Y299140D01*
X271212D01*
X270379Y299973D01*
Y302472D01*
X272878Y294142D02*
X273711Y294975D01*
Y296641D01*
X272878Y297474D01*
X269546D01*
X268713Y296641D01*
Y294975D01*
X269546Y294142D01*
X273711Y292476D02*
X268713D01*
Y289977D01*
X269546Y289143D01*
X270379D01*
X271212Y289977D01*
Y292476D01*
Y289977D01*
X272045Y289143D01*
X272878D01*
X273711Y289977D01*
Y292476D01*
Y279147D02*
Y282479D01*
X268713D01*
Y279147D01*
X271212Y282479D02*
Y280813D01*
X273711Y274148D02*
X268713D01*
Y276647D01*
X269546Y277481D01*
X271212D01*
X272045Y276647D01*
Y274148D01*
X267046Y270816D02*
Y269983D01*
X267880Y269150D01*
X272045D01*
Y271649D01*
X271212Y272482D01*
X269546D01*
X268713Y271649D01*
Y269150D01*
Y264985D02*
Y266651D01*
X269546Y267484D01*
X271212D01*
X272045Y266651D01*
Y264985D01*
X271212Y264152D01*
X270379D01*
Y267484D01*
X268713Y243972D02*
X273711D01*
Y241473D01*
X272878Y240640D01*
X271212D01*
X270379Y241473D01*
Y243972D01*
X272878Y235642D02*
X273711Y236475D01*
Y238141D01*
X272878Y238974D01*
X269546D01*
X268713Y238141D01*
Y236475D01*
X269546Y235642D01*
X273711Y233976D02*
X268713D01*
Y231476D01*
X269546Y230643D01*
X270379D01*
X271212Y231476D01*
Y233976D01*
Y231476D01*
X272045Y230643D01*
X272878D01*
X273711Y231476D01*
Y233976D01*
Y220647D02*
Y223979D01*
X268713D01*
Y220647D01*
X271212Y223979D02*
Y222313D01*
X273711Y215648D02*
X268713D01*
Y218147D01*
X269546Y218981D01*
X271212D01*
X272045Y218147D01*
Y215648D01*
X267046Y212316D02*
Y211483D01*
X267880Y210650D01*
X272045D01*
Y213149D01*
X271212Y213982D01*
X269546D01*
X268713Y213149D01*
Y210650D01*
Y206485D02*
Y208151D01*
X269546Y208984D01*
X271212D01*
X272045Y208151D01*
Y206485D01*
X271212Y205651D01*
X270379D01*
Y208984D01*
D81*
X144300Y348000D02*
X144651Y347151D01*
X145500Y346800D01*
X146349Y347151D01*
X146700Y348000D01*
X131500Y242000D02*
Y348000D01*
X144300D01*
X146700D01*
X159500D01*
Y242000D02*
Y348000D01*
X131500Y242000D02*
X159500D01*
Y342200D02*
X162700D01*
Y337800D02*
Y342200D01*
X159500Y337800D02*
X162700D01*
X159500D02*
Y342200D01*
Y332200D02*
X162700D01*
Y327800D02*
Y332200D01*
X159500Y327800D02*
X162700D01*
X159500D02*
Y332200D01*
Y322200D02*
X162700D01*
Y317800D02*
Y322200D01*
X159500Y317800D02*
X162700D01*
X159500D02*
Y322200D01*
Y312200D02*
X162700D01*
Y307800D02*
Y312200D01*
X159500Y307800D02*
X162700D01*
X159500D02*
Y312200D01*
Y302200D02*
X162700D01*
Y297800D02*
Y302200D01*
X159500Y297800D02*
X162700D01*
X159500D02*
Y302200D01*
Y292200D02*
X162700D01*
Y287800D02*
Y292200D01*
X159500Y287800D02*
X162700D01*
X159500D02*
Y292200D01*
Y282200D02*
X162700D01*
Y277800D02*
Y282200D01*
X159500Y277800D02*
X162700D01*
X159500D02*
Y282200D01*
Y272200D02*
X162700D01*
Y267800D02*
Y272200D01*
X159500Y267800D02*
X162700D01*
X159500D02*
Y272200D01*
Y262200D02*
X162700D01*
Y257800D02*
Y262200D01*
X159500Y257800D02*
X162700D01*
X159500D02*
Y262200D01*
Y252200D02*
X162700D01*
Y247800D02*
Y252200D01*
X159500Y247800D02*
X162700D01*
X159500D02*
Y252200D01*
X128300Y247800D02*
X131500D01*
X128300D02*
Y252200D01*
X131500D01*
Y247800D02*
Y252200D01*
X128300Y257800D02*
X131500D01*
X128300D02*
Y262200D01*
X131500D01*
Y257800D02*
Y262200D01*
X128300Y267800D02*
X131500D01*
X128300D02*
Y272200D01*
X131500D01*
Y267800D02*
Y272200D01*
X128300Y277800D02*
X131500D01*
X128300D02*
Y282200D01*
X131500D01*
Y277800D02*
Y282200D01*
X128300Y287800D02*
X131500D01*
X128300D02*
Y292200D01*
X131500D01*
Y287800D02*
Y292200D01*
X128300Y297800D02*
X131500D01*
X128300D02*
Y302200D01*
X131500D01*
Y297800D02*
Y302200D01*
X128300Y307800D02*
X131500D01*
X128300D02*
Y312200D01*
X131500D01*
Y307800D02*
Y312200D01*
X128300Y317800D02*
X131500D01*
X128300D02*
Y322200D01*
X131500D01*
Y317800D02*
Y322200D01*
X128300Y327800D02*
X131500D01*
X128300D02*
Y332200D01*
X131500D01*
Y327800D02*
Y332200D01*
X128300Y337800D02*
X131500D01*
X128300D02*
Y342200D01*
X131500D01*
Y337800D02*
Y342200D01*
D82*
X76598Y191055D02*
X76335Y192039D01*
X75614Y192760D01*
X74630Y193024D01*
X73646Y192760D01*
X72925Y192039D01*
X72661Y191055D01*
X72925Y190071D01*
X73646Y189350D01*
X74630Y189087D01*
X75614Y189350D01*
X76335Y190071D01*
X76598Y191055D01*
X267335Y350996D02*
Y354835D01*
Y313004D02*
Y350996D01*
Y309165D02*
Y313004D01*
X221665Y309165D02*
X267335D01*
X221665D02*
Y354835D01*
X267335D01*
Y350996D02*
X350602D01*
Y313004D02*
Y350996D01*
X267335Y313004D02*
X350602D01*
X267335Y279441D02*
Y309165D01*
Y292496D02*
Y296335D01*
Y254504D02*
Y292496D01*
Y250665D02*
Y254504D01*
X221665Y250665D02*
X267335D01*
X221665D02*
Y296335D01*
X267335D01*
Y292496D02*
X350602D01*
Y254504D02*
Y292496D01*
X267335Y254504D02*
X350602D01*
X267335Y220941D02*
Y250665D01*
X49827Y326488D02*
X78173D01*
X49827Y187512D02*
X78173D01*
X49827D02*
Y326488D01*
X78173Y187512D02*
Y326488D01*
M02*
