G04*
G04 #@! TF.GenerationSoftware,Altium Limited,Altium Designer,22.10.1 (41)*
G04*
G04 Layer_Physical_Order=2*
G04 Layer_Color=16711680*
%FSLAX25Y25*%
%MOIN*%
G70*
G04*
G04 #@! TF.SameCoordinates,0999A839-FE00-46F6-A3B1-7260279DBB53*
G04*
G04*
G04 #@! TF.FilePolarity,Positive*
G04*
G01*
G75*
%ADD16C,0.01000*%
%ADD24C,0.04921*%
%ADD25R,0.04921X0.04921*%
%ADD50C,0.01500*%
%ADD51C,0.09843*%
%ADD52C,0.04528*%
%ADD53C,0.06600*%
%ADD54R,0.06600X0.06600*%
%ADD55C,0.15748*%
%ADD56C,0.07323*%
%ADD57R,0.07323X0.07323*%
%ADD58C,0.07677*%
%ADD59C,0.15417*%
%ADD60C,0.05512*%
%ADD61C,0.08268*%
%ADD62R,0.08268X0.08268*%
%ADD63C,0.06496*%
%ADD64R,0.06496X0.06496*%
%ADD65C,0.06024*%
%ADD66R,0.06024X0.06024*%
%ADD67R,0.06024X0.06024*%
%ADD68R,0.05937X0.05937*%
%ADD69C,0.05937*%
%ADD70C,0.13370*%
%ADD71C,0.04055*%
%ADD72C,0.05906*%
%ADD73R,0.05906X0.05906*%
%ADD74O,0.17717X0.08858*%
%ADD75O,0.08858X0.17717*%
%ADD76O,0.09843X0.19685*%
%ADD77R,0.06260X0.06260*%
%ADD78C,0.06260*%
%ADD79C,0.05000*%
%ADD80C,0.02000*%
G36*
X272500Y353525D02*
X272000Y353476D01*
X271968Y353635D01*
X271312Y355220D01*
X270359Y356646D01*
X269146Y357859D01*
X267720Y358812D01*
X266135Y359468D01*
X264594Y359775D01*
Y351094D01*
Y342414D01*
X266135Y342720D01*
X267720Y343377D01*
X269146Y344330D01*
X270359Y345543D01*
X271312Y346969D01*
X271968Y348554D01*
X272000Y348713D01*
X272500Y348664D01*
Y315336D01*
X272000Y315287D01*
X271968Y315446D01*
X271312Y317031D01*
X270359Y318457D01*
X269146Y319670D01*
X267720Y320623D01*
X266135Y321280D01*
X264594Y321586D01*
Y312906D01*
Y304225D01*
X266135Y304532D01*
X267720Y305188D01*
X269146Y306141D01*
X270359Y307354D01*
X271312Y308781D01*
X271968Y310365D01*
X272000Y310524D01*
X272500Y310475D01*
Y295025D01*
X272000Y294976D01*
X271968Y295135D01*
X271312Y296720D01*
X270359Y298146D01*
X269146Y299359D01*
X267720Y300312D01*
X266135Y300968D01*
X264594Y301275D01*
Y292594D01*
Y283914D01*
X266135Y284220D01*
X267720Y284877D01*
X269146Y285830D01*
X270359Y287043D01*
X271312Y288469D01*
X271968Y290054D01*
X272000Y290213D01*
X272500Y290164D01*
Y256836D01*
X272000Y256787D01*
X271968Y256946D01*
X271312Y258531D01*
X270359Y259957D01*
X269146Y261170D01*
X267720Y262123D01*
X266135Y262780D01*
X264594Y263086D01*
Y254406D01*
Y245725D01*
X266135Y246032D01*
X267720Y246688D01*
X269146Y247641D01*
X270359Y248854D01*
X271312Y250280D01*
X271968Y251865D01*
X272000Y252024D01*
X272500Y251975D01*
Y2000D01*
X2000D01*
Y25741D01*
X2006Y25763D01*
X2336Y26184D01*
X2336Y26184D01*
X159778D01*
X159857Y26200D01*
X159937Y26200D01*
X159956Y26208D01*
X159976Y26209D01*
X159976Y26209D01*
X160031Y26235D01*
X160090Y26246D01*
X160157Y26291D01*
X160187Y26303D01*
X160210Y26311D01*
X160215Y26315D01*
X160231Y26322D01*
X160266Y26345D01*
X160324Y26402D01*
X160355Y26423D01*
X160371Y26448D01*
X160433Y26500D01*
X164517D01*
X164518Y26500D01*
X164523Y26492D01*
X164529Y26487D01*
X164536Y26477D01*
X164543Y26469D01*
X164549Y26465D01*
X164553Y26459D01*
X164564Y26448D01*
X164583Y26435D01*
X164590Y26425D01*
X164592Y26423D01*
X164592Y26423D01*
X164598Y26415D01*
X164598Y26415D01*
X164647Y26385D01*
X164649Y26384D01*
X164687Y26345D01*
X164689Y26344D01*
X164699Y26333D01*
X164713Y26324D01*
X164713Y26324D01*
Y25000D01*
X164213Y24711D01*
X163873Y24908D01*
X162968Y25150D01*
X162032D01*
X161127Y24908D01*
X160317Y24440D01*
X159655Y23778D01*
X159186Y22967D01*
X158944Y22062D01*
Y21126D01*
X159186Y20222D01*
X159655Y19411D01*
X160317Y18749D01*
X161127Y18281D01*
X162032Y18038D01*
X162968D01*
X163873Y18281D01*
X164683Y18749D01*
X165345Y19411D01*
X165814Y20222D01*
X166056Y21126D01*
Y22056D01*
X166556Y22556D01*
X166556D01*
X166556Y22556D01*
X170184Y26184D01*
X170184Y26184D01*
X184309D01*
X184383Y26199D01*
X184458Y26198D01*
X184537Y26230D01*
X184621Y26246D01*
X184684Y26288D01*
X184754Y26316D01*
X184815Y26376D01*
X184886Y26423D01*
X184928Y26486D01*
X184942Y26500D01*
X185720D01*
X189211Y23009D01*
X189186Y22967D01*
X188944Y22062D01*
Y21126D01*
X189186Y20222D01*
X189655Y19411D01*
X190317Y18749D01*
X191128Y18281D01*
X192032Y18038D01*
X192968D01*
X193872Y18281D01*
X194683Y18749D01*
X195345Y19411D01*
X195814Y20222D01*
X196056Y21126D01*
Y22062D01*
X195814Y22967D01*
X195345Y23778D01*
X194683Y24440D01*
X193872Y24908D01*
X192968Y25150D01*
X192032D01*
X191128Y24908D01*
X191085Y24884D01*
X189931Y26038D01*
X190122Y26500D01*
X194567D01*
X194629Y26447D01*
X194645Y26423D01*
X194676Y26402D01*
X194734Y26345D01*
X194769Y26321D01*
X194785Y26315D01*
X194790Y26310D01*
X194814Y26303D01*
X194843Y26291D01*
X194910Y26246D01*
X194988Y26231D01*
X195062Y26200D01*
X195062Y26200D01*
X195063D01*
X195063Y26200D01*
X195143Y26200D01*
X195222Y26184D01*
X195302D01*
X195302Y26184D01*
X223315D01*
X223564Y26018D01*
X223803Y24817D01*
X224367Y23455D01*
X225186Y22229D01*
X226229Y21186D01*
X227454Y20367D01*
X228817Y19803D01*
X230263Y19515D01*
X231737D01*
X233183Y19803D01*
X234545Y20367D01*
X235771Y21186D01*
X236814Y22229D01*
X237633Y23455D01*
X238197Y24817D01*
X238436Y26018D01*
X238685Y26184D01*
X242839D01*
X242864Y26189D01*
X242889Y26186D01*
X242962Y26205D01*
X243037Y26209D01*
X243037Y26209D01*
X243092Y26235D01*
X243151Y26246D01*
X243172Y26261D01*
X243197Y26267D01*
X243257Y26313D01*
X243325Y26345D01*
X243366Y26390D01*
X243416Y26423D01*
X243430Y26444D01*
X243450Y26460D01*
X243474Y26500D01*
X243500D01*
Y26538D01*
X243539Y26580D01*
X243559Y26638D01*
X243593Y26688D01*
X243598Y26713D01*
X243611Y26735D01*
X243771Y27201D01*
X243789Y27335D01*
X243816Y27467D01*
Y169839D01*
X243811Y169864D01*
X243814Y169889D01*
X243795Y169962D01*
X243791Y170037D01*
X243791Y170037D01*
X243765Y170092D01*
X243754Y170151D01*
X243740Y170172D01*
X243733Y170197D01*
X243688Y170257D01*
X243655Y170325D01*
X243610Y170366D01*
X243577Y170416D01*
X243556Y170430D01*
X243540Y170450D01*
X243500Y170474D01*
Y170500D01*
X243462D01*
X243420Y170539D01*
X243362Y170559D01*
X243312Y170593D01*
X243287Y170598D01*
X243266Y170611D01*
X242799Y170771D01*
X242665Y170789D01*
X242533Y170816D01*
X148816D01*
Y209315D01*
X148816Y209316D01*
X169500Y230000D01*
Y287500D01*
X166235D01*
X164531Y289204D01*
X164600Y289460D01*
Y290540D01*
X164321Y291582D01*
X163781Y292517D01*
X163017Y293281D01*
X162083Y293821D01*
X162080Y293821D01*
Y296179D01*
X162083Y296179D01*
X163017Y296719D01*
X163781Y297482D01*
X164321Y298417D01*
X164600Y299460D01*
Y300540D01*
X164321Y301583D01*
X163781Y302518D01*
X163017Y303281D01*
X162083Y303821D01*
X161040Y304100D01*
X159960D01*
X158917Y303821D01*
X157983Y303281D01*
X157219Y302518D01*
X156679Y301583D01*
X156400Y300540D01*
Y299460D01*
X156679Y298417D01*
X157219Y297482D01*
X157983Y296719D01*
X158917Y296179D01*
X158920Y296179D01*
Y293821D01*
X158917Y293821D01*
X157983Y293281D01*
X157219Y292517D01*
X156679Y291582D01*
X156400Y290540D01*
Y289460D01*
X156679Y288418D01*
X156959Y287933D01*
X156709Y287500D01*
X148816D01*
Y300500D01*
Y334184D01*
X158547D01*
X158681Y333684D01*
X157983Y333281D01*
X157219Y332518D01*
X156679Y331582D01*
X156400Y330540D01*
Y329460D01*
X156679Y328417D01*
X157219Y327483D01*
X157983Y326719D01*
X158917Y326179D01*
X159960Y325900D01*
X161040D01*
X162083Y326179D01*
X163017Y326719D01*
X163781Y327483D01*
X164175Y328165D01*
X205000D01*
X205702Y328304D01*
X206298Y328702D01*
X208644Y331048D01*
X209032Y330944D01*
X209968D01*
X210873Y331186D01*
X211683Y331655D01*
X212345Y332317D01*
X212814Y333127D01*
X213056Y334032D01*
Y334968D01*
X212814Y335873D01*
X212345Y336683D01*
X211683Y337345D01*
X210873Y337814D01*
X209968Y338056D01*
X209032D01*
X208127Y337814D01*
X207317Y337345D01*
X206655Y336683D01*
X206186Y335873D01*
X205944Y334968D01*
Y334032D01*
X206048Y333644D01*
X204240Y331835D01*
X164175D01*
X163781Y332518D01*
X163017Y333281D01*
X162319Y333684D01*
X162452Y334184D01*
X174453D01*
X174532Y334200D01*
X174612Y334200D01*
X174686Y334231D01*
X174765Y334246D01*
X174769Y334249D01*
X174898Y334302D01*
X174898Y334302D01*
X174902Y334303D01*
X174963Y334344D01*
X175033Y334372D01*
X175033Y334372D01*
X175038Y334376D01*
X175043Y334379D01*
X175064Y334399D01*
X175064Y334399D01*
X175215Y334500D01*
X175500D01*
Y334785D01*
X175601Y334937D01*
X175601Y334937D01*
X175621Y334957D01*
X175652Y335031D01*
X175697Y335098D01*
X175698Y335102D01*
X175698Y335102D01*
X175751Y335231D01*
X175751Y335231D01*
X175754Y335235D01*
X175769Y335314D01*
X175800Y335388D01*
X175800Y335468D01*
X175816Y335547D01*
X175816Y335627D01*
X175816Y335700D01*
X175816Y335700D01*
X175816Y335700D01*
Y340731D01*
Y345500D01*
Y349826D01*
X175816Y355471D01*
Y360146D01*
Y365109D01*
Y369674D01*
Y374419D01*
X175815Y374421D01*
X175816Y374423D01*
X175800Y374498D01*
X175801Y374575D01*
X175801Y374576D01*
X175800Y374577D01*
Y374579D01*
X175769Y374653D01*
X175754Y374731D01*
X175753Y374733D01*
X175752Y374735D01*
X175752Y374735D01*
X175750Y374738D01*
X175707Y374842D01*
X175707Y374843D01*
X175703Y374859D01*
X175689Y374893D01*
X175672Y374920D01*
X175669Y374935D01*
X175664Y374946D01*
X175659Y374954D01*
X175659Y374954D01*
X175642Y374998D01*
X175642Y375000D01*
X175648Y375108D01*
X175903Y375423D01*
X175908Y375426D01*
X176006Y375486D01*
X176039Y375500D01*
X272500D01*
Y353525D01*
D02*
G37*
G36*
X174587Y375389D02*
X174654Y375321D01*
X174825Y375034D01*
X174836Y374969D01*
X174831Y374902D01*
X174858Y374819D01*
Y374796D01*
X174866Y374776D01*
X174876Y374720D01*
X174894Y374670D01*
X174907Y374649D01*
X174910Y374635D01*
X174915Y374623D01*
X174933Y374596D01*
X174936Y374581D01*
X174950Y374547D01*
X174950Y374547D01*
X174953Y374530D01*
X174997Y374424D01*
X175000Y374420D01*
X175000Y374420D01*
X175000Y374419D01*
Y369674D01*
Y365109D01*
Y360146D01*
Y355471D01*
X175000Y349826D01*
Y345500D01*
Y340731D01*
Y335700D01*
X175000Y335700D01*
X175000Y335627D01*
X175000Y335547D01*
X174997Y335543D01*
X174944Y335415D01*
X174943Y335410D01*
X174923Y335390D01*
X174822Y335238D01*
X174804Y335196D01*
X174762Y335178D01*
X174611Y335077D01*
X174591Y335057D01*
X174590Y335057D01*
X174585Y335056D01*
X174457Y335003D01*
X174453Y335000D01*
X148000D01*
Y300500D01*
Y249735D01*
X139304Y241039D01*
X138961Y240526D01*
X138841Y239921D01*
Y235125D01*
X138540Y234952D01*
X137970Y234381D01*
X137566Y233683D01*
X137357Y232903D01*
Y232097D01*
X137566Y231317D01*
X137970Y230619D01*
X138540Y230048D01*
X138841Y229875D01*
Y223625D01*
X138540Y223452D01*
X137970Y222881D01*
X137566Y222183D01*
X137357Y221403D01*
Y220597D01*
X137566Y219817D01*
X137970Y219119D01*
X138540Y218548D01*
X138841Y218375D01*
Y214245D01*
X112373Y187777D01*
X111911Y187969D01*
Y201842D01*
X111791Y202447D01*
X111448Y202960D01*
X93549Y220859D01*
X93729Y221532D01*
Y222468D01*
X93487Y223373D01*
X93019Y224183D01*
X92357Y224845D01*
X91754Y225194D01*
Y249375D01*
X92054Y249548D01*
X92625Y250119D01*
X93028Y250817D01*
X93237Y251597D01*
Y252403D01*
X93028Y253183D01*
X92625Y253881D01*
X92054Y254452D01*
X91356Y254855D01*
X90576Y255064D01*
X89770D01*
X88991Y254855D01*
X88292Y254452D01*
X87722Y253881D01*
X87548Y253580D01*
X82421D01*
X82003Y254304D01*
X81304Y255003D01*
X80449Y255497D01*
X79494Y255753D01*
X78506D01*
X77552Y255497D01*
X76696Y255003D01*
X75997Y254304D01*
X75579Y253580D01*
X69655D01*
X52536Y270699D01*
X52753Y271506D01*
Y272494D01*
X52497Y273448D01*
X52003Y274304D01*
X51304Y275003D01*
X50449Y275497D01*
X49494Y275753D01*
X48506D01*
X47552Y275497D01*
X46696Y275003D01*
X45997Y274304D01*
X45503Y273448D01*
X45247Y272494D01*
Y271506D01*
X45503Y270551D01*
X45997Y269696D01*
X46696Y268997D01*
X47552Y268503D01*
X48390Y268278D01*
X48324Y267778D01*
X35175D01*
X32476Y270477D01*
X32552Y270607D01*
X32812Y271577D01*
Y272581D01*
X32552Y273550D01*
X32050Y274419D01*
X31341Y275129D01*
X30471Y275631D01*
X29502Y275891D01*
X28498D01*
X27529Y275631D01*
X26660Y275129D01*
X25950Y274419D01*
X25448Y273550D01*
X25188Y272581D01*
Y271577D01*
X25448Y270607D01*
X25950Y269738D01*
X26660Y269029D01*
X27529Y268527D01*
X28498Y268267D01*
X29502D01*
X30471Y268527D01*
X30602Y268602D01*
X33689Y265515D01*
X34119Y265228D01*
X34626Y265127D01*
X45884D01*
X46075Y264665D01*
X45837Y264427D01*
X45317Y263526D01*
X45176Y263000D01*
X49000D01*
Y261000D01*
X45176D01*
X45317Y260474D01*
X45837Y259573D01*
X46573Y258837D01*
X47474Y258317D01*
X47512Y258307D01*
X47446Y257806D01*
X35147D01*
X32476Y260477D01*
X32552Y260608D01*
X32812Y261577D01*
Y262581D01*
X32552Y263550D01*
X32050Y264419D01*
X31341Y265129D01*
X30471Y265631D01*
X29502Y265891D01*
X28498D01*
X27529Y265631D01*
X26660Y265129D01*
X25950Y264419D01*
X25448Y263550D01*
X25188Y262581D01*
Y261577D01*
X25448Y260608D01*
X25950Y259738D01*
X26660Y259029D01*
X27529Y258527D01*
X28498Y258267D01*
X29502D01*
X30471Y258527D01*
X30602Y258602D01*
X33661Y255544D01*
X34091Y255256D01*
X34598Y255155D01*
X45912D01*
X46104Y254694D01*
X45837Y254427D01*
X45317Y253526D01*
X45176Y253000D01*
X49000D01*
Y251000D01*
X45176D01*
X45317Y250474D01*
X45837Y249573D01*
X46104Y249307D01*
X45896Y248807D01*
X34147D01*
X32476Y250477D01*
X32552Y250607D01*
X32812Y251577D01*
Y252581D01*
X32552Y253550D01*
X32050Y254419D01*
X31341Y255129D01*
X30471Y255631D01*
X29502Y255891D01*
X28498D01*
X27529Y255631D01*
X26660Y255129D01*
X25950Y254419D01*
X25448Y253550D01*
X25188Y252581D01*
Y251577D01*
X25448Y250607D01*
X25950Y249738D01*
X26660Y249029D01*
X27529Y248527D01*
X28498Y248267D01*
X29502D01*
X30471Y248527D01*
X30602Y248602D01*
X32661Y246544D01*
X32722Y246502D01*
X32745Y246388D01*
X32345Y245891D01*
X25188D01*
Y238267D01*
X32812D01*
Y240674D01*
X45470D01*
X45503Y240551D01*
X45997Y239696D01*
X46696Y238997D01*
X47552Y238503D01*
X48506Y238247D01*
X48963D01*
X49170Y237747D01*
X48813Y237390D01*
X48525Y236960D01*
X48425Y236453D01*
Y235731D01*
X47552Y235497D01*
X46696Y235003D01*
X45997Y234304D01*
X45503Y233449D01*
X45247Y232494D01*
Y231506D01*
X45503Y230552D01*
X45997Y229696D01*
X46696Y228997D01*
X47552Y228503D01*
X48506Y228247D01*
X48963D01*
X49170Y227747D01*
X48813Y227390D01*
X48525Y226960D01*
X48425Y226453D01*
Y225731D01*
X47552Y225497D01*
X46696Y225003D01*
X45997Y224304D01*
X45503Y223448D01*
X45247Y222494D01*
Y221506D01*
X45503Y220551D01*
X45997Y219696D01*
X46696Y218997D01*
X47552Y218503D01*
X48506Y218247D01*
X49494D01*
X50449Y218503D01*
X51304Y218997D01*
X52003Y219696D01*
X52497Y220551D01*
X52753Y221506D01*
Y222494D01*
X52497Y223448D01*
X52003Y224304D01*
X51304Y225003D01*
X51076Y225135D01*
Y225904D01*
X55665Y230494D01*
X56127Y230302D01*
Y221002D01*
X50559Y215433D01*
X50449Y215497D01*
X49494Y215753D01*
X48506D01*
X47552Y215497D01*
X46696Y215003D01*
X45997Y214304D01*
X45503Y213449D01*
X45247Y212494D01*
Y211506D01*
X45503Y210552D01*
X45997Y209696D01*
X46696Y208997D01*
X47552Y208503D01*
X48506Y208247D01*
X49494D01*
X50449Y208503D01*
X51304Y208997D01*
X52003Y209696D01*
X52497Y210552D01*
X52753Y211506D01*
Y212494D01*
X52497Y213449D01*
X52433Y213559D01*
X58390Y219515D01*
X58677Y219946D01*
X58778Y220453D01*
Y259280D01*
X59278Y259487D01*
X67883Y250883D01*
X68395Y250540D01*
X69000Y250420D01*
X75579D01*
X75997Y249696D01*
X76696Y248997D01*
X77552Y248503D01*
X78506Y248247D01*
X79494D01*
X80449Y248503D01*
X81304Y248997D01*
X82003Y249696D01*
X82421Y250420D01*
X87548D01*
X87722Y250119D01*
X88292Y249548D01*
X88593Y249375D01*
Y225194D01*
X87990Y224845D01*
X87328Y224183D01*
X86860Y223373D01*
X86617Y222468D01*
Y221532D01*
X86860Y220627D01*
X87328Y219817D01*
X87990Y219155D01*
X88801Y218686D01*
X89705Y218444D01*
X90641D01*
X91314Y218624D01*
X108750Y201188D01*
Y184831D01*
X108250Y184624D01*
X82433Y210441D01*
X82497Y210552D01*
X82753Y211506D01*
Y212494D01*
X82497Y213449D01*
X82003Y214304D01*
X81304Y215003D01*
X80449Y215497D01*
X79494Y215753D01*
X78506D01*
X77552Y215497D01*
X76696Y215003D01*
X75997Y214304D01*
X75503Y213449D01*
X75247Y212494D01*
Y211506D01*
X75503Y210552D01*
X75997Y209696D01*
X76696Y208997D01*
X77552Y208503D01*
X78506Y208247D01*
X79494D01*
X80449Y208503D01*
X80559Y208567D01*
X106175Y182951D01*
Y175580D01*
X105675Y175514D01*
X105552Y175971D01*
X105050Y176840D01*
X104341Y177550D01*
X103471Y178052D01*
X102502Y178312D01*
X101498D01*
X100529Y178052D01*
X100398Y177977D01*
X98426Y179949D01*
X97995Y180236D01*
X97488Y180337D01*
X88367D01*
X87860Y180236D01*
X87429Y179949D01*
X83306Y175826D01*
X82326D01*
X82314Y175873D01*
X81845Y176683D01*
X81183Y177345D01*
X80373Y177814D01*
X79468Y178056D01*
X78532D01*
X77627Y177814D01*
X77585Y177789D01*
X75873Y179502D01*
Y188247D01*
X82753D01*
Y195753D01*
X75873D01*
Y196998D01*
X77441Y198567D01*
X77552Y198503D01*
X78506Y198247D01*
X79494D01*
X80449Y198503D01*
X81304Y198997D01*
X82003Y199696D01*
X82497Y200552D01*
X82753Y201506D01*
Y202494D01*
X82497Y203449D01*
X82003Y204304D01*
X81304Y205003D01*
X80449Y205497D01*
X79494Y205753D01*
X78506D01*
X77552Y205497D01*
X76696Y205003D01*
X75997Y204304D01*
X75503Y203449D01*
X75247Y202494D01*
Y201506D01*
X75503Y200552D01*
X75567Y200441D01*
X73610Y198484D01*
X73323Y198054D01*
X73222Y197547D01*
Y178953D01*
X73323Y178446D01*
X73610Y178016D01*
X75711Y175915D01*
X75686Y175873D01*
X75444Y174968D01*
Y174032D01*
X75686Y173127D01*
X76155Y172317D01*
X76817Y171655D01*
X77627Y171186D01*
X78532Y170944D01*
X79468D01*
X80373Y171186D01*
X81183Y171655D01*
X81845Y172317D01*
X82314Y173127D01*
X82326Y173175D01*
X83855D01*
X84362Y173275D01*
X84792Y173563D01*
X87726Y176497D01*
X88188Y176305D01*
Y173314D01*
X87488D01*
X86981Y173213D01*
X86551Y172925D01*
X80415Y166789D01*
X80373Y166814D01*
X79468Y167056D01*
X78532D01*
X77627Y166814D01*
X76817Y166345D01*
X76155Y165683D01*
X75686Y164873D01*
X75444Y163968D01*
Y163032D01*
X75686Y162127D01*
X76155Y161317D01*
X76817Y160655D01*
X77627Y160186D01*
X78532Y159944D01*
X79468D01*
X80373Y160186D01*
X81183Y160655D01*
X81845Y161317D01*
X82314Y162127D01*
X82326Y162174D01*
X101500D01*
X102007Y162275D01*
X102437Y162563D01*
X108250Y168376D01*
X108750Y168169D01*
Y129641D01*
X108450Y129467D01*
X107879Y128897D01*
X107476Y128198D01*
X107267Y127419D01*
Y126612D01*
X107476Y125833D01*
X107879Y125135D01*
X108450Y124564D01*
X108750Y124390D01*
Y114641D01*
X108450Y114467D01*
X107879Y113897D01*
X107476Y113198D01*
X107267Y112419D01*
Y111612D01*
X107476Y110833D01*
X107879Y110135D01*
X108450Y109564D01*
X108750Y109390D01*
Y99141D01*
X108450Y98967D01*
X107879Y98397D01*
X107476Y97698D01*
X107267Y96919D01*
Y96506D01*
X106841Y96080D01*
X95195D01*
X95157Y96222D01*
X94570Y97239D01*
X93739Y98070D01*
X92722Y98657D01*
X91587Y98961D01*
X90413D01*
X89278Y98657D01*
X88261Y98070D01*
X87430Y97239D01*
X86843Y96222D01*
X86539Y95087D01*
Y93913D01*
X86843Y92778D01*
X87430Y91761D01*
X88261Y90930D01*
X89278Y90343D01*
X90413Y90039D01*
X91587D01*
X92722Y90343D01*
X93739Y90930D01*
X94570Y91761D01*
X95157Y92778D01*
X95195Y92920D01*
X107496D01*
X108101Y93040D01*
X108250Y93140D01*
X108750Y92873D01*
Y84641D01*
X108450Y84467D01*
X107879Y83897D01*
X107476Y83198D01*
X107267Y82419D01*
Y81612D01*
X107476Y80833D01*
X107879Y80135D01*
X108450Y79564D01*
X108750Y79391D01*
Y70641D01*
X108450Y70467D01*
X107879Y69897D01*
X107476Y69198D01*
X107267Y68419D01*
Y67612D01*
X107476Y66833D01*
X107879Y66135D01*
X108450Y65564D01*
X108750Y65390D01*
Y56141D01*
X108450Y55967D01*
X107879Y55397D01*
X107476Y54698D01*
X107267Y53919D01*
Y53113D01*
X107476Y52333D01*
X107879Y51635D01*
X108450Y51064D01*
X109148Y50661D01*
X109927Y50452D01*
X110734D01*
X111070Y50542D01*
X113227Y48384D01*
X113740Y48042D01*
X114345Y47922D01*
X155219D01*
X155823Y48042D01*
X156336Y48384D01*
X161359Y53408D01*
X162032Y53228D01*
X162968D01*
X163873Y53470D01*
X164683Y53938D01*
X165345Y54600D01*
X165814Y55411D01*
X166056Y56315D01*
Y57252D01*
X165814Y58156D01*
X165345Y58967D01*
X164683Y59629D01*
X164080Y59977D01*
Y63432D01*
X164683Y63781D01*
X165345Y64443D01*
X165814Y65254D01*
X166056Y66158D01*
Y67094D01*
X165814Y67998D01*
X165345Y68809D01*
X164683Y69471D01*
X164080Y69820D01*
Y71306D01*
X164683Y71655D01*
X165345Y72317D01*
X165814Y73128D01*
X166056Y74032D01*
Y74968D01*
X165814Y75872D01*
X165345Y76683D01*
X164683Y77345D01*
X164080Y77694D01*
Y81149D01*
X164683Y81497D01*
X165345Y82159D01*
X165814Y82970D01*
X166056Y83874D01*
Y84811D01*
X165814Y85715D01*
X165345Y86526D01*
X164683Y87188D01*
X163873Y87656D01*
X162968Y87898D01*
X162032D01*
X161127Y87656D01*
X160317Y87188D01*
X159655Y86526D01*
X159186Y85715D01*
X158944Y84811D01*
Y83874D01*
X159186Y82970D01*
X159655Y82159D01*
X160317Y81497D01*
X160920Y81149D01*
Y77694D01*
X160317Y77345D01*
X159655Y76683D01*
X159186Y75872D01*
X158944Y74968D01*
Y74032D01*
X159186Y73128D01*
X159655Y72317D01*
X160317Y71655D01*
X160920Y71306D01*
Y69820D01*
X160317Y69471D01*
X159655Y68809D01*
X159186Y67998D01*
X158944Y67094D01*
Y66158D01*
X159186Y65254D01*
X159655Y64443D01*
X160317Y63781D01*
X160920Y63432D01*
Y59977D01*
X160317Y59629D01*
X159655Y58967D01*
X159186Y58156D01*
X158944Y57252D01*
Y56315D01*
X159124Y55643D01*
X154564Y51082D01*
X122984D01*
X122826Y51582D01*
X123215Y52256D01*
X123284Y52516D01*
X117062D01*
X117132Y52256D01*
X117521Y51582D01*
X117362Y51082D01*
X114999D01*
X113305Y52777D01*
X113395Y53113D01*
Y53919D01*
X113186Y54698D01*
X112782Y55397D01*
X112212Y55967D01*
X111911Y56141D01*
Y65390D01*
X112212Y65564D01*
X112782Y66135D01*
X113186Y66833D01*
X113395Y67612D01*
Y68419D01*
X113186Y69198D01*
X112782Y69897D01*
X112212Y70467D01*
X111911Y70641D01*
Y79391D01*
X112212Y79564D01*
X112782Y80135D01*
X113186Y80833D01*
X113395Y81612D01*
Y82419D01*
X113186Y83198D01*
X112782Y83897D01*
X112212Y84467D01*
X111911Y84641D01*
Y93891D01*
X112212Y94064D01*
X112782Y94635D01*
X113186Y95333D01*
X113395Y96113D01*
Y96919D01*
X113186Y97698D01*
X112782Y98397D01*
X112212Y98967D01*
X111911Y99141D01*
Y109390D01*
X112212Y109564D01*
X112782Y110135D01*
X113186Y110833D01*
X113395Y111612D01*
Y112419D01*
X113186Y113198D01*
X112782Y113897D01*
X112212Y114467D01*
X111911Y114641D01*
Y124390D01*
X112212Y124564D01*
X112782Y125135D01*
X113186Y125833D01*
X113395Y126612D01*
Y127419D01*
X113186Y128198D01*
X112782Y128897D01*
X112212Y129467D01*
X111911Y129641D01*
Y182845D01*
X141539Y212473D01*
X141881Y212986D01*
X142002Y213590D01*
Y218375D01*
X142302Y218548D01*
X142873Y219119D01*
X143276Y219817D01*
X143485Y220597D01*
Y221403D01*
X143276Y222183D01*
X142873Y222881D01*
X142302Y223452D01*
X142002Y223625D01*
Y229875D01*
X142302Y230048D01*
X142873Y230619D01*
X143276Y231317D01*
X143485Y232097D01*
Y232903D01*
X143276Y233683D01*
X142873Y234381D01*
X142302Y234952D01*
X142002Y235125D01*
Y239267D01*
X147538Y244803D01*
X148000Y244612D01*
Y209316D01*
X148000Y209316D01*
X148000Y209315D01*
Y170816D01*
Y170000D01*
X242533D01*
X243000Y169839D01*
X243000Y169839D01*
Y27467D01*
X242839Y27000D01*
X242839Y27000D01*
X238685D01*
Y27757D01*
X238390Y29242D01*
X237810Y30640D01*
X236969Y31899D01*
X235899Y32969D01*
X234640Y33810D01*
X233242Y34390D01*
X232000Y34637D01*
Y27000D01*
X230000D01*
Y34637D01*
X228758Y34390D01*
X227360Y33810D01*
X226101Y32969D01*
X225031Y31899D01*
X224190Y30640D01*
X223610Y29242D01*
X223315Y27757D01*
Y27000D01*
X195302D01*
X195302Y27000D01*
X195222D01*
X195222Y27000D01*
X195187Y27023D01*
X195166Y27049D01*
X195073Y27506D01*
X195073Y27544D01*
X195110Y27676D01*
X195345Y27911D01*
X195814Y28722D01*
X196056Y29626D01*
Y30562D01*
X195814Y31467D01*
X195345Y32278D01*
X194683Y32940D01*
X193872Y33408D01*
X192968Y33650D01*
X192032D01*
X191128Y33408D01*
X191085Y33384D01*
X187569Y36899D01*
Y41497D01*
X188031Y41688D01*
X189211Y40509D01*
X189186Y40467D01*
X188944Y39562D01*
Y38626D01*
X189186Y37722D01*
X189655Y36911D01*
X190317Y36249D01*
X191128Y35781D01*
X192032Y35539D01*
X192968D01*
X193872Y35781D01*
X194683Y36249D01*
X195345Y36911D01*
X195814Y37722D01*
X195826Y37769D01*
X211014D01*
X216220Y32563D01*
X216650Y32275D01*
X217158Y32175D01*
X222520D01*
X223027Y32275D01*
X223457Y32563D01*
X225537Y34642D01*
X225824Y35072D01*
X225925Y35580D01*
Y44660D01*
X225824Y45168D01*
X225537Y45598D01*
X223776Y47359D01*
X223843Y47474D01*
X224099Y48433D01*
Y49425D01*
X223843Y50384D01*
X223346Y51243D01*
X222645Y51945D01*
X221785Y52441D01*
X221164Y52607D01*
Y53125D01*
X221785Y53291D01*
X222645Y53788D01*
X223346Y54489D01*
X223843Y55349D01*
X224099Y56307D01*
Y57299D01*
X223843Y58258D01*
X223346Y59117D01*
X222645Y59819D01*
X221785Y60315D01*
X220827Y60572D01*
X219835D01*
X219017Y60352D01*
X203751Y75617D01*
X203239Y75960D01*
X202634Y76080D01*
X195694D01*
X195345Y76683D01*
X194683Y77345D01*
X193872Y77814D01*
X192968Y78056D01*
X192619D01*
X192412Y78556D01*
X193005Y79149D01*
X193293Y79579D01*
X193394Y80087D01*
Y80901D01*
X193872Y81029D01*
X194683Y81497D01*
X195345Y82159D01*
X195694Y82762D01*
X201979D01*
X216781Y67960D01*
X216562Y67142D01*
Y66149D01*
X216819Y65191D01*
X217315Y64332D01*
X218017Y63630D01*
X218876Y63134D01*
X219835Y62877D01*
X220827D01*
X221785Y63134D01*
X222645Y63630D01*
X223346Y64332D01*
X223843Y65191D01*
X224099Y66149D01*
Y67142D01*
X223843Y68100D01*
X223346Y68959D01*
X222645Y69661D01*
X221785Y70157D01*
X220827Y70414D01*
X219835D01*
X219017Y70195D01*
X203751Y85460D01*
X203239Y85803D01*
X202634Y85923D01*
X195694D01*
X195345Y86526D01*
X194683Y87188D01*
X193872Y87656D01*
X192968Y87898D01*
X192032D01*
X191128Y87656D01*
X190317Y87188D01*
X189655Y86526D01*
X189186Y85715D01*
X188944Y84811D01*
Y83874D01*
X189186Y82970D01*
X189655Y82159D01*
X190317Y81497D01*
X190743Y81251D01*
Y80636D01*
X183307Y73200D01*
X183019Y72770D01*
X182919Y72263D01*
Y29850D01*
X183019Y29343D01*
X183307Y28913D01*
X184550Y27670D01*
X184550Y27670D01*
X184593Y27457D01*
X184557Y27361D01*
X184309Y27000D01*
X170184D01*
X170184Y27000D01*
X170184Y27000D01*
X165169D01*
X165166Y27002D01*
X165153Y27011D01*
X165147Y27018D01*
X165147Y27019D01*
X165147Y27019D01*
X165136Y27030D01*
X165129Y27037D01*
X165087Y27121D01*
X165047Y27354D01*
X165042Y27474D01*
X165045Y27497D01*
X165074Y27615D01*
X165104Y27670D01*
X165345Y27911D01*
X165814Y28722D01*
X166056Y29626D01*
Y30562D01*
X165814Y31467D01*
X165345Y32278D01*
X164683Y32940D01*
X163873Y33408D01*
X162968Y33650D01*
X162032D01*
X161127Y33408D01*
X160317Y32940D01*
X159655Y32278D01*
X159186Y31467D01*
X158944Y30562D01*
Y29626D01*
X159186Y28722D01*
X159655Y27911D01*
X159890Y27676D01*
X159927Y27544D01*
X159926Y27506D01*
X159834Y27049D01*
X159813Y27024D01*
X159778Y27000D01*
X159778Y27000D01*
X2336D01*
X1982Y27354D01*
X2021Y375500D01*
X174412Y375500D01*
X174587Y375389D01*
D02*
G37*
%LPC*%
G36*
X237000Y371335D02*
X214500D01*
X213798Y371196D01*
X213202Y370798D01*
X210356Y367952D01*
X209968Y368056D01*
X209032D01*
X208127Y367814D01*
X207317Y367345D01*
X206655Y366683D01*
X206186Y365873D01*
X205944Y364968D01*
Y364032D01*
X206156Y363241D01*
X196188Y353273D01*
X196183Y353276D01*
X195403Y353485D01*
X194597D01*
X193817Y353276D01*
X193119Y352873D01*
X192548Y352303D01*
X192145Y351604D01*
X191936Y350825D01*
Y350018D01*
X192145Y349239D01*
X192548Y348540D01*
X193119Y347970D01*
X193817Y347566D01*
X194597Y347358D01*
X195403D01*
X196183Y347566D01*
X196881Y347970D01*
X197452Y348540D01*
X197855Y349239D01*
X198064Y350018D01*
Y350825D01*
X197942Y351278D01*
X207952Y361288D01*
X208127Y361186D01*
X209032Y360944D01*
X209968D01*
X210873Y361186D01*
X211683Y361655D01*
X212345Y362317D01*
X212814Y363127D01*
X213056Y364032D01*
Y364968D01*
X212952Y365356D01*
X215260Y367665D01*
X236240D01*
X242665Y361240D01*
Y336297D01*
X241652Y335712D01*
X240788Y334848D01*
X240177Y333790D01*
X239861Y332611D01*
Y331389D01*
X240177Y330210D01*
X240788Y329152D01*
X241652Y328288D01*
X242710Y327677D01*
X243889Y327361D01*
X245111D01*
X246290Y327677D01*
X247348Y328288D01*
X248212Y329152D01*
X248822Y330210D01*
X249139Y331389D01*
Y332611D01*
X248822Y333790D01*
X248212Y334848D01*
X247348Y335712D01*
X246335Y336297D01*
Y362000D01*
X246196Y362702D01*
X245798Y363298D01*
X238298Y370798D01*
X237702Y371196D01*
X237586Y371219D01*
X237000Y371335D01*
D02*
G37*
G36*
X226406Y359775D02*
Y352094D01*
X234086D01*
X233780Y353635D01*
X233123Y355220D01*
X232170Y356646D01*
X230957Y357859D01*
X229531Y358812D01*
X227946Y359468D01*
X226406Y359775D01*
D02*
G37*
G36*
X262594D02*
X261054Y359468D01*
X259469Y358812D01*
X258043Y357859D01*
X256830Y356646D01*
X255877Y355220D01*
X255220Y353635D01*
X254914Y352094D01*
X262594D01*
Y359775D01*
D02*
G37*
G36*
X224406D02*
X222865Y359468D01*
X221281Y358812D01*
X219854Y357859D01*
X218641Y356646D01*
X217688Y355220D01*
X217032Y353635D01*
X216725Y352094D01*
X224406D01*
Y359775D01*
D02*
G37*
G36*
X234086Y350094D02*
X226406D01*
Y342414D01*
X227946Y342720D01*
X229531Y343377D01*
X230957Y344330D01*
X232170Y345543D01*
X233123Y346969D01*
X233780Y348554D01*
X234086Y350094D01*
D02*
G37*
G36*
X262594D02*
X254914D01*
X255220Y348554D01*
X255877Y346969D01*
X256830Y345543D01*
X258043Y344330D01*
X259469Y343377D01*
X261054Y342720D01*
X262594Y342414D01*
Y350094D01*
D02*
G37*
G36*
X224406D02*
X216725D01*
X217032Y348554D01*
X217688Y346969D01*
X218641Y345543D01*
X219854Y344330D01*
X221281Y343377D01*
X222865Y342720D01*
X224406Y342414D01*
Y350094D01*
D02*
G37*
G36*
X196000Y343690D02*
Y341579D01*
X198111D01*
X198041Y341839D01*
X197612Y342583D01*
X197004Y343190D01*
X196260Y343620D01*
X196000Y343690D01*
D02*
G37*
G36*
X194000Y343690D02*
X193740Y343620D01*
X192996Y343190D01*
X192388Y342583D01*
X191959Y341839D01*
X191889Y341579D01*
X194000D01*
Y343690D01*
D02*
G37*
G36*
X198111Y339579D02*
X196000D01*
Y337468D01*
X196260Y337537D01*
X197004Y337967D01*
X197612Y338575D01*
X198041Y339319D01*
X198111Y339579D01*
D02*
G37*
G36*
X194000D02*
X191889D01*
X191959Y339319D01*
X192388Y338575D01*
X192996Y337967D01*
X193740Y337537D01*
X194000Y337468D01*
Y339579D01*
D02*
G37*
G36*
X226406Y321586D02*
Y313906D01*
X234086D01*
X233780Y315446D01*
X233123Y317031D01*
X232170Y318457D01*
X230957Y319670D01*
X229531Y320623D01*
X227946Y321280D01*
X226406Y321586D01*
D02*
G37*
G36*
X262594D02*
X261054Y321280D01*
X259469Y320623D01*
X258043Y319670D01*
X256830Y318457D01*
X255877Y317031D01*
X255220Y315446D01*
X254914Y313906D01*
X262594D01*
Y321586D01*
D02*
G37*
G36*
X224406D02*
X222865Y321280D01*
X221281Y320623D01*
X219854Y319670D01*
X218641Y318457D01*
X217688Y317031D01*
X217032Y315446D01*
X216725Y313906D01*
X224406D01*
Y321586D01*
D02*
G37*
G36*
X161500Y314184D02*
Y311000D01*
X164684D01*
X164507Y311660D01*
X163941Y312640D01*
X163140Y313441D01*
X162160Y314007D01*
X161500Y314184D01*
D02*
G37*
G36*
X159500D02*
X158840Y314007D01*
X157860Y313441D01*
X157059Y312640D01*
X156493Y311660D01*
X156316Y311000D01*
X159500D01*
Y314184D01*
D02*
G37*
G36*
X161040Y324100D02*
X159960D01*
X158917Y323821D01*
X157983Y323281D01*
X157219Y322517D01*
X156679Y321583D01*
X156400Y320540D01*
Y319460D01*
X156679Y318418D01*
X157219Y317482D01*
X157983Y316719D01*
X158917Y316179D01*
X159960Y315900D01*
X161040D01*
X162083Y316179D01*
X163017Y316719D01*
X163781Y317482D01*
X164175Y318165D01*
X203240D01*
X206048Y315356D01*
X205944Y314968D01*
Y314032D01*
X206186Y313127D01*
X206655Y312317D01*
X207317Y311655D01*
X208127Y311186D01*
X209032Y310944D01*
X209968D01*
X210873Y311186D01*
X211683Y311655D01*
X212345Y312317D01*
X212814Y313127D01*
X213056Y314032D01*
Y314968D01*
X212814Y315873D01*
X212345Y316683D01*
X211683Y317345D01*
X210873Y317814D01*
X209968Y318056D01*
X209032D01*
X208644Y317952D01*
X205298Y321298D01*
X204702Y321696D01*
X204000Y321835D01*
X164175D01*
X163781Y322517D01*
X163017Y323281D01*
X162083Y323821D01*
X161040Y324100D01*
D02*
G37*
G36*
X164684Y309000D02*
X161500D01*
Y305816D01*
X162160Y305993D01*
X163140Y306559D01*
X163941Y307360D01*
X164507Y308340D01*
X164684Y309000D01*
D02*
G37*
G36*
X159500D02*
X156316D01*
X156493Y308340D01*
X157059Y307360D01*
X157860Y306559D01*
X158840Y305993D01*
X159500Y305816D01*
Y309000D01*
D02*
G37*
G36*
X234086Y311906D02*
X226406D01*
Y304225D01*
X227946Y304532D01*
X229531Y305188D01*
X230957Y306141D01*
X232170Y307354D01*
X233123Y308781D01*
X233780Y310365D01*
X234086Y311906D01*
D02*
G37*
G36*
X262594D02*
X254914D01*
X255220Y310365D01*
X255877Y308781D01*
X256830Y307354D01*
X258043Y306141D01*
X259469Y305188D01*
X261054Y304532D01*
X262594Y304225D01*
Y311906D01*
D02*
G37*
G36*
X224406D02*
X216725D01*
X217032Y310365D01*
X217688Y308781D01*
X218641Y307354D01*
X219854Y306141D01*
X221281Y305188D01*
X222865Y304532D01*
X224406Y304225D01*
Y311906D01*
D02*
G37*
G36*
X196000Y302954D02*
Y300843D01*
X198111D01*
X198041Y301102D01*
X197612Y301847D01*
X197004Y302454D01*
X196260Y302884D01*
X196000Y302954D01*
D02*
G37*
G36*
X194000Y302954D02*
X193740Y302884D01*
X192996Y302454D01*
X192388Y301847D01*
X191959Y301102D01*
X191889Y300843D01*
X194000D01*
Y302954D01*
D02*
G37*
G36*
X198111Y298843D02*
X196000D01*
Y296732D01*
X196260Y296801D01*
X197004Y297231D01*
X197612Y297838D01*
X198041Y298583D01*
X198111Y298843D01*
D02*
G37*
G36*
X194000D02*
X191889D01*
X191959Y298583D01*
X192388Y297838D01*
X192996Y297231D01*
X193740Y296801D01*
X194000Y296732D01*
Y298843D01*
D02*
G37*
G36*
X226406Y301275D02*
Y293594D01*
X234086D01*
X233780Y295135D01*
X233123Y296720D01*
X232170Y298146D01*
X230957Y299359D01*
X229531Y300312D01*
X227946Y300968D01*
X226406Y301275D01*
D02*
G37*
G36*
X224406D02*
X222865Y300968D01*
X221281Y300312D01*
X219854Y299359D01*
X218641Y298146D01*
X217688Y296720D01*
X217032Y295135D01*
X216725Y293594D01*
X224406D01*
Y301275D01*
D02*
G37*
G36*
X262594D02*
X261054Y300968D01*
X259469Y300312D01*
X258043Y299359D01*
X256830Y298146D01*
X255877Y296720D01*
X255220Y295135D01*
X254914Y293594D01*
X262594D01*
Y301275D01*
D02*
G37*
G36*
X234086Y291594D02*
X226406D01*
Y283914D01*
X227946Y284220D01*
X229531Y284877D01*
X230957Y285830D01*
X232170Y287043D01*
X233123Y288469D01*
X233780Y290054D01*
X234086Y291594D01*
D02*
G37*
G36*
X262594D02*
X254914D01*
X255220Y290054D01*
X255877Y288469D01*
X256830Y287043D01*
X258043Y285830D01*
X259469Y284877D01*
X261054Y284220D01*
X262594Y283914D01*
Y291594D01*
D02*
G37*
G36*
X224406D02*
X216725D01*
X217032Y290054D01*
X217688Y288469D01*
X218641Y287043D01*
X219854Y285830D01*
X221281Y284877D01*
X222865Y284220D01*
X224406Y283914D01*
Y291594D01*
D02*
G37*
G36*
X195403Y293064D02*
X194597D01*
X193817Y292855D01*
X193119Y292452D01*
X192548Y291881D01*
X192145Y291183D01*
X191936Y290403D01*
Y289597D01*
X192145Y288817D01*
X192548Y288119D01*
X193119Y287548D01*
X193817Y287145D01*
X194597Y286936D01*
X195403D01*
X196183Y287145D01*
X196881Y287548D01*
X197452Y288119D01*
X197773Y288674D01*
X203451D01*
X206211Y285915D01*
X206186Y285873D01*
X205944Y284968D01*
Y284032D01*
X206186Y283127D01*
X206655Y282317D01*
X207317Y281655D01*
X208127Y281186D01*
X209032Y280944D01*
X209968D01*
X210356Y281048D01*
X219202Y272202D01*
X219798Y271804D01*
X220500Y271665D01*
X240203D01*
X240788Y270652D01*
X241652Y269788D01*
X242710Y269178D01*
X243889Y268861D01*
X245111D01*
X246290Y269178D01*
X247348Y269788D01*
X248212Y270652D01*
X248822Y271710D01*
X249139Y272889D01*
Y274111D01*
X248822Y275290D01*
X248212Y276348D01*
X247348Y277212D01*
X246290Y277822D01*
X245111Y278139D01*
X243889D01*
X242710Y277822D01*
X241652Y277212D01*
X240788Y276348D01*
X240203Y275335D01*
X221260D01*
X212952Y283644D01*
X213056Y284032D01*
Y284968D01*
X212814Y285873D01*
X212345Y286683D01*
X211683Y287345D01*
X210873Y287814D01*
X209968Y288056D01*
X209032D01*
X208127Y287814D01*
X208085Y287789D01*
X204937Y290937D01*
X204507Y291225D01*
X204000Y291325D01*
X197773D01*
X197452Y291881D01*
X196881Y292452D01*
X196183Y292855D01*
X195403Y293064D01*
D02*
G37*
G36*
X226406Y263086D02*
Y255406D01*
X234086D01*
X233780Y256946D01*
X233123Y258531D01*
X232170Y259957D01*
X230957Y261170D01*
X229531Y262123D01*
X227946Y262780D01*
X226406Y263086D01*
D02*
G37*
G36*
X262594D02*
X261054Y262780D01*
X259469Y262123D01*
X258043Y261170D01*
X256830Y259957D01*
X255877Y258531D01*
X255220Y256946D01*
X254914Y255406D01*
X262594D01*
Y263086D01*
D02*
G37*
G36*
X224406D02*
X222865Y262780D01*
X221281Y262123D01*
X219854Y261170D01*
X218641Y259957D01*
X217688Y258531D01*
X217032Y256946D01*
X216725Y255406D01*
X224406D01*
Y263086D01*
D02*
G37*
G36*
X234086Y253406D02*
X226406D01*
Y245725D01*
X227946Y246032D01*
X229531Y246688D01*
X230957Y247641D01*
X232170Y248854D01*
X233123Y250280D01*
X233780Y251865D01*
X234086Y253406D01*
D02*
G37*
G36*
X262594D02*
X254914D01*
X255220Y251865D01*
X255877Y250280D01*
X256830Y248854D01*
X258043Y247641D01*
X259469Y246688D01*
X261054Y246032D01*
X262594Y245725D01*
Y253406D01*
D02*
G37*
G36*
X224406D02*
X216725D01*
X217032Y251865D01*
X217688Y250280D01*
X218641Y248854D01*
X219854Y247641D01*
X221281Y246688D01*
X222865Y246032D01*
X224406Y245725D01*
Y253406D01*
D02*
G37*
G36*
X258354Y197424D02*
X256646D01*
X254970Y197091D01*
X253391Y196437D01*
X251971Y195487D01*
X250763Y194279D01*
X249813Y192859D01*
X249159Y191280D01*
X248826Y189604D01*
Y187896D01*
X249159Y186220D01*
X249813Y184641D01*
X250763Y183221D01*
X251971Y182012D01*
X253391Y181063D01*
X254970Y180409D01*
X256646Y180076D01*
X258354D01*
X260030Y180409D01*
X261609Y181063D01*
X263029Y182012D01*
X264237Y183221D01*
X265187Y184641D01*
X265841Y186220D01*
X266174Y187896D01*
Y189604D01*
X265841Y191280D01*
X265187Y192859D01*
X264237Y194279D01*
X263029Y195487D01*
X261609Y196437D01*
X260030Y197091D01*
X258354Y197424D01*
D02*
G37*
G36*
X88961Y14276D02*
X86500D01*
Y11815D01*
X88961D01*
Y14276D01*
D02*
G37*
G36*
X84500D02*
X82039D01*
Y11815D01*
X84500D01*
Y14276D01*
D02*
G37*
G36*
X88961Y9815D02*
X86500D01*
Y7354D01*
X88961D01*
Y9815D01*
D02*
G37*
G36*
X84500D02*
X82039D01*
Y7354D01*
X84500D01*
Y9815D01*
D02*
G37*
G36*
X26354Y23174D02*
X24646D01*
X22970Y22841D01*
X21391Y22187D01*
X19971Y21238D01*
X18763Y20029D01*
X17813Y18609D01*
X17159Y17030D01*
X16826Y15354D01*
Y13646D01*
X17159Y11970D01*
X17813Y10391D01*
X18763Y8971D01*
X19971Y7762D01*
X21391Y6813D01*
X22970Y6159D01*
X24646Y5826D01*
X26354D01*
X28030Y6159D01*
X29609Y6813D01*
X31029Y7762D01*
X32237Y8971D01*
X33187Y10391D01*
X33841Y11970D01*
X34174Y13646D01*
Y15354D01*
X33841Y17030D01*
X33187Y18609D01*
X32237Y20029D01*
X31029Y21238D01*
X29609Y22187D01*
X28030Y22841D01*
X26354Y23174D01*
D02*
G37*
G36*
Y369674D02*
X24646D01*
X22970Y369341D01*
X21391Y368687D01*
X19971Y367738D01*
X18763Y366529D01*
X17813Y365109D01*
X17159Y363530D01*
X16826Y361854D01*
Y360146D01*
X17159Y358470D01*
X17813Y356891D01*
X18763Y355471D01*
X19971Y354262D01*
X21391Y353313D01*
X22970Y352659D01*
X24646Y352326D01*
X26354D01*
X28030Y352659D01*
X29609Y353313D01*
X31029Y354262D01*
X32237Y355471D01*
X33187Y356891D01*
X33841Y358470D01*
X34174Y360146D01*
Y361854D01*
X33841Y363530D01*
X33187Y365109D01*
X32237Y366529D01*
X31029Y367738D01*
X29609Y368687D01*
X28030Y369341D01*
X26354Y369674D01*
D02*
G37*
G36*
X86500Y346454D02*
Y344343D01*
X88611D01*
X88541Y344602D01*
X88112Y345347D01*
X87504Y345954D01*
X86760Y346384D01*
X86500Y346454D01*
D02*
G37*
G36*
X84500D02*
X84240Y346384D01*
X83496Y345954D01*
X82888Y345347D01*
X82459Y344602D01*
X82389Y344343D01*
X84500D01*
Y346454D01*
D02*
G37*
G36*
X161500Y344184D02*
Y341000D01*
X164684D01*
X164507Y341660D01*
X163941Y342640D01*
X163140Y343441D01*
X162160Y344007D01*
X161500Y344184D01*
D02*
G37*
G36*
X159500D02*
X158840Y344007D01*
X157860Y343441D01*
X157059Y342640D01*
X156493Y341660D01*
X156316Y341000D01*
X159500D01*
Y344184D01*
D02*
G37*
G36*
X88611Y342343D02*
X86500D01*
Y340232D01*
X86760Y340301D01*
X87504Y340731D01*
X88112Y341339D01*
X88541Y342083D01*
X88611Y342343D01*
D02*
G37*
G36*
X84500D02*
X82389D01*
X82459Y342083D01*
X82888Y341339D01*
X83496Y340731D01*
X84240Y340301D01*
X84500Y340232D01*
Y342343D01*
D02*
G37*
G36*
X164684Y339000D02*
X161500D01*
Y335816D01*
X162160Y335993D01*
X163140Y336559D01*
X163941Y337360D01*
X164507Y338340D01*
X164684Y339000D01*
D02*
G37*
G36*
X159500D02*
X156316D01*
X156493Y338340D01*
X157059Y337360D01*
X157860Y336559D01*
X158840Y335993D01*
X159500Y335816D01*
Y339000D01*
D02*
G37*
G36*
X59579Y349826D02*
X40500D01*
X39993Y349725D01*
X39563Y349437D01*
X36563Y346437D01*
X36275Y346007D01*
X36174Y345500D01*
Y341500D01*
X36275Y340993D01*
X36563Y340563D01*
X40063Y337063D01*
X40332Y336883D01*
X40368Y336376D01*
X40349Y336316D01*
X39996Y336112D01*
X39388Y335504D01*
X38959Y334760D01*
X38889Y334500D01*
X42000D01*
X45111D01*
X45041Y334760D01*
X44612Y335504D01*
X44004Y336112D01*
X43895Y336175D01*
X44029Y336674D01*
X48951D01*
X65675Y319951D01*
Y284000D01*
X65775Y283493D01*
X66063Y283063D01*
X75567Y273559D01*
X75503Y273448D01*
X75247Y272494D01*
Y272037D01*
X74747Y271830D01*
X64873Y281705D01*
Y293750D01*
X64772Y294257D01*
X64485Y294687D01*
X51076Y308096D01*
Y308865D01*
X51304Y308997D01*
X52003Y309696D01*
X52497Y310552D01*
X52753Y311506D01*
Y312494D01*
X52497Y313449D01*
X52003Y314304D01*
X51304Y315003D01*
X50449Y315497D01*
X49494Y315753D01*
X48506D01*
X47552Y315497D01*
X46696Y315003D01*
X45997Y314304D01*
X45503Y313449D01*
X45247Y312494D01*
Y311506D01*
X45503Y310552D01*
X45567Y310441D01*
X44018Y308892D01*
X31912D01*
X31704Y309392D01*
X32050Y309738D01*
X32552Y310608D01*
X32812Y311577D01*
Y312581D01*
X32552Y313550D01*
X32050Y314419D01*
X31704Y314765D01*
X31912Y315265D01*
X43591D01*
X44098Y315366D01*
X44528Y315653D01*
X47441Y318567D01*
X47552Y318503D01*
X48506Y318247D01*
X49494D01*
X50449Y318503D01*
X51304Y318997D01*
X52003Y319696D01*
X52497Y320551D01*
X52753Y321506D01*
Y322494D01*
X52497Y323448D01*
X52003Y324304D01*
X51304Y325003D01*
X50449Y325497D01*
X49494Y325753D01*
X48506D01*
X47552Y325497D01*
X46696Y325003D01*
X45997Y324304D01*
X45503Y323448D01*
X45247Y322494D01*
Y321506D01*
X45503Y320551D01*
X45567Y320441D01*
X43042Y317916D01*
X30124D01*
X30058Y318416D01*
X30471Y318527D01*
X31341Y319029D01*
X32050Y319738D01*
X32552Y320607D01*
X32812Y321577D01*
Y322581D01*
X32552Y323550D01*
X32050Y324419D01*
X31341Y325129D01*
X30471Y325631D01*
X29502Y325891D01*
X28498D01*
X27529Y325631D01*
X26660Y325129D01*
X25950Y324419D01*
X25448Y323550D01*
X25188Y322581D01*
Y321577D01*
X25448Y320607D01*
X25950Y319738D01*
X26660Y319029D01*
X27529Y318527D01*
X27942Y318416D01*
X27876Y317916D01*
X20124D01*
X20058Y318416D01*
X20471Y318527D01*
X21340Y319029D01*
X22050Y319738D01*
X22552Y320607D01*
X22812Y321577D01*
Y322581D01*
X22552Y323550D01*
X22050Y324419D01*
X21340Y325129D01*
X20471Y325631D01*
X19502Y325891D01*
X18498D01*
X17529Y325631D01*
X16659Y325129D01*
X15950Y324419D01*
X15448Y323550D01*
X15188Y322581D01*
Y321577D01*
X15448Y320607D01*
X15950Y319738D01*
X16659Y319029D01*
X17529Y318527D01*
X17942Y318416D01*
X17876Y317916D01*
X17131D01*
X16624Y317815D01*
X16194Y317528D01*
X11551Y312885D01*
X11264Y312455D01*
X11163Y311948D01*
Y282210D01*
X11264Y281703D01*
X11551Y281273D01*
X16782Y276042D01*
Y275200D01*
X16659Y275129D01*
X15950Y274419D01*
X15448Y273550D01*
X15188Y272581D01*
Y271577D01*
X15448Y270607D01*
X15950Y269738D01*
X16659Y269029D01*
X17529Y268527D01*
X18498Y268267D01*
X19502D01*
X20471Y268527D01*
X21340Y269029D01*
X22050Y269738D01*
X22552Y270607D01*
X22812Y271577D01*
Y272581D01*
X22552Y273550D01*
X22050Y274419D01*
X21340Y275129D01*
X20471Y275631D01*
X19502Y275891D01*
X19433D01*
Y276591D01*
X19332Y277098D01*
X19045Y277528D01*
X18806Y277767D01*
X19013Y278267D01*
X19502D01*
X20471Y278527D01*
X21340Y279029D01*
X22050Y279738D01*
X22552Y280608D01*
X22812Y281577D01*
Y282581D01*
X22552Y283550D01*
X22050Y284419D01*
X21704Y284765D01*
X21912Y285265D01*
X26089D01*
X26296Y284765D01*
X25950Y284419D01*
X25448Y283550D01*
X25188Y282581D01*
Y281577D01*
X25448Y280608D01*
X25950Y279738D01*
X26660Y279029D01*
X27529Y278527D01*
X28498Y278267D01*
X29502D01*
X30471Y278527D01*
X31341Y279029D01*
X32050Y279738D01*
X32552Y280608D01*
X32812Y281577D01*
Y282581D01*
X32552Y283550D01*
X32050Y284419D01*
X31704Y284765D01*
X31912Y285265D01*
X43860D01*
X45567Y283559D01*
X45503Y283449D01*
X45247Y282494D01*
Y281506D01*
X45503Y280552D01*
X45997Y279696D01*
X46696Y278997D01*
X47552Y278503D01*
X48506Y278247D01*
X49494D01*
X50449Y278503D01*
X51304Y278997D01*
X52003Y279696D01*
X52497Y280552D01*
X52753Y281506D01*
Y282494D01*
X52497Y283449D01*
X52003Y284304D01*
X51304Y285003D01*
X50449Y285497D01*
X49494Y285753D01*
X48506D01*
X47552Y285497D01*
X47441Y285433D01*
X45347Y287528D01*
X44917Y287815D01*
X44409Y287916D01*
X30124D01*
X30058Y288416D01*
X30471Y288527D01*
X31341Y289029D01*
X32050Y289738D01*
X32552Y290608D01*
X32812Y291577D01*
Y292581D01*
X32552Y293550D01*
X32050Y294419D01*
X31704Y294765D01*
X31912Y295265D01*
X43860D01*
X45567Y293559D01*
X45503Y293448D01*
X45247Y292494D01*
Y291506D01*
X45503Y290551D01*
X45997Y289696D01*
X46696Y288997D01*
X47552Y288503D01*
X48506Y288247D01*
X49494D01*
X50449Y288503D01*
X51304Y288997D01*
X52003Y289696D01*
X52497Y290551D01*
X52753Y291506D01*
Y292494D01*
X52497Y293448D01*
X52003Y294304D01*
X51304Y295003D01*
X50449Y295497D01*
X49494Y295753D01*
X48506D01*
X47552Y295497D01*
X47441Y295433D01*
X45347Y297528D01*
X44917Y297815D01*
X44409Y297916D01*
X30124D01*
X30058Y298416D01*
X30471Y298527D01*
X31341Y299029D01*
X32050Y299738D01*
X32552Y300607D01*
X32812Y301577D01*
Y302581D01*
X32552Y303550D01*
X32050Y304419D01*
X31341Y305129D01*
X30471Y305631D01*
X30058Y305742D01*
X30124Y306241D01*
X44567D01*
X45074Y306342D01*
X45504Y306630D01*
X47441Y308567D01*
X47552Y308503D01*
X48425Y308269D01*
Y307547D01*
X48525Y307040D01*
X48813Y306610D01*
X49170Y306253D01*
X48963Y305753D01*
X48506D01*
X47552Y305497D01*
X46696Y305003D01*
X45997Y304304D01*
X45503Y303449D01*
X45247Y302494D01*
Y301506D01*
X45503Y300552D01*
X45997Y299696D01*
X46696Y298997D01*
X47552Y298503D01*
X48506Y298247D01*
X49494D01*
X50449Y298503D01*
X51304Y298997D01*
X52003Y299696D01*
X52497Y300552D01*
X52753Y301506D01*
Y301963D01*
X53253Y302170D01*
X62222Y293201D01*
Y281156D01*
X62323Y280649D01*
X62610Y280219D01*
X76975Y265853D01*
X76910Y265357D01*
X76573Y265163D01*
X75837Y264427D01*
X75317Y263526D01*
X75176Y263000D01*
X79000D01*
X82824D01*
X82683Y263526D01*
X82163Y264427D01*
X81925Y264665D01*
X82116Y265127D01*
X113498D01*
X126813Y251813D01*
X126679Y251583D01*
X126400Y250540D01*
Y249460D01*
X126679Y248417D01*
X127219Y247482D01*
X127982Y246719D01*
X128918Y246179D01*
X129960Y245900D01*
X131040D01*
X132082Y246179D01*
X133018Y246719D01*
X133781Y247482D01*
X134321Y248417D01*
X134600Y249460D01*
Y250540D01*
X134321Y251583D01*
X133781Y252518D01*
X133018Y253281D01*
X132082Y253821D01*
X131040Y254100D01*
X129960D01*
X128918Y253821D01*
X128687Y253688D01*
X114984Y267390D01*
X114554Y267677D01*
X114047Y267778D01*
X79676D01*
X79610Y268278D01*
X80449Y268503D01*
X81304Y268997D01*
X82003Y269696D01*
X82497Y270551D01*
X82753Y271506D01*
Y272494D01*
X82497Y273448D01*
X82003Y274304D01*
X81304Y275003D01*
X80449Y275497D01*
X79494Y275753D01*
X78506D01*
X77552Y275497D01*
X77441Y275433D01*
X68326Y284549D01*
Y290147D01*
X68787Y290338D01*
X75567Y283559D01*
X75503Y283449D01*
X75247Y282494D01*
Y281506D01*
X75503Y280552D01*
X75997Y279696D01*
X76696Y278997D01*
X77552Y278503D01*
X78506Y278247D01*
X79494D01*
X80449Y278503D01*
X81304Y278997D01*
X82003Y279696D01*
X82497Y280552D01*
X82753Y281506D01*
Y282494D01*
X82497Y283449D01*
X82003Y284304D01*
X81304Y285003D01*
X80449Y285497D01*
X79494Y285753D01*
X78506D01*
X77552Y285497D01*
X77441Y285433D01*
X70325Y292549D01*
Y321328D01*
X70225Y321836D01*
X69937Y322266D01*
X60562Y331641D01*
Y336500D01*
X60972Y336737D01*
X61499Y337264D01*
X61871Y337909D01*
X62064Y338628D01*
Y339372D01*
X61871Y340091D01*
X61499Y340736D01*
X60972Y341263D01*
X60328Y341635D01*
X59609Y341828D01*
X58864D01*
X58406Y341705D01*
X55831Y344280D01*
X55401Y344567D01*
X54894Y344668D01*
X44772D01*
X44452Y345224D01*
X43881Y345794D01*
X43183Y346198D01*
X42403Y346406D01*
X41597D01*
X40817Y346198D01*
X40727Y346145D01*
X40420Y346546D01*
X41049Y347175D01*
X59030D01*
X66374Y339830D01*
X66251Y339372D01*
Y338628D01*
X66444Y337909D01*
X66816Y337264D01*
X67343Y336737D01*
X67987Y336365D01*
X68707Y336172D01*
X69451D01*
X70170Y336365D01*
X70815Y336737D01*
X71341Y337264D01*
X71579Y337674D01*
X79451D01*
X82602Y334523D01*
X82436Y333903D01*
Y333097D01*
X82645Y332317D01*
X83048Y331619D01*
X83619Y331048D01*
X84317Y330645D01*
X85097Y330436D01*
X85903D01*
X86683Y330645D01*
X87381Y331048D01*
X87952Y331619D01*
X88355Y332317D01*
X88564Y333097D01*
Y333903D01*
X88355Y334683D01*
X87952Y335381D01*
X87381Y335952D01*
X86683Y336355D01*
X85903Y336564D01*
X85097D01*
X84477Y336398D01*
X80937Y339937D01*
X80507Y340225D01*
X80000Y340325D01*
X71579D01*
X71341Y340736D01*
X70815Y341263D01*
X70170Y341635D01*
X69451Y341828D01*
X68707D01*
X68248Y341705D01*
X60516Y349437D01*
X60086Y349725D01*
X59579Y349826D01*
D02*
G37*
G36*
X45111Y332500D02*
X43000D01*
Y330389D01*
X43260Y330459D01*
X44004Y330888D01*
X44612Y331496D01*
X45041Y332240D01*
X45111Y332500D01*
D02*
G37*
G36*
X41000D02*
X38889D01*
X38959Y332240D01*
X39388Y331496D01*
X39996Y330888D01*
X40740Y330459D01*
X41000Y330389D01*
Y332500D01*
D02*
G37*
G36*
X131040Y334100D02*
X129960D01*
X128918Y333821D01*
X127982Y333281D01*
X127219Y332518D01*
X126679Y331582D01*
X126400Y330540D01*
Y329460D01*
X126679Y328417D01*
X126813Y328187D01*
X101951Y303326D01*
X82530D01*
X82497Y303449D01*
X82003Y304304D01*
X81304Y305003D01*
X80449Y305497D01*
X79494Y305753D01*
X78506D01*
X77552Y305497D01*
X76696Y305003D01*
X75997Y304304D01*
X75503Y303449D01*
X75247Y302494D01*
Y301506D01*
X75503Y300552D01*
X75997Y299696D01*
X76696Y298997D01*
X77552Y298503D01*
X78506Y298247D01*
X79494D01*
X80449Y298503D01*
X81304Y298997D01*
X82003Y299696D01*
X82497Y300552D01*
X82530Y300675D01*
X102500D01*
X103007Y300775D01*
X103437Y301063D01*
X128687Y326312D01*
X128918Y326179D01*
X129960Y325900D01*
X131040D01*
X132082Y326179D01*
X133018Y326719D01*
X133781Y327483D01*
X134321Y328417D01*
X134600Y329460D01*
Y330540D01*
X134321Y331582D01*
X133781Y332518D01*
X133018Y333281D01*
X132082Y333821D01*
X131040Y334100D01*
D02*
G37*
G36*
X79494Y325753D02*
X78506D01*
X77552Y325497D01*
X76696Y325003D01*
X75997Y324304D01*
X75503Y323448D01*
X75247Y322494D01*
Y321506D01*
X75503Y320551D01*
X75997Y319696D01*
X76696Y318997D01*
X77552Y318503D01*
X78506Y318247D01*
X79494D01*
X80449Y318503D01*
X81304Y318997D01*
X82003Y319696D01*
X82497Y320551D01*
X82753Y321506D01*
Y322494D01*
X82497Y323448D01*
X82003Y324304D01*
X81304Y325003D01*
X80449Y325497D01*
X79494Y325753D01*
D02*
G37*
G36*
X131040Y324100D02*
X129960D01*
X128918Y323821D01*
X127982Y323281D01*
X127219Y322517D01*
X126679Y321583D01*
X126400Y320540D01*
Y319460D01*
X126679Y318418D01*
X126813Y318187D01*
X101951Y293325D01*
X82530D01*
X82497Y293448D01*
X82003Y294304D01*
X81304Y295003D01*
X80449Y295497D01*
X79494Y295753D01*
X78506D01*
X77552Y295497D01*
X76696Y295003D01*
X75997Y294304D01*
X75503Y293448D01*
X75247Y292494D01*
Y291506D01*
X75503Y290551D01*
X75997Y289696D01*
X76696Y288997D01*
X77552Y288503D01*
X78506Y288247D01*
X79494D01*
X80449Y288503D01*
X81304Y288997D01*
X82003Y289696D01*
X82497Y290551D01*
X82530Y290674D01*
X102500D01*
X103007Y290775D01*
X103437Y291063D01*
X128687Y316313D01*
X128918Y316179D01*
X129960Y315900D01*
X131040D01*
X132082Y316179D01*
X133018Y316719D01*
X133781Y317482D01*
X134321Y318418D01*
X134600Y319460D01*
Y320540D01*
X134321Y321583D01*
X133781Y322517D01*
X133018Y323281D01*
X132082Y323821D01*
X131040Y324100D01*
D02*
G37*
G36*
X134600Y344100D02*
X126400D01*
Y337774D01*
X101951Y313326D01*
X82530D01*
X82497Y313449D01*
X82003Y314304D01*
X81304Y315003D01*
X80449Y315497D01*
X79494Y315753D01*
X78506D01*
X77552Y315497D01*
X76696Y315003D01*
X75997Y314304D01*
X75503Y313449D01*
X75247Y312494D01*
Y311506D01*
X75503Y310552D01*
X75997Y309696D01*
X76696Y308997D01*
X77552Y308503D01*
X78506Y308247D01*
X79494D01*
X80449Y308503D01*
X81304Y308997D01*
X82003Y309696D01*
X82497Y310552D01*
X82530Y310675D01*
X102500D01*
X103007Y310775D01*
X103437Y311063D01*
X128275Y335900D01*
X134600D01*
Y344100D01*
D02*
G37*
G36*
X131040Y314100D02*
X129960D01*
X128918Y313821D01*
X127982Y313281D01*
X127219Y312517D01*
X126679Y311582D01*
X126400Y310540D01*
Y309460D01*
X126679Y308418D01*
X127219Y307483D01*
X127982Y306719D01*
X128918Y306179D01*
X129960Y305900D01*
X131040D01*
X132082Y306179D01*
X133018Y306719D01*
X133781Y307483D01*
X134321Y308418D01*
X134600Y309460D01*
Y310540D01*
X134321Y311582D01*
X133781Y312517D01*
X133018Y313281D01*
X132082Y313821D01*
X131040Y314100D01*
D02*
G37*
G36*
Y304100D02*
X129960D01*
X128918Y303821D01*
X127982Y303281D01*
X127219Y302518D01*
X126679Y301583D01*
X126400Y300540D01*
Y299460D01*
X126679Y298417D01*
X127219Y297482D01*
X127982Y296719D01*
X128918Y296179D01*
X129960Y295900D01*
X131040D01*
X132082Y296179D01*
X133018Y296719D01*
X133781Y297482D01*
X134321Y298417D01*
X134600Y299460D01*
Y300540D01*
X134321Y301583D01*
X133781Y302518D01*
X133018Y303281D01*
X132082Y303821D01*
X131040Y304100D01*
D02*
G37*
G36*
Y294100D02*
X129960D01*
X128918Y293821D01*
X127982Y293281D01*
X127219Y292517D01*
X126679Y291582D01*
X126400Y290540D01*
Y289460D01*
X126679Y288418D01*
X127219Y287483D01*
X127982Y286719D01*
X128918Y286179D01*
X129960Y285900D01*
X131040D01*
X132082Y286179D01*
X133018Y286719D01*
X133781Y287483D01*
X134321Y288418D01*
X134600Y289460D01*
Y290540D01*
X134321Y291582D01*
X133781Y292517D01*
X133018Y293281D01*
X132082Y293821D01*
X131040Y294100D01*
D02*
G37*
G36*
Y284100D02*
X129960D01*
X128918Y283821D01*
X127982Y283281D01*
X127219Y282518D01*
X126679Y281582D01*
X126400Y280540D01*
Y279460D01*
X126679Y278417D01*
X127219Y277483D01*
X127982Y276719D01*
X128918Y276179D01*
X129960Y275900D01*
X131040D01*
X132082Y276179D01*
X133018Y276719D01*
X133781Y277483D01*
X134321Y278417D01*
X134600Y279460D01*
Y280540D01*
X134321Y281582D01*
X133781Y282518D01*
X133018Y283281D01*
X132082Y283821D01*
X131040Y284100D01*
D02*
G37*
G36*
Y274100D02*
X129960D01*
X128918Y273821D01*
X127982Y273281D01*
X127219Y272517D01*
X126679Y271583D01*
X126400Y270540D01*
Y269460D01*
X126679Y268418D01*
X127219Y267482D01*
X127982Y266719D01*
X128918Y266179D01*
X129960Y265900D01*
X131040D01*
X132082Y266179D01*
X133018Y266719D01*
X133781Y267482D01*
X134321Y268418D01*
X134600Y269460D01*
Y270540D01*
X134321Y271583D01*
X133781Y272517D01*
X133018Y273281D01*
X132082Y273821D01*
X131040Y274100D01*
D02*
G37*
G36*
X131500Y264184D02*
Y261000D01*
X134684D01*
X134507Y261660D01*
X133941Y262640D01*
X133140Y263441D01*
X132160Y264007D01*
X131500Y264184D01*
D02*
G37*
G36*
X129500D02*
X128840Y264007D01*
X127860Y263441D01*
X127059Y262640D01*
X126493Y261660D01*
X126316Y261000D01*
X129500D01*
Y264184D01*
D02*
G37*
G36*
X19502Y265891D02*
X18498D01*
X17529Y265631D01*
X16659Y265129D01*
X15950Y264419D01*
X15448Y263550D01*
X15188Y262581D01*
Y261577D01*
X15448Y260608D01*
X15523Y260477D01*
X12815Y257768D01*
X12527Y257338D01*
X12427Y256831D01*
Y190033D01*
X12527Y189526D01*
X12527Y189526D01*
X12815Y189096D01*
X12815Y189096D01*
X16174Y185736D01*
Y178312D01*
X13688D01*
Y170688D01*
X21312D01*
Y178312D01*
X18825D01*
Y186285D01*
X18725Y186792D01*
X18725Y186792D01*
X18437Y187222D01*
X18208Y187452D01*
X18415Y187952D01*
X19033D01*
X20063Y188228D01*
X20986Y188761D01*
X21739Y189515D01*
X22272Y190437D01*
X22548Y191467D01*
Y192533D01*
X22272Y193562D01*
X21739Y194485D01*
X20986Y195239D01*
X20063Y195772D01*
X19033Y196048D01*
X17967D01*
X16938Y195772D01*
X16014Y195239D01*
X15577Y194802D01*
X15078Y195009D01*
Y198991D01*
X15577Y199198D01*
X16014Y198761D01*
X16938Y198228D01*
X17967Y197952D01*
X19033D01*
X20063Y198228D01*
X20986Y198761D01*
X21739Y199514D01*
X22272Y200437D01*
X22548Y201467D01*
Y202533D01*
X22272Y203562D01*
X21739Y204486D01*
X20986Y205239D01*
X20063Y205772D01*
X19033Y206048D01*
X17967D01*
X16938Y205772D01*
X16014Y205239D01*
X15577Y204802D01*
X15078Y205009D01*
Y207952D01*
X22548D01*
Y216048D01*
X15078D01*
Y240249D01*
X15577Y240383D01*
X15950Y239738D01*
X16659Y239029D01*
X17529Y238527D01*
X17674Y238488D01*
Y232000D01*
X17775Y231493D01*
X18063Y231063D01*
X45567Y203559D01*
X45503Y203449D01*
X45247Y202494D01*
Y201506D01*
X45503Y200552D01*
X45997Y199696D01*
X46696Y198997D01*
X47552Y198503D01*
X48506Y198247D01*
X49494D01*
X50449Y198503D01*
X51304Y198997D01*
X52003Y199696D01*
X52497Y200552D01*
X52753Y201506D01*
Y202494D01*
X52497Y203449D01*
X52003Y204304D01*
X51304Y205003D01*
X50449Y205497D01*
X49494Y205753D01*
X48506D01*
X47552Y205497D01*
X47441Y205433D01*
X20325Y232549D01*
Y238488D01*
X20471Y238527D01*
X21340Y239029D01*
X22050Y239738D01*
X22552Y240608D01*
X22812Y241577D01*
Y242581D01*
X22552Y243550D01*
X22050Y244419D01*
X21340Y245129D01*
X20471Y245631D01*
X19502Y245891D01*
X18498D01*
X17529Y245631D01*
X16659Y245129D01*
X15950Y244419D01*
X15577Y243774D01*
X15078Y243908D01*
Y250249D01*
X15577Y250383D01*
X15950Y249738D01*
X16659Y249029D01*
X17529Y248527D01*
X18498Y248267D01*
X19502D01*
X20471Y248527D01*
X21340Y249029D01*
X22050Y249738D01*
X22552Y250607D01*
X22812Y251577D01*
Y252581D01*
X22552Y253550D01*
X22050Y254419D01*
X21340Y255129D01*
X20471Y255631D01*
X19502Y255891D01*
X18498D01*
X17529Y255631D01*
X16659Y255129D01*
X15950Y254419D01*
X15577Y253774D01*
X15078Y253908D01*
Y256282D01*
X17398Y258602D01*
X17529Y258527D01*
X18498Y258267D01*
X19502D01*
X20471Y258527D01*
X21340Y259029D01*
X22050Y259738D01*
X22552Y260608D01*
X22812Y261577D01*
Y262581D01*
X22552Y263550D01*
X22050Y264419D01*
X21340Y265129D01*
X20471Y265631D01*
X19502Y265891D01*
D02*
G37*
G36*
X82824Y261000D02*
X80000D01*
Y258176D01*
X80526Y258317D01*
X81427Y258837D01*
X82163Y259573D01*
X82683Y260474D01*
X82824Y261000D01*
D02*
G37*
G36*
X78000D02*
X75176D01*
X75317Y260474D01*
X75837Y259573D01*
X76573Y258837D01*
X77474Y258317D01*
X78000Y258176D01*
Y261000D01*
D02*
G37*
G36*
X134684Y259000D02*
X131500D01*
Y255816D01*
X132160Y255993D01*
X133140Y256559D01*
X133941Y257360D01*
X134507Y258340D01*
X134684Y259000D01*
D02*
G37*
G36*
X129500D02*
X126316D01*
X126493Y258340D01*
X127059Y257360D01*
X127860Y256559D01*
X128840Y255993D01*
X129500Y255816D01*
Y259000D01*
D02*
G37*
G36*
X101016Y255111D02*
Y253000D01*
X103127D01*
X103057Y253260D01*
X102627Y254004D01*
X102020Y254612D01*
X101275Y255041D01*
X101016Y255111D01*
D02*
G37*
G36*
X99016D02*
X98756Y255041D01*
X98012Y254612D01*
X97404Y254004D01*
X96974Y253260D01*
X96905Y253000D01*
X99016D01*
Y255111D01*
D02*
G37*
G36*
X103127Y251000D02*
X101016D01*
Y248889D01*
X101275Y248959D01*
X102020Y249388D01*
X102627Y249996D01*
X103057Y250740D01*
X103127Y251000D01*
D02*
G37*
G36*
X99016D02*
X96905D01*
X96974Y250740D01*
X97404Y249996D01*
X98012Y249388D01*
X98756Y248959D01*
X99016Y248889D01*
Y251000D01*
D02*
G37*
G36*
X79494Y245753D02*
X78506D01*
X77552Y245497D01*
X76696Y245003D01*
X75997Y244304D01*
X75503Y243448D01*
X75247Y242494D01*
Y241506D01*
X75503Y240551D01*
X75997Y239696D01*
X76696Y238997D01*
X77552Y238503D01*
X78506Y238247D01*
X79494D01*
X80449Y238503D01*
X81304Y238997D01*
X82003Y239696D01*
X82497Y240551D01*
X82753Y241506D01*
Y242494D01*
X82497Y243448D01*
X82003Y244304D01*
X81304Y245003D01*
X80449Y245497D01*
X79494Y245753D01*
D02*
G37*
G36*
X131579Y235611D02*
Y233500D01*
X133690D01*
X133620Y233760D01*
X133191Y234504D01*
X132583Y235112D01*
X131839Y235541D01*
X131579Y235611D01*
D02*
G37*
G36*
X129579D02*
X129319Y235541D01*
X128575Y235112D01*
X127967Y234504D01*
X127537Y233760D01*
X127468Y233500D01*
X129579D01*
Y235611D01*
D02*
G37*
G36*
X133690Y231500D02*
X131579D01*
Y229389D01*
X131839Y229459D01*
X132583Y229888D01*
X133191Y230496D01*
X133620Y231240D01*
X133690Y231500D01*
D02*
G37*
G36*
X129579D02*
X127468D01*
X127537Y231240D01*
X127967Y230496D01*
X128575Y229888D01*
X129319Y229459D01*
X129579Y229389D01*
Y231500D01*
D02*
G37*
G36*
X79494Y235753D02*
X78506D01*
X77552Y235497D01*
X76696Y235003D01*
X75997Y234304D01*
X75503Y233449D01*
X75247Y232494D01*
Y231506D01*
X75503Y230552D01*
X75997Y229696D01*
X76696Y228997D01*
X77552Y228503D01*
X78506Y228247D01*
X79494D01*
X80449Y228503D01*
X81304Y228997D01*
X82003Y229696D01*
X82497Y230552D01*
X82753Y231506D01*
Y232494D01*
X82497Y233449D01*
X82003Y234304D01*
X81304Y235003D01*
X80449Y235497D01*
X79494Y235753D01*
D02*
G37*
G36*
X131579Y224111D02*
Y222000D01*
X133690D01*
X133620Y222260D01*
X133191Y223004D01*
X132583Y223612D01*
X131839Y224041D01*
X131579Y224111D01*
D02*
G37*
G36*
X129579D02*
X129319Y224041D01*
X128575Y223612D01*
X127967Y223004D01*
X127537Y222260D01*
X127468Y222000D01*
X129579D01*
Y224111D01*
D02*
G37*
G36*
X120641Y225556D02*
X119705D01*
X118801Y225314D01*
X117990Y224845D01*
X117328Y224183D01*
X116860Y223373D01*
X116617Y222468D01*
Y221532D01*
X116860Y220627D01*
X117328Y219817D01*
X117990Y219155D01*
X118801Y218686D01*
X119705Y218444D01*
X120641D01*
X121546Y218686D01*
X122357Y219155D01*
X123019Y219817D01*
X123487Y220627D01*
X123729Y221532D01*
Y222468D01*
X123487Y223373D01*
X123019Y224183D01*
X122357Y224845D01*
X121546Y225314D01*
X120641Y225556D01*
D02*
G37*
G36*
X79494Y225753D02*
X78506D01*
X77552Y225497D01*
X76696Y225003D01*
X75997Y224304D01*
X75503Y223448D01*
X75247Y222494D01*
Y221506D01*
X75503Y220551D01*
X75997Y219696D01*
X76696Y218997D01*
X77552Y218503D01*
X78506Y218247D01*
X79494D01*
X80449Y218503D01*
X81304Y218997D01*
X82003Y219696D01*
X82497Y220551D01*
X82753Y221506D01*
Y222494D01*
X82497Y223448D01*
X82003Y224304D01*
X81304Y225003D01*
X80449Y225497D01*
X79494Y225753D01*
D02*
G37*
G36*
X133690Y220000D02*
X131579D01*
Y217889D01*
X131839Y217959D01*
X132583Y218388D01*
X133191Y218996D01*
X133620Y219740D01*
X133690Y220000D01*
D02*
G37*
G36*
X129579D02*
X127468D01*
X127537Y219740D01*
X127967Y218996D01*
X128575Y218388D01*
X129319Y217959D01*
X129579Y217889D01*
Y220000D01*
D02*
G37*
G36*
X29033Y216048D02*
X27967D01*
X26937Y215772D01*
X26014Y215239D01*
X25261Y214486D01*
X24728Y213562D01*
X24452Y212533D01*
Y211467D01*
X24728Y210437D01*
X25261Y209514D01*
X26014Y208761D01*
X26937Y208228D01*
X27967Y207952D01*
X29033D01*
X30062Y208228D01*
X30986Y208761D01*
X31739Y209514D01*
X32272Y210437D01*
X32548Y211467D01*
Y212533D01*
X32272Y213562D01*
X31739Y214486D01*
X30986Y215239D01*
X30062Y215772D01*
X29033Y216048D01*
D02*
G37*
G36*
Y206048D02*
X27967D01*
X26937Y205772D01*
X26014Y205239D01*
X25261Y204486D01*
X24728Y203562D01*
X24452Y202533D01*
Y201467D01*
X24728Y200437D01*
X25261Y199514D01*
X26014Y198761D01*
X26937Y198228D01*
X27967Y197952D01*
X29033D01*
X30062Y198228D01*
X30986Y198761D01*
X31739Y199514D01*
X32272Y200437D01*
X32548Y201467D01*
Y202533D01*
X32272Y203562D01*
X31739Y204486D01*
X30986Y205239D01*
X30062Y205772D01*
X29033Y206048D01*
D02*
G37*
G36*
X29500Y196130D02*
Y193000D01*
X32630D01*
X32458Y193640D01*
X31899Y194608D01*
X31108Y195399D01*
X30140Y195958D01*
X29500Y196130D01*
D02*
G37*
G36*
X27500D02*
X26860Y195958D01*
X25892Y195399D01*
X25101Y194608D01*
X24542Y193640D01*
X24370Y193000D01*
X27500D01*
Y196130D01*
D02*
G37*
G36*
X49494Y195753D02*
X48506D01*
X47552Y195497D01*
X46696Y195003D01*
X45997Y194304D01*
X45503Y193448D01*
X45247Y192494D01*
Y191506D01*
X45503Y190551D01*
X45997Y189696D01*
X46696Y188997D01*
X47552Y188503D01*
X48506Y188247D01*
X49494D01*
X50449Y188503D01*
X51304Y188997D01*
X52003Y189696D01*
X52497Y190551D01*
X52753Y191506D01*
Y192494D01*
X52497Y193448D01*
X52003Y194304D01*
X51304Y195003D01*
X50449Y195497D01*
X49494Y195753D01*
D02*
G37*
G36*
X32630Y191000D02*
X29500D01*
Y187870D01*
X30140Y188041D01*
X31108Y188601D01*
X31899Y189392D01*
X32458Y190360D01*
X32630Y191000D01*
D02*
G37*
G36*
X27500D02*
X24370D01*
X24542Y190360D01*
X25101Y189392D01*
X25892Y188601D01*
X26860Y188041D01*
X27500Y187870D01*
Y191000D01*
D02*
G37*
G36*
X127500Y188356D02*
Y186000D01*
X129856D01*
X129762Y186351D01*
X129301Y187149D01*
X128649Y187801D01*
X127851Y188261D01*
X127500Y188356D01*
D02*
G37*
G36*
X125500D02*
X125149Y188261D01*
X124351Y187801D01*
X123699Y187149D01*
X123239Y186351D01*
X123144Y186000D01*
X125500D01*
Y188356D01*
D02*
G37*
G36*
X129856Y184000D02*
X127500D01*
Y181644D01*
X127851Y181738D01*
X128649Y182199D01*
X129301Y182851D01*
X129762Y183649D01*
X129856Y184000D01*
D02*
G37*
G36*
X125500D02*
X123144D01*
X123239Y183649D01*
X123699Y182851D01*
X124351Y182199D01*
X125149Y181738D01*
X125500Y181644D01*
Y184000D01*
D02*
G37*
G36*
X49468Y178056D02*
X48532D01*
X47627Y177814D01*
X46817Y177345D01*
X46155Y176683D01*
X45686Y175873D01*
X45444Y174968D01*
Y174032D01*
X45686Y173127D01*
X45711Y173085D01*
X39775Y167150D01*
X27824D01*
X27317Y167049D01*
X26887Y166761D01*
X19437Y159312D01*
X13688D01*
Y151688D01*
X21312D01*
Y157437D01*
X28373Y164499D01*
X40324D01*
X40831Y164600D01*
X41262Y164887D01*
X47585Y171211D01*
X47627Y171186D01*
X48532Y170944D01*
X49468D01*
X50372Y171186D01*
X51183Y171655D01*
X51845Y172317D01*
X52314Y173127D01*
X52556Y174032D01*
Y174968D01*
X52314Y175873D01*
X51845Y176683D01*
X51183Y177345D01*
X50372Y177814D01*
X49468Y178056D01*
D02*
G37*
G36*
X28002Y178312D02*
X26998D01*
X26029Y178052D01*
X25159Y177550D01*
X24450Y176840D01*
X23948Y175971D01*
X23688Y175002D01*
Y173998D01*
X23948Y173029D01*
X24450Y172160D01*
X25159Y171450D01*
X26029Y170948D01*
X26998Y170688D01*
X28002D01*
X28971Y170948D01*
X29840Y171450D01*
X30550Y172160D01*
X31052Y173029D01*
X31312Y173998D01*
Y175002D01*
X31052Y175971D01*
X30550Y176840D01*
X29840Y177550D01*
X28971Y178052D01*
X28002Y178312D01*
D02*
G37*
G36*
X49468Y167056D02*
X48532D01*
X47627Y166814D01*
X46817Y166345D01*
X46155Y165683D01*
X45686Y164873D01*
X45444Y163968D01*
Y163032D01*
X45686Y162127D01*
X45711Y162085D01*
X40451Y156825D01*
X31091D01*
X31052Y156971D01*
X30550Y157841D01*
X29840Y158550D01*
X28971Y159052D01*
X28002Y159312D01*
X26998D01*
X26029Y159052D01*
X25159Y158550D01*
X24450Y157841D01*
X23948Y156971D01*
X23688Y156002D01*
Y154998D01*
X23948Y154029D01*
X24450Y153159D01*
X25159Y152450D01*
X26029Y151948D01*
X26998Y151688D01*
X28002D01*
X28971Y151948D01*
X29840Y152450D01*
X30550Y153159D01*
X31052Y154029D01*
X31091Y154174D01*
X41000D01*
X41507Y154275D01*
X41937Y154563D01*
X47585Y160211D01*
X47627Y160186D01*
X48532Y159944D01*
X49468D01*
X50372Y160186D01*
X51183Y160655D01*
X51845Y161317D01*
X52314Y162127D01*
X52556Y163032D01*
Y163968D01*
X52314Y164873D01*
X51845Y165683D01*
X51183Y166345D01*
X50372Y166814D01*
X49468Y167056D01*
D02*
G37*
G36*
X102579Y159385D02*
Y156500D01*
X105464D01*
X105317Y157048D01*
X104789Y157963D01*
X104042Y158710D01*
X103127Y159238D01*
X102579Y159385D01*
D02*
G37*
G36*
X100579D02*
X100030Y159238D01*
X99116Y158710D01*
X98369Y157963D01*
X97840Y157048D01*
X97693Y156500D01*
X100579D01*
Y159385D01*
D02*
G37*
G36*
X95591Y159512D02*
X92579D01*
Y156500D01*
X95591D01*
Y159512D01*
D02*
G37*
G36*
X90579D02*
X87567D01*
Y156500D01*
X90579D01*
Y159512D01*
D02*
G37*
G36*
X105464Y154500D02*
X102579D01*
Y151615D01*
X103127Y151762D01*
X104042Y152290D01*
X104789Y153037D01*
X105317Y153952D01*
X105464Y154500D01*
D02*
G37*
G36*
X100579D02*
X97693D01*
X97840Y153952D01*
X98369Y153037D01*
X99116Y152290D01*
X100030Y151762D01*
X100579Y151615D01*
Y154500D01*
D02*
G37*
G36*
X95591D02*
X92579D01*
Y151488D01*
X95591D01*
Y154500D01*
D02*
G37*
G36*
X90579D02*
X87567D01*
Y151488D01*
X90579D01*
Y154500D01*
D02*
G37*
G36*
X232000Y155869D02*
Y149232D01*
X238637D01*
X238390Y150474D01*
X237810Y151872D01*
X236969Y153131D01*
X235899Y154202D01*
X234640Y155043D01*
X233242Y155622D01*
X232000Y155869D01*
D02*
G37*
G36*
X230000Y155869D02*
X228758Y155622D01*
X227360Y155043D01*
X226101Y154202D01*
X225031Y153131D01*
X224190Y151872D01*
X223610Y150474D01*
X223363Y149232D01*
X230000D01*
Y155869D01*
D02*
G37*
G36*
X79468Y155556D02*
X78532D01*
X77627Y155314D01*
X76817Y154845D01*
X76155Y154183D01*
X75686Y153373D01*
X75444Y152468D01*
Y151532D01*
X75686Y150628D01*
X76155Y149817D01*
X76817Y149155D01*
X77627Y148686D01*
X78532Y148444D01*
X79468D01*
X80373Y148686D01*
X81183Y149155D01*
X81845Y149817D01*
X82314Y150628D01*
X82556Y151532D01*
Y152468D01*
X82314Y153373D01*
X81845Y154183D01*
X81183Y154845D01*
X80373Y155314D01*
X79468Y155556D01*
D02*
G37*
G36*
X49468D02*
X48532D01*
X47627Y155314D01*
X46817Y154845D01*
X46155Y154183D01*
X45686Y153373D01*
X45444Y152468D01*
Y151532D01*
X45686Y150628D01*
X46155Y149817D01*
X46817Y149155D01*
X47627Y148686D01*
X48532Y148444D01*
X49468D01*
X50372Y148686D01*
X51183Y149155D01*
X51845Y149817D01*
X52314Y150628D01*
X52556Y151532D01*
Y152468D01*
X52314Y153373D01*
X51845Y154183D01*
X51183Y154845D01*
X50372Y155314D01*
X49468Y155556D01*
D02*
G37*
G36*
X238637Y147232D02*
X232000D01*
Y140595D01*
X233242Y140842D01*
X234640Y141422D01*
X235899Y142263D01*
X236969Y143333D01*
X237810Y144592D01*
X238390Y145991D01*
X238637Y147232D01*
D02*
G37*
G36*
X230000D02*
X223363D01*
X223610Y145991D01*
X224190Y144592D01*
X225031Y143333D01*
X226101Y142263D01*
X227360Y141422D01*
X228758Y140842D01*
X230000Y140595D01*
Y147232D01*
D02*
G37*
G36*
X221331Y139986D02*
Y137146D01*
X224171D01*
X224029Y137677D01*
X223506Y138582D01*
X222767Y139321D01*
X221863Y139844D01*
X221331Y139986D01*
D02*
G37*
G36*
X219331D02*
X218799Y139844D01*
X217894Y139321D01*
X217155Y138582D01*
X216633Y137677D01*
X216490Y137146D01*
X219331D01*
Y139986D01*
D02*
G37*
G36*
X74500Y139268D02*
Y136260D01*
X77508D01*
X77349Y136854D01*
X76805Y137796D01*
X76036Y138565D01*
X75094Y139108D01*
X74500Y139268D01*
D02*
G37*
G36*
X72500D02*
X71906Y139108D01*
X70964Y138565D01*
X70195Y137796D01*
X69652Y136854D01*
X69492Y136260D01*
X72500D01*
Y139268D01*
D02*
G37*
G36*
X224171Y135146D02*
X221331D01*
Y132305D01*
X221863Y132448D01*
X222767Y132970D01*
X223506Y133709D01*
X224029Y134614D01*
X224171Y135146D01*
D02*
G37*
G36*
X219331D02*
X216490D01*
X216633Y134614D01*
X217155Y133709D01*
X217894Y132970D01*
X218799Y132448D01*
X219331Y132305D01*
Y135146D01*
D02*
G37*
G36*
X77508Y134260D02*
X74500D01*
Y131252D01*
X75094Y131411D01*
X76036Y131955D01*
X76805Y132724D01*
X77349Y133666D01*
X77508Y134260D01*
D02*
G37*
G36*
X72500D02*
X69492D01*
X69652Y133666D01*
X70195Y132724D01*
X70964Y131955D01*
X71906Y131411D01*
X72500Y131252D01*
Y134260D01*
D02*
G37*
G36*
X177753Y141182D02*
X176247D01*
X174792Y140792D01*
X173487Y140039D01*
X172422Y138973D01*
X171669Y137669D01*
X171279Y136214D01*
Y134707D01*
X171669Y133252D01*
X172422Y131948D01*
X173487Y130882D01*
X174792Y130129D01*
X176247Y129739D01*
X177753D01*
X179208Y130129D01*
X180513Y130882D01*
X181578Y131948D01*
X182331Y133252D01*
X182721Y134707D01*
Y136214D01*
X182331Y137669D01*
X181578Y138973D01*
X180513Y140039D01*
X179208Y140792D01*
X177753Y141182D01*
D02*
G37*
G36*
X121173Y130127D02*
Y128016D01*
X123284D01*
X123215Y128276D01*
X122785Y129020D01*
X122177Y129628D01*
X121433Y130057D01*
X121173Y130127D01*
D02*
G37*
G36*
X119173D02*
X118913Y130057D01*
X118169Y129628D01*
X117561Y129020D01*
X117132Y128276D01*
X117062Y128016D01*
X119173D01*
Y130127D01*
D02*
G37*
G36*
X123284Y126016D02*
X121173D01*
Y123905D01*
X121433Y123974D01*
X122177Y124404D01*
X122785Y125012D01*
X123215Y125756D01*
X123284Y126016D01*
D02*
G37*
G36*
X119173D02*
X117062D01*
X117132Y125756D01*
X117561Y125012D01*
X118169Y124404D01*
X118913Y123974D01*
X119173Y123905D01*
Y126016D01*
D02*
G37*
G36*
X220827Y130072D02*
X219835D01*
X218876Y129815D01*
X218017Y129319D01*
X217315Y128617D01*
X216819Y127758D01*
X216562Y126799D01*
Y125807D01*
X216819Y124849D01*
X217315Y123989D01*
X218017Y123288D01*
X218876Y122792D01*
X219498Y122625D01*
Y122107D01*
X218876Y121941D01*
X218017Y121445D01*
X217315Y120743D01*
X216819Y119884D01*
X216562Y118925D01*
Y117933D01*
X216819Y116974D01*
X217315Y116115D01*
X218017Y115413D01*
X218876Y114917D01*
X219835Y114661D01*
X220827D01*
X221785Y114917D01*
X222645Y115413D01*
X223346Y116115D01*
X223843Y116974D01*
X224099Y117933D01*
Y118925D01*
X223843Y119884D01*
X223346Y120743D01*
X222645Y121445D01*
X221785Y121941D01*
X221164Y122107D01*
Y122625D01*
X221785Y122792D01*
X222645Y123288D01*
X223346Y123989D01*
X223843Y124849D01*
X224099Y125807D01*
Y126799D01*
X223843Y127758D01*
X223346Y128617D01*
X222645Y129319D01*
X221785Y129815D01*
X220827Y130072D01*
D02*
G37*
G36*
X121173Y115127D02*
Y113016D01*
X123284D01*
X123215Y113276D01*
X122785Y114020D01*
X122177Y114628D01*
X121433Y115057D01*
X121173Y115127D01*
D02*
G37*
G36*
X119173D02*
X118913Y115057D01*
X118169Y114628D01*
X117561Y114020D01*
X117132Y113276D01*
X117062Y113016D01*
X119173D01*
Y115127D01*
D02*
G37*
G36*
X123284Y111016D02*
X121173D01*
Y108905D01*
X121433Y108974D01*
X122177Y109404D01*
X122785Y110012D01*
X123215Y110756D01*
X123284Y111016D01*
D02*
G37*
G36*
X119173D02*
X117062D01*
X117132Y110756D01*
X117561Y110012D01*
X118169Y109404D01*
X118913Y108974D01*
X119173Y108905D01*
Y111016D01*
D02*
G37*
G36*
X178000Y111378D02*
Y106539D01*
X182838D01*
X182694Y107267D01*
X182247Y108344D01*
X181599Y109314D01*
X180775Y110139D01*
X179805Y110787D01*
X178727Y111233D01*
X178000Y111378D01*
D02*
G37*
G36*
X176000D02*
X175273Y111233D01*
X174195Y110787D01*
X173225Y110139D01*
X172401Y109314D01*
X171753Y108344D01*
X171306Y107267D01*
X171162Y106539D01*
X176000D01*
Y111378D01*
D02*
G37*
G36*
X224099Y112355D02*
X216562D01*
Y104818D01*
X224099D01*
Y112355D01*
D02*
G37*
G36*
X182838Y104539D02*
X178000D01*
Y99701D01*
X178727Y99846D01*
X179805Y100292D01*
X180775Y100940D01*
X181599Y101765D01*
X182247Y102735D01*
X182694Y103812D01*
X182838Y104539D01*
D02*
G37*
G36*
X176000D02*
X171162D01*
X171306Y103812D01*
X171753Y102735D01*
X172401Y101765D01*
X173225Y100940D01*
X174195Y100292D01*
X175273Y99846D01*
X176000Y99701D01*
Y104539D01*
D02*
G37*
G36*
X121173Y99627D02*
Y97516D01*
X123284D01*
X123215Y97776D01*
X122785Y98520D01*
X122177Y99128D01*
X121433Y99557D01*
X121173Y99627D01*
D02*
G37*
G36*
X119173D02*
X118913Y99557D01*
X118169Y99128D01*
X117561Y98520D01*
X117132Y97776D01*
X117062Y97516D01*
X119173D01*
Y99627D01*
D02*
G37*
G36*
X232000Y104137D02*
Y97500D01*
X238637D01*
X238390Y98742D01*
X237810Y100140D01*
X236969Y101399D01*
X235899Y102469D01*
X234640Y103310D01*
X233242Y103890D01*
X232000Y104137D01*
D02*
G37*
G36*
X230000Y104137D02*
X228758Y103890D01*
X227360Y103310D01*
X226101Y102469D01*
X225031Y101399D01*
X224190Y100140D01*
X223610Y98742D01*
X223363Y97500D01*
X230000D01*
Y104137D01*
D02*
G37*
G36*
X57122Y126192D02*
X55628Y125995D01*
X54237Y125419D01*
X53041Y124502D01*
X52125Y123307D01*
X51548Y121915D01*
X51351Y120421D01*
Y110579D01*
X51548Y109085D01*
X52125Y107693D01*
X53041Y106498D01*
X54237Y105581D01*
X55628Y105005D01*
X57122Y104808D01*
X58615Y105005D01*
X59948Y105557D01*
X64920Y100585D01*
Y59176D01*
X65040Y58571D01*
X65382Y58058D01*
X65609Y57832D01*
X65436Y57187D01*
Y56380D01*
X65526Y56045D01*
X53562Y44080D01*
X48184D01*
X48098Y44404D01*
X47448Y45529D01*
X46529Y46448D01*
X45404Y47098D01*
X44150Y47434D01*
X42851D01*
X41596Y47098D01*
X40470Y46448D01*
X39552Y45529D01*
X38902Y44404D01*
X38816Y44080D01*
X28434D01*
Y47434D01*
X18566D01*
Y37566D01*
X28434D01*
Y40920D01*
X38816D01*
X38902Y40596D01*
X39552Y39470D01*
X40470Y38552D01*
X41596Y37902D01*
X42851Y37566D01*
X44150D01*
X45404Y37902D01*
X46529Y38552D01*
X47448Y39470D01*
X48098Y40596D01*
X48184Y40920D01*
X54217D01*
X54821Y41040D01*
X55334Y41383D01*
X67761Y53809D01*
X68097Y53720D01*
X68903D01*
X69683Y53928D01*
X70381Y54332D01*
X70952Y54902D01*
X71355Y55601D01*
X71564Y56380D01*
Y57187D01*
X71474Y57522D01*
X83960Y70008D01*
X88089D01*
X88241Y70039D01*
X95461D01*
Y78961D01*
X86539D01*
Y73169D01*
X83305D01*
X82700Y73049D01*
X82188Y72706D01*
X69637Y60156D01*
X69500Y60183D01*
X68895Y60063D01*
X68573Y59847D01*
X68097D01*
X68080Y59860D01*
Y98540D01*
X69570D01*
Y93810D01*
X77430D01*
Y101670D01*
X71273D01*
X71120Y101700D01*
X68275D01*
X67617Y102358D01*
X62167Y107808D01*
X62696Y109085D01*
X62893Y110579D01*
Y120421D01*
X62696Y121915D01*
X62120Y123307D01*
X61202Y124502D01*
X60007Y125419D01*
X58615Y125995D01*
X57122Y126192D01*
D02*
G37*
G36*
X123284Y95516D02*
X121173D01*
Y93405D01*
X121433Y93474D01*
X122177Y93904D01*
X122785Y94512D01*
X123215Y95256D01*
X123284Y95516D01*
D02*
G37*
G36*
X119173D02*
X117062D01*
X117132Y95256D01*
X117561Y94512D01*
X118169Y93904D01*
X118913Y93474D01*
X119173Y93405D01*
Y95516D01*
D02*
G37*
G36*
X238637Y95500D02*
X232000D01*
Y88863D01*
X233242Y89110D01*
X234640Y89690D01*
X235899Y90531D01*
X236969Y91601D01*
X237810Y92860D01*
X238390Y94258D01*
X238637Y95500D01*
D02*
G37*
G36*
X230000D02*
X223363D01*
X223610Y94258D01*
X224190Y92860D01*
X225031Y91601D01*
X226101Y90531D01*
X227360Y89690D01*
X228758Y89110D01*
X230000Y88863D01*
Y95500D01*
D02*
G37*
G36*
X92000Y89058D02*
Y85500D01*
X95558D01*
X95344Y86299D01*
X94730Y87362D01*
X93862Y88230D01*
X92799Y88844D01*
X92000Y89058D01*
D02*
G37*
G36*
X90000D02*
X89201Y88844D01*
X88138Y88230D01*
X87270Y87362D01*
X86656Y86299D01*
X86442Y85500D01*
X90000D01*
Y89058D01*
D02*
G37*
G36*
X121173Y85127D02*
Y83016D01*
X123284D01*
X123215Y83276D01*
X122785Y84020D01*
X122177Y84627D01*
X121433Y85057D01*
X121173Y85127D01*
D02*
G37*
G36*
X119173D02*
X118913Y85057D01*
X118169Y84627D01*
X117561Y84020D01*
X117132Y83276D01*
X117062Y83016D01*
X119173D01*
Y85127D01*
D02*
G37*
G36*
X95558Y83500D02*
X92000D01*
Y79942D01*
X92799Y80156D01*
X93862Y80770D01*
X94730Y81638D01*
X95344Y82701D01*
X95558Y83500D01*
D02*
G37*
G36*
X90000D02*
X86442D01*
X86656Y82701D01*
X87270Y81638D01*
X88138Y80770D01*
X89201Y80156D01*
X90000Y79942D01*
Y83500D01*
D02*
G37*
G36*
X232000Y86369D02*
Y79732D01*
X238637D01*
X238390Y80974D01*
X237810Y82372D01*
X236969Y83631D01*
X235899Y84702D01*
X234640Y85543D01*
X233242Y86122D01*
X232000Y86369D01*
D02*
G37*
G36*
X230000Y86369D02*
X228758Y86122D01*
X227360Y85543D01*
X226101Y84702D01*
X225031Y83631D01*
X224190Y82372D01*
X223610Y80974D01*
X223363Y79732D01*
X230000D01*
Y86369D01*
D02*
G37*
G36*
X123284Y81016D02*
X121173D01*
Y78905D01*
X121433Y78974D01*
X122177Y79404D01*
X122785Y80012D01*
X123215Y80756D01*
X123284Y81016D01*
D02*
G37*
G36*
X119173D02*
X117062D01*
X117132Y80756D01*
X117561Y80012D01*
X118169Y79404D01*
X118913Y78974D01*
X119173Y78905D01*
Y81016D01*
D02*
G37*
G36*
X238637Y77732D02*
X232000D01*
Y71096D01*
X233242Y71342D01*
X234640Y71922D01*
X235899Y72763D01*
X236969Y73833D01*
X237810Y75092D01*
X238390Y76491D01*
X238637Y77732D01*
D02*
G37*
G36*
X230000D02*
X223363D01*
X223610Y76491D01*
X224190Y75092D01*
X225031Y73833D01*
X226101Y72763D01*
X227360Y71922D01*
X228758Y71342D01*
X230000Y71096D01*
Y77732D01*
D02*
G37*
G36*
X121173Y71127D02*
Y69016D01*
X123284D01*
X123215Y69276D01*
X122785Y70020D01*
X122177Y70627D01*
X121433Y71057D01*
X121173Y71127D01*
D02*
G37*
G36*
X119173D02*
X118913Y71057D01*
X118169Y70627D01*
X117561Y70020D01*
X117132Y69276D01*
X117062Y69016D01*
X119173D01*
Y71127D01*
D02*
G37*
G36*
X123284Y67016D02*
X121173D01*
Y64905D01*
X121433Y64974D01*
X122177Y65404D01*
X122785Y66012D01*
X123215Y66756D01*
X123284Y67016D01*
D02*
G37*
G36*
X119173D02*
X117062D01*
X117132Y66756D01*
X117561Y66012D01*
X118169Y65404D01*
X118913Y64974D01*
X119173Y64905D01*
Y67016D01*
D02*
G37*
G36*
X121173Y56627D02*
Y54516D01*
X123284D01*
X123215Y54776D01*
X122785Y55520D01*
X122177Y56128D01*
X121433Y56557D01*
X121173Y56627D01*
D02*
G37*
G36*
X119173D02*
X118913Y56557D01*
X118169Y56128D01*
X117561Y55520D01*
X117132Y54776D01*
X117062Y54516D01*
X119173D01*
Y56627D01*
D02*
G37*
G36*
X86500Y53500D02*
Y51185D01*
X88815D01*
X88725Y51521D01*
X88269Y52310D01*
X87625Y52954D01*
X86836Y53410D01*
X86500Y53500D01*
D02*
G37*
G36*
X84500D02*
X84164Y53410D01*
X83375Y52954D01*
X82731Y52310D01*
X82275Y51521D01*
X82185Y51185D01*
X84500D01*
Y53500D01*
D02*
G37*
G36*
X88815Y49185D02*
X86500D01*
Y46870D01*
X86836Y46960D01*
X87625Y47416D01*
X88269Y48060D01*
X88725Y48849D01*
X88815Y49185D01*
D02*
G37*
G36*
X84500D02*
X82185D01*
X82275Y48849D01*
X82731Y48060D01*
X83375Y47416D01*
X84164Y46960D01*
X84500Y46870D01*
Y49185D01*
D02*
G37*
G36*
X162968Y51150D02*
X162032D01*
X161127Y50908D01*
X160317Y50440D01*
X159655Y49778D01*
X159186Y48967D01*
X158944Y48063D01*
Y47126D01*
X159186Y46222D01*
X159655Y45411D01*
X160317Y44749D01*
X161127Y44281D01*
X162032Y44039D01*
X162968D01*
X163873Y44281D01*
X164683Y44749D01*
X165345Y45411D01*
X165814Y46222D01*
X166056Y47126D01*
Y48063D01*
X165814Y48967D01*
X165345Y49778D01*
X164683Y50440D01*
X163873Y50908D01*
X162968Y51150D01*
D02*
G37*
G36*
X69500Y40209D02*
Y38098D01*
X71611D01*
X71541Y38358D01*
X71112Y39102D01*
X70504Y39710D01*
X69760Y40140D01*
X69500Y40209D01*
D02*
G37*
G36*
X67500D02*
X67240Y40140D01*
X66496Y39710D01*
X65888Y39102D01*
X65459Y38358D01*
X65389Y38098D01*
X67500D01*
Y40209D01*
D02*
G37*
G36*
X162968Y42650D02*
X162032D01*
X161127Y42408D01*
X160317Y41940D01*
X159655Y41278D01*
X159186Y40467D01*
X158944Y39562D01*
Y38626D01*
X159186Y37722D01*
X159655Y36911D01*
X160317Y36249D01*
X161127Y35781D01*
X162032Y35539D01*
X162968D01*
X163873Y35781D01*
X164683Y36249D01*
X165345Y36911D01*
X165814Y37722D01*
X166056Y38626D01*
Y39562D01*
X165814Y40467D01*
X165345Y41278D01*
X164683Y41940D01*
X163873Y42408D01*
X162968Y42650D01*
D02*
G37*
G36*
X71611Y36098D02*
X69500D01*
Y33987D01*
X69760Y34057D01*
X70504Y34487D01*
X71112Y35094D01*
X71541Y35839D01*
X71611Y36098D01*
D02*
G37*
G36*
X67500D02*
X65389D01*
X65459Y35839D01*
X65888Y35094D01*
X66496Y34487D01*
X67240Y34057D01*
X67500Y33987D01*
Y36098D01*
D02*
G37*
%LPD*%
D16*
X195211Y350421D02*
X209289Y364500D01*
X209500D01*
X195000Y350421D02*
X195211D01*
X208981Y332500D02*
X210000D01*
X195000Y290000D02*
X204000D01*
X209500Y284500D01*
X217158Y33500D02*
X222520D01*
X220331Y48929D02*
X224599Y44660D01*
Y35580D02*
Y44660D01*
X222520Y33500D02*
X224599Y35580D01*
X69000Y292000D02*
X79000Y282000D01*
X69000Y292000D02*
Y321328D01*
X59236Y331092D02*
X69000Y321328D01*
X59236Y331092D02*
Y339000D01*
X67000Y284000D02*
Y320500D01*
X49500Y338000D02*
X67000Y320500D01*
Y284000D02*
X79000Y272000D01*
X41000Y338000D02*
X49500D01*
X40500Y348500D02*
X59579D01*
X69079Y339000D01*
X37500Y345500D02*
X40500Y348500D01*
X37500Y341500D02*
Y345500D01*
X42000Y343343D02*
X54894D01*
X59236Y339000D01*
X37500Y341500D02*
X41000Y338000D01*
X80000Y339000D02*
X85500Y333500D01*
X69079Y339000D02*
X80000D01*
X13752Y256831D02*
X19000Y262079D01*
X13752Y190033D02*
Y256831D01*
Y190033D02*
X17500Y186285D01*
Y174500D02*
Y186285D01*
X74547Y178953D02*
X79000Y174500D01*
X74547Y178953D02*
Y197547D01*
X79000Y202000D01*
X101500Y163500D02*
X107500Y169500D01*
X79000Y163500D02*
X101500D01*
X107500Y169500D02*
Y183500D01*
X79000Y212000D02*
X107500Y183500D01*
X114047Y266453D02*
X130500Y250000D01*
X78250Y266453D02*
X114047D01*
X63547Y281156D02*
Y293750D01*
X49750Y307547D02*
X63547Y293750D01*
Y281156D02*
X78250Y266453D01*
X49750Y307547D02*
Y311250D01*
X49000Y312000D02*
X49750Y311250D01*
X184244Y29850D02*
X192500Y21594D01*
X184244Y29850D02*
Y72263D01*
X192068Y80087D01*
Y83911D01*
X192500Y84343D01*
X188244Y43350D02*
Y62370D01*
X186244Y68244D02*
X192500Y74500D01*
X186244Y36350D02*
X192500Y30094D01*
X186244Y36350D02*
Y68244D01*
X188244Y43350D02*
X192500Y39094D01*
X188244Y62370D02*
X192500Y66626D01*
Y47594D02*
Y56783D01*
X43591Y316591D02*
X49000Y322000D01*
X17131Y316591D02*
X43591D01*
X12488Y311948D02*
X17131Y316591D01*
X12488Y282210D02*
Y311948D01*
Y282210D02*
X18108Y276591D01*
Y272971D02*
Y276591D01*
Y272971D02*
X19000Y272079D01*
Y232000D02*
X49000Y202000D01*
X19000Y232000D02*
Y242079D01*
X50816Y256481D02*
X55453Y251844D01*
X29000Y272079D02*
X34626Y266453D01*
X49000Y212000D02*
X57453Y220453D01*
X49750Y226453D02*
X55453Y232156D01*
X34626Y266453D02*
X50844D01*
X57453Y220453D02*
Y259844D01*
X55453Y232156D02*
Y251844D01*
X50844Y266453D02*
X57453Y259844D01*
X49750Y222750D02*
Y226453D01*
X49000Y222000D02*
X49750Y222750D01*
X34598Y256481D02*
X50816D01*
X49750Y236453D02*
X53453Y240156D01*
X33598Y247481D02*
X49816D01*
X53453Y243844D01*
Y240156D02*
Y243844D01*
X49750Y232750D02*
Y236453D01*
X49000Y232000D02*
X49750Y232750D01*
X29000Y262079D02*
X34598Y256481D01*
X29000Y252079D02*
X33598Y247481D01*
X29000Y242079D02*
X29079Y242000D01*
X49000D01*
X44409Y286591D02*
X49000Y282000D01*
X14488Y290210D02*
X18108Y286591D01*
X14488Y290210D02*
Y293948D01*
X18108Y286591D02*
X44409D01*
X14488Y293948D02*
X18108Y297567D01*
Y301186D01*
X19000Y302079D01*
Y292079D02*
X23512Y296591D01*
X44409D01*
X49000Y292000D01*
X19892Y311186D02*
X23512D01*
X27131Y307567D01*
X44567D01*
X49000Y312000D01*
X19000Y312079D02*
X19892Y311186D01*
X79000Y292000D02*
X102500D01*
X130500Y320000D01*
X102500Y302000D02*
X130500Y330000D01*
X79000Y302000D02*
X102500D01*
X79000Y312000D02*
X102500D01*
X130500Y340000D01*
X211563Y39094D02*
X217158Y33500D01*
X192500Y39094D02*
X211563D01*
X27824Y165824D02*
X40324D01*
X49000Y174500D01*
X17500Y155500D02*
X27824Y165824D01*
X27500Y155500D02*
X41000D01*
X49000Y163500D01*
X87488Y171988D02*
X89488D01*
X92000Y174500D01*
X79000Y163500D02*
X87488Y171988D01*
X83855Y174500D02*
X88367Y179012D01*
X97488D02*
X102000Y174500D01*
X79000D02*
X83855D01*
X88367Y179012D02*
X97488D01*
D24*
X85500Y50185D02*
D03*
D25*
Y10815D02*
D03*
D50*
X160500Y290000D02*
X161500D01*
X165500Y286000D01*
Y275000D02*
Y286000D01*
X160500Y260000D02*
X165500Y265000D01*
X160500Y280000D02*
X165500Y275000D01*
Y265000D02*
Y275000D01*
X140421Y239921D02*
X160500Y260000D01*
X140421Y232500D02*
Y239921D01*
Y221000D02*
Y232500D01*
X110331Y183500D02*
Y201842D01*
Y127016D02*
Y183500D01*
X140421Y213590D02*
Y221000D01*
X110331Y183500D02*
X140421Y213590D01*
X67620Y100120D02*
X71120D01*
X66500Y101240D02*
X67620Y100120D01*
X71120D02*
X73500Y97740D01*
X91000Y94500D02*
X107496D01*
X57122Y110618D02*
X66500Y101240D01*
X68500Y56783D02*
Y57176D01*
X66500Y59176D02*
X68500Y57176D01*
Y56783D02*
X83305Y71589D01*
X66500Y59176D02*
Y101240D01*
X68500Y56783D02*
Y57603D01*
X69500Y58603D01*
X202634Y84343D02*
X220331Y66646D01*
X192500Y84343D02*
X202634D01*
X202634Y74500D02*
X220331Y56803D01*
X192500Y74500D02*
X202634D01*
X211823Y47594D02*
X220331Y39087D01*
X192500Y47594D02*
X211823D01*
X83305Y71589D02*
X88089D01*
X91000Y74500D01*
X43500Y42500D02*
X54217D01*
X68500Y56783D01*
X57122Y110618D02*
Y115500D01*
X23500Y42500D02*
X43500D01*
X69000Y252000D02*
X79000D01*
X49000Y272000D02*
X69000Y252000D01*
X90173Y222000D02*
X110331Y201842D01*
X155219Y49502D02*
X162500Y56783D01*
X114345Y49502D02*
X155219D01*
X110331Y53516D02*
X114345Y49502D01*
X162500Y74500D02*
Y84343D01*
Y66626D02*
Y74500D01*
Y56783D02*
Y66626D01*
X110331Y112016D02*
Y127016D01*
X107496Y94500D02*
X109512Y96516D01*
X110331D01*
Y112016D01*
Y82016D02*
Y96516D01*
Y68016D02*
Y82016D01*
Y53516D02*
Y68016D01*
X79000Y252000D02*
X90173D01*
Y222000D02*
Y252000D01*
X160500Y290000D02*
Y300000D01*
D51*
X177000Y135461D02*
D03*
Y105539D02*
D03*
D52*
X195000Y290000D02*
D03*
Y299843D02*
D03*
Y350421D02*
D03*
Y340579D02*
D03*
X120173Y53516D02*
D03*
X110331D02*
D03*
X120173Y68016D02*
D03*
X110331D02*
D03*
X120173Y82016D02*
D03*
X110331D02*
D03*
X120173Y96516D02*
D03*
X110331D02*
D03*
X120173Y112016D02*
D03*
X110331D02*
D03*
X120173Y127016D02*
D03*
X110331D02*
D03*
X130579Y221000D02*
D03*
X140421D02*
D03*
X130579Y232500D02*
D03*
X140421D02*
D03*
X100016Y252000D02*
D03*
X90173D02*
D03*
X85500Y333500D02*
D03*
Y343343D02*
D03*
X42000D02*
D03*
Y333500D02*
D03*
X68500Y37098D02*
D03*
Y56783D02*
D03*
D53*
X160500Y340000D02*
D03*
Y330000D02*
D03*
Y320000D02*
D03*
Y310000D02*
D03*
Y300000D02*
D03*
Y290000D02*
D03*
Y280000D02*
D03*
Y270000D02*
D03*
Y260000D02*
D03*
Y250000D02*
D03*
X130500D02*
D03*
Y260000D02*
D03*
Y270000D02*
D03*
Y280000D02*
D03*
Y290000D02*
D03*
Y300000D02*
D03*
Y310000D02*
D03*
Y320000D02*
D03*
Y330000D02*
D03*
D54*
Y340000D02*
D03*
D55*
X25500Y14500D02*
D03*
Y361000D02*
D03*
X257500Y188750D02*
D03*
D56*
X91000Y94500D02*
D03*
Y84500D02*
D03*
D57*
Y74500D02*
D03*
D58*
X244500Y332000D02*
D03*
Y273500D02*
D03*
D59*
X263594Y351094D02*
D03*
X225406D02*
D03*
Y312906D02*
D03*
X263594D02*
D03*
Y292594D02*
D03*
X225406D02*
D03*
Y254406D02*
D03*
X263594D02*
D03*
D60*
X192500Y21594D02*
D03*
X162500D02*
D03*
X192500Y30094D02*
D03*
X162500D02*
D03*
X192500Y39094D02*
D03*
X162500D02*
D03*
X192500Y47594D02*
D03*
X162500D02*
D03*
X192500Y56783D02*
D03*
X162500D02*
D03*
X49000Y152000D02*
D03*
X79000D02*
D03*
X49000Y174500D02*
D03*
X79000D02*
D03*
X49000Y163500D02*
D03*
X79000D02*
D03*
X192500Y66626D02*
D03*
X162500D02*
D03*
X192500Y74500D02*
D03*
X162500D02*
D03*
X192500Y84343D02*
D03*
X162500D02*
D03*
X120173Y222000D02*
D03*
X90173D02*
D03*
X209500Y334500D02*
D03*
Y364500D02*
D03*
Y314500D02*
D03*
Y284500D02*
D03*
D61*
X43500Y42500D02*
D03*
Y72500D02*
D03*
D62*
X23500Y42500D02*
D03*
Y72500D02*
D03*
D63*
X28500Y192000D02*
D03*
Y202000D02*
D03*
Y212000D02*
D03*
X18500Y192000D02*
D03*
Y202000D02*
D03*
D64*
Y212000D02*
D03*
D65*
X19000Y322079D02*
D03*
X29000D02*
D03*
X19000Y312079D02*
D03*
X29000D02*
D03*
X19000Y302079D02*
D03*
X29000D02*
D03*
X19000Y292079D02*
D03*
X29000D02*
D03*
X19000Y282079D02*
D03*
X29000D02*
D03*
X19000Y272079D02*
D03*
X29000D02*
D03*
X19000Y262079D02*
D03*
X29000D02*
D03*
X19000Y252079D02*
D03*
X29000D02*
D03*
X19000Y242079D02*
D03*
X102000Y174500D02*
D03*
X101579Y155500D02*
D03*
X27500Y174500D02*
D03*
Y155500D02*
D03*
D66*
X29000Y242079D02*
D03*
D67*
X92000Y174500D02*
D03*
X91579Y155500D02*
D03*
X17500Y174500D02*
D03*
Y155500D02*
D03*
D68*
X220331Y39087D02*
D03*
Y108587D02*
D03*
D69*
Y48929D02*
D03*
Y56803D02*
D03*
Y66646D02*
D03*
Y118429D02*
D03*
Y126303D02*
D03*
Y136146D02*
D03*
D70*
X231000Y27000D02*
D03*
Y78732D02*
D03*
Y96500D02*
D03*
Y148232D02*
D03*
D71*
X69079Y339000D02*
D03*
X59236D02*
D03*
D72*
X49000Y322000D02*
D03*
Y312000D02*
D03*
Y302000D02*
D03*
Y292000D02*
D03*
Y282000D02*
D03*
Y272000D02*
D03*
Y262000D02*
D03*
Y252000D02*
D03*
Y242000D02*
D03*
Y232000D02*
D03*
Y222000D02*
D03*
Y212000D02*
D03*
Y202000D02*
D03*
Y192000D02*
D03*
X79000Y322000D02*
D03*
Y312000D02*
D03*
Y302000D02*
D03*
Y292000D02*
D03*
Y282000D02*
D03*
Y272000D02*
D03*
Y262000D02*
D03*
Y252000D02*
D03*
Y242000D02*
D03*
Y232000D02*
D03*
Y222000D02*
D03*
Y212000D02*
D03*
Y202000D02*
D03*
D73*
Y192000D02*
D03*
D74*
X45311Y96996D02*
D03*
D75*
X33500Y115500D02*
D03*
D76*
X57122D02*
D03*
D77*
X73500Y97740D02*
D03*
D78*
Y135260D02*
D03*
D79*
X126500Y185000D02*
D03*
D80*
X244500Y332000D02*
Y362000D01*
X237000Y369500D02*
X244500Y362000D01*
X214500Y369500D02*
X237000D01*
X209500Y364500D02*
X214500Y369500D01*
X205000Y330000D02*
X209500Y334500D01*
X160500Y330000D02*
X205000D01*
X209500Y284500D02*
X220500Y273500D01*
X244500D01*
X204000Y320000D02*
X209500Y314500D01*
X160500Y320000D02*
X204000D01*
X160500Y330000D02*
X161380Y329120D01*
M02*
