G04*
G04 #@! TF.GenerationSoftware,Altium Limited,Altium Designer,22.10.1 (41)*
G04*
G04 Layer_Color=65535*
%FSLAX25Y25*%
%MOIN*%
G70*
G04*
G04 #@! TF.SameCoordinates,A0270BB2-01BD-44B2-A44C-0491C2069839*
G04*
G04*
G04 #@! TF.FilePolarity,Positive*
G04*
G01*
G75*
%ADD10C,0.00787*%
%ADD11C,0.00500*%
%ADD12C,0.01000*%
D10*
X49449Y63661D02*
X48661D01*
X49449D01*
X7480Y94488D02*
X6693D01*
X7480D01*
X86221D02*
X85433D01*
X86221D01*
Y15748D02*
X85433D01*
X86221D01*
X6417D02*
X5630D01*
X6417D01*
X69055Y94488D02*
Y97488D01*
X49055D02*
X69055D01*
X49055Y91488D02*
Y97488D01*
Y91488D02*
X69055D01*
Y94488D01*
X48155D02*
X49055D01*
X69055D02*
X69955D01*
X49055Y71803D02*
Y74803D01*
Y71803D02*
X69055D01*
Y77803D01*
X49055D02*
X69055D01*
X49055Y74803D02*
Y77803D01*
X69055Y74803D02*
X69955D01*
X48155D02*
X49055D01*
Y32433D02*
Y35433D01*
Y32433D02*
X69055D01*
Y38433D01*
X49055D02*
X69055D01*
X49055Y35433D02*
Y38433D01*
X69055Y35433D02*
X69955D01*
X48155D02*
X49055D01*
X69055Y15748D02*
Y18748D01*
X49055D02*
X69055D01*
X49055Y12748D02*
Y18748D01*
Y12748D02*
X69055D01*
Y15748D01*
X48155D02*
X49055D01*
X69055D02*
X69955D01*
D11*
X9843Y88323D02*
X10409Y87497D01*
X11045Y86723D01*
X11745Y86007D01*
X12504Y85353D01*
X13316Y84768D01*
X14175Y84254D01*
X15076Y83816D01*
X16011Y83457D01*
X16973Y83180D01*
X17956Y82986D01*
X18952Y82878D01*
X19953Y82856D01*
X20952Y82920D01*
X21942Y83070D01*
X22916Y83304D01*
X23866Y83622D01*
X24785Y84019D01*
X25666Y84495D01*
X26504Y85044D01*
X27291Y85663D01*
X28022Y86348D01*
X28691Y87093D01*
X29294Y87893D01*
X29825Y88741D01*
X30282Y89633D01*
X30660Y90560D01*
X30958Y91516D01*
X31172Y92494D01*
X31301Y93488D01*
X31344Y94488D01*
X31301Y95489D01*
X31172Y96482D01*
X30958Y97460D01*
X30660Y98416D01*
X30282Y99344D01*
X29825Y100235D01*
X29294Y101084D01*
X28691Y101883D01*
X28022Y102628D01*
X27291Y103313D01*
X26504Y103932D01*
X25667Y104482D01*
X24785Y104957D01*
X23866Y105355D01*
X22916Y105672D01*
X21942Y105906D01*
X20952Y106056D01*
X19953Y106120D01*
X18952Y106098D01*
X17956Y105990D01*
X16973Y105797D01*
X16011Y105519D01*
X15076Y105160D01*
X14176Y104722D01*
X13316Y104209D01*
X12504Y103623D01*
X11745Y102970D01*
X11045Y102253D01*
X10409Y101479D01*
X9843Y100654D01*
X88583Y88323D02*
X89149Y87497D01*
X89785Y86723D01*
X90485Y86007D01*
X91244Y85353D01*
X92056Y84768D01*
X92916Y84254D01*
X93816Y83816D01*
X94751Y83457D01*
X95714Y83180D01*
X96696Y82986D01*
X97692Y82878D01*
X98693Y82856D01*
X99692Y82920D01*
X100683Y83070D01*
X101656Y83304D01*
X102606Y83622D01*
X103525Y84019D01*
X104407Y84495D01*
X105244Y85044D01*
X106031Y85663D01*
X106762Y86348D01*
X107431Y87093D01*
X108034Y87893D01*
X108565Y88741D01*
X109022Y89633D01*
X109401Y90560D01*
X109698Y91516D01*
X109912Y92494D01*
X110041Y93488D01*
X110084Y94488D01*
X110041Y95489D01*
X109912Y96482D01*
X109698Y97460D01*
X109401Y98416D01*
X109022Y99344D01*
X108565Y100235D01*
X108034Y101084D01*
X107431Y101883D01*
X106762Y102628D01*
X106031Y103313D01*
X105244Y103932D01*
X104407Y104482D01*
X103525Y104957D01*
X102606Y105355D01*
X101656Y105672D01*
X100683Y105906D01*
X99692Y106056D01*
X98693Y106120D01*
X97692Y106098D01*
X96696Y105990D01*
X95714Y105797D01*
X94751Y105519D01*
X93816Y105160D01*
X92916Y104722D01*
X92056Y104209D01*
X91244Y103623D01*
X90485Y102970D01*
X89785Y102253D01*
X89149Y101479D01*
X88583Y100654D01*
X88583Y9583D02*
X89149Y8757D01*
X89785Y7983D01*
X90485Y7267D01*
X91244Y6613D01*
X92056Y6027D01*
X92916Y5514D01*
X93816Y5076D01*
X94751Y4717D01*
X95714Y4440D01*
X96696Y4246D01*
X97692Y4138D01*
X98693Y4116D01*
X99692Y4180D01*
X100683Y4330D01*
X101656Y4564D01*
X102606Y4881D01*
X103525Y5279D01*
X104407Y5754D01*
X105244Y6304D01*
X106031Y6923D01*
X106762Y7608D01*
X107431Y8353D01*
X108034Y9153D01*
X108565Y10001D01*
X109022Y10892D01*
X109401Y11820D01*
X109698Y12776D01*
X109912Y13754D01*
X110041Y14747D01*
X110084Y15748D01*
X110041Y16748D01*
X109912Y17742D01*
X109698Y18720D01*
X109401Y19676D01*
X109022Y20604D01*
X108565Y21495D01*
X108034Y22343D01*
X107431Y23143D01*
X106762Y23888D01*
X106031Y24573D01*
X105244Y25192D01*
X104407Y25742D01*
X103525Y26217D01*
X102606Y26615D01*
X101656Y26932D01*
X100683Y27166D01*
X99692Y27316D01*
X98693Y27380D01*
X97692Y27358D01*
X96696Y27250D01*
X95714Y27056D01*
X94751Y26779D01*
X93816Y26420D01*
X92916Y25982D01*
X92056Y25469D01*
X91244Y24883D01*
X90485Y24229D01*
X89785Y23513D01*
X89149Y22739D01*
X88583Y21914D01*
X8779Y9583D02*
X9346Y8757D01*
X9982Y7983D01*
X10682Y7267D01*
X11441Y6613D01*
X12253Y6027D01*
X13113Y5514D01*
X14013Y5076D01*
X14948Y4717D01*
X15910Y4440D01*
X16893Y4246D01*
X17889Y4138D01*
X18890Y4116D01*
X19889Y4180D01*
X20879Y4330D01*
X21853Y4564D01*
X22803Y4881D01*
X23722Y5279D01*
X24603Y5754D01*
X25441Y6304D01*
X26228Y6923D01*
X26959Y7608D01*
X27628Y8353D01*
X28231Y9153D01*
X28762Y10001D01*
X29219Y10892D01*
X29597Y11820D01*
X29895Y12776D01*
X30109Y13754D01*
X30238Y14747D01*
X30281Y15748D01*
X30238Y16748D01*
X30109Y17742D01*
X29895Y18720D01*
X29597Y19676D01*
X29219Y20604D01*
X28762Y21495D01*
X28231Y22343D01*
X27628Y23143D01*
X26959Y23888D01*
X26228Y24573D01*
X25441Y25192D01*
X24604Y25742D01*
X23722Y26217D01*
X22803Y26615D01*
X21853Y26932D01*
X20879Y27166D01*
X19889Y27316D01*
X18890Y27380D01*
X17889Y27358D01*
X16893Y27250D01*
X15911Y27056D01*
X14948Y26779D01*
X14013Y26420D01*
X13113Y25982D01*
X12253Y25469D01*
X11441Y24883D01*
X10682Y24229D01*
X9982Y23513D01*
X9346Y22739D01*
X8780Y21914D01*
X44843Y50512D02*
Y59724D01*
X73268D01*
Y50512D02*
Y59724D01*
X44843Y50512D02*
X73268D01*
X9843Y88323D02*
Y100654D01*
X88583Y88323D02*
Y100654D01*
Y9583D02*
Y21913D01*
X8780Y9583D02*
Y21913D01*
D12*
X23499Y52119D02*
Y58117D01*
X26498D01*
X27497Y57117D01*
Y55118D01*
X26498Y54118D01*
X23499D01*
X25498D02*
X27497Y52119D01*
X29497Y58117D02*
Y52119D01*
X31496Y54118D01*
X33495Y52119D01*
Y58117D01*
X35495Y52119D02*
Y58117D01*
X38494D01*
X39494Y57117D01*
Y55118D01*
X38494Y54118D01*
X35495D01*
X37494D02*
X39494Y52119D01*
X7315Y116176D02*
Y110178D01*
X10314D01*
X11314Y111178D01*
Y115176D01*
X10314Y116176D01*
X7315D01*
X17312D02*
X13313D01*
Y113177D01*
X15312D01*
X13313D01*
Y110178D01*
X19311D02*
X21310D01*
X20311D01*
Y116176D01*
X19311Y115176D01*
X41915Y100878D02*
Y106876D01*
X44914D01*
X45914Y105876D01*
Y103877D01*
X44914Y102877D01*
X41915D01*
X43914D02*
X45914Y100878D01*
X51912Y106876D02*
X47913D01*
Y103877D01*
X49912D01*
X47913D01*
Y100878D01*
X53911D02*
X55910D01*
X54911D01*
Y106876D01*
X53911Y105876D01*
X86015Y116176D02*
Y110178D01*
X89014D01*
X90014Y111178D01*
Y115176D01*
X89014Y116176D01*
X86015D01*
X96012D02*
X92013D01*
Y113177D01*
X94012D01*
X92013D01*
Y110178D01*
X102010D02*
X98011D01*
X102010Y114177D01*
Y115176D01*
X101010Y116176D01*
X99011D01*
X98011Y115176D01*
X41915Y81178D02*
Y87176D01*
X44914D01*
X45914Y86176D01*
Y84177D01*
X44914Y83177D01*
X41915D01*
X43914D02*
X45914Y81178D01*
X51912Y87176D02*
X47913D01*
Y84177D01*
X49912D01*
X47913D01*
Y81178D01*
X57910D02*
X53911D01*
X57910Y85177D01*
Y86176D01*
X56910Y87176D01*
X54911D01*
X53911Y86176D01*
X86015Y37476D02*
Y31478D01*
X89014D01*
X90014Y32478D01*
Y36476D01*
X89014Y37476D01*
X86015D01*
X92013Y31478D02*
Y37476D01*
X95012D01*
X96012Y36476D01*
Y34477D01*
X95012Y33477D01*
X92013D01*
X94012D02*
X96012Y31478D01*
X98011D02*
X100010D01*
X99011D01*
Y37476D01*
X98011Y36476D01*
X41915Y41778D02*
Y47776D01*
X44914D01*
X45914Y46776D01*
Y44777D01*
X44914Y43777D01*
X41915D01*
X43914D02*
X45914Y41778D01*
X47913D02*
Y47776D01*
X50912D01*
X51912Y46776D01*
Y44777D01*
X50912Y43777D01*
X47913D01*
X49912D02*
X51912Y41778D01*
X53911D02*
X55910D01*
X54911D01*
Y47776D01*
X53911Y46776D01*
X6215Y37476D02*
Y31478D01*
X9214D01*
X10214Y32478D01*
Y36476D01*
X9214Y37476D01*
X6215D01*
X12213Y31478D02*
Y37476D01*
X15212D01*
X16212Y36476D01*
Y34477D01*
X15212Y33477D01*
X12213D01*
X14212D02*
X16212Y31478D01*
X22210D02*
X18211D01*
X22210Y35477D01*
Y36476D01*
X21210Y37476D01*
X19211D01*
X18211Y36476D01*
X41915Y22178D02*
Y28176D01*
X44914D01*
X45914Y27176D01*
Y25177D01*
X44914Y24177D01*
X41915D01*
X43914D02*
X45914Y22178D01*
X47913D02*
Y28176D01*
X50912D01*
X51912Y27176D01*
Y25177D01*
X50912Y24177D01*
X47913D01*
X49912D02*
X51912Y22178D01*
X57910D02*
X53911D01*
X57910Y26177D01*
Y27176D01*
X56910Y28176D01*
X54911D01*
X53911Y27176D01*
M02*
