G04*
G04 #@! TF.GenerationSoftware,Altium Limited,Altium Designer,22.10.1 (41)*
G04*
G04 Layer_Physical_Order=2*
G04 Layer_Color=16711680*
%FSLAX25Y25*%
%MOIN*%
G70*
G04*
G04 #@! TF.SameCoordinates,A0270BB2-01BD-44B2-A44C-0491C2069839*
G04*
G04*
G04 #@! TF.FilePolarity,Positive*
G04*
G01*
G75*
%ADD18R,0.06024X0.06024*%
%ADD19C,0.06024*%
%ADD20R,0.07146X0.07146*%
%ADD21C,0.07146*%
%ADD22C,0.05512*%
G36*
X110236Y3937D02*
X3937D01*
Y114173D01*
X110236D01*
Y3937D01*
D02*
G37*
%LPC*%
G36*
X74555Y98243D02*
Y94988D01*
X77810D01*
X77555Y95938D01*
X77061Y96794D01*
X76361Y97494D01*
X75505Y97988D01*
X74555Y98243D01*
D02*
G37*
G36*
X73555D02*
X72605Y97988D01*
X71749Y97494D01*
X71050Y96794D01*
X70555Y95938D01*
X70301Y94988D01*
X73555D01*
Y98243D01*
D02*
G37*
G36*
X77810Y93988D02*
X74555D01*
Y90734D01*
X75505Y90988D01*
X76361Y91483D01*
X77061Y92182D01*
X77555Y93038D01*
X77810Y93988D01*
D02*
G37*
G36*
X73555D02*
X70301D01*
X70555Y93038D01*
X71050Y92182D01*
X71749Y91483D01*
X72605Y90988D01*
X73555Y90734D01*
Y93988D01*
D02*
G37*
G36*
X44550Y98244D02*
X43561D01*
X42605Y97988D01*
X41749Y97494D01*
X41050Y96794D01*
X40555Y95938D01*
X40299Y94983D01*
Y93994D01*
X40555Y93038D01*
X41050Y92182D01*
X41749Y91483D01*
X42605Y90988D01*
X43561Y90732D01*
X44550D01*
X45505Y90988D01*
X46361Y91483D01*
X47061Y92182D01*
X47555Y93038D01*
X47811Y93994D01*
Y94983D01*
X47555Y95938D01*
X47061Y96794D01*
X46361Y97494D01*
X45505Y97988D01*
X44550Y98244D01*
D02*
G37*
G36*
X104027Y99061D02*
X102823D01*
X101660Y98749D01*
X100617Y98147D01*
X99766Y97296D01*
X99164Y96253D01*
X98852Y95090D01*
Y93886D01*
X99164Y92723D01*
X99766Y91680D01*
X100617Y90829D01*
X101660Y90227D01*
X102823Y89915D01*
X104027D01*
X105190Y90227D01*
X106233Y90829D01*
X107084Y91680D01*
X107686Y92723D01*
X107998Y93886D01*
Y95090D01*
X107686Y96253D01*
X107084Y97296D01*
X106233Y98147D01*
X105190Y98749D01*
X104027Y99061D01*
D02*
G37*
G36*
X97998D02*
X88852D01*
Y89915D01*
X97998D01*
Y99061D01*
D02*
G37*
G36*
X25287D02*
X24083D01*
X22920Y98749D01*
X21877Y98147D01*
X21026Y97296D01*
X20424Y96253D01*
X20112Y95090D01*
Y93886D01*
X20424Y92723D01*
X21026Y91680D01*
X21877Y90829D01*
X22920Y90227D01*
X24083Y89915D01*
X25287D01*
X26450Y90227D01*
X27493Y90829D01*
X28344Y91680D01*
X28946Y92723D01*
X29258Y93886D01*
Y95090D01*
X28946Y96253D01*
X28344Y97296D01*
X27493Y98147D01*
X26450Y98749D01*
X25287Y99061D01*
D02*
G37*
G36*
X19258D02*
X10112D01*
Y89915D01*
X19258D01*
Y99061D01*
D02*
G37*
G36*
X44555Y78558D02*
Y75303D01*
X47809D01*
X47555Y76253D01*
X47061Y77109D01*
X46361Y77809D01*
X45505Y78303D01*
X44555Y78558D01*
D02*
G37*
G36*
X43555D02*
X42605Y78303D01*
X41749Y77809D01*
X41050Y77109D01*
X40555Y76253D01*
X40301Y75303D01*
X43555D01*
Y78558D01*
D02*
G37*
G36*
X47809Y74303D02*
X44555D01*
Y71049D01*
X45505Y71303D01*
X46361Y71798D01*
X47061Y72497D01*
X47555Y73353D01*
X47809Y74303D01*
D02*
G37*
G36*
X43555D02*
X40301D01*
X40555Y73353D01*
X41050Y72497D01*
X41749Y71798D01*
X42605Y71303D01*
X43555Y71049D01*
Y74303D01*
D02*
G37*
G36*
X74550Y78559D02*
X73561D01*
X72605Y78303D01*
X71749Y77809D01*
X71050Y77109D01*
X70555Y76253D01*
X70299Y75298D01*
Y74309D01*
X70555Y73353D01*
X71050Y72497D01*
X71749Y71798D01*
X72605Y71303D01*
X73561Y71047D01*
X74550D01*
X75505Y71303D01*
X76361Y71798D01*
X77061Y72497D01*
X77555Y73353D01*
X77811Y74309D01*
Y75298D01*
X77555Y76253D01*
X77061Y77109D01*
X76361Y77809D01*
X75505Y78303D01*
X74550Y78559D01*
D02*
G37*
G36*
X53067Y59130D02*
X49555D01*
Y55618D01*
X53067D01*
Y59130D01*
D02*
G37*
G36*
X48555D02*
X45043D01*
Y55618D01*
X48555D01*
Y59130D01*
D02*
G37*
G36*
X69583D02*
X68527D01*
X67507Y58856D01*
X66592Y58328D01*
X65845Y57581D01*
X65317Y56667D01*
X65043Y55646D01*
Y54590D01*
X65317Y53570D01*
X65845Y52655D01*
X66592Y51908D01*
X67507Y51380D01*
X68527Y51106D01*
X69583D01*
X70604Y51380D01*
X71518Y51908D01*
X72265Y52655D01*
X72794Y53570D01*
X73067Y54590D01*
Y55646D01*
X72794Y56667D01*
X72265Y57581D01*
X71518Y58328D01*
X70604Y58856D01*
X69583Y59130D01*
D02*
G37*
G36*
X59583D02*
X58527D01*
X57507Y58856D01*
X56592Y58328D01*
X55845Y57581D01*
X55317Y56667D01*
X55043Y55646D01*
Y54590D01*
X55317Y53570D01*
X55845Y52655D01*
X56592Y51908D01*
X57507Y51380D01*
X58527Y51106D01*
X59583D01*
X60604Y51380D01*
X61518Y51908D01*
X62265Y52655D01*
X62793Y53570D01*
X63067Y54590D01*
Y55646D01*
X62793Y56667D01*
X62265Y57581D01*
X61518Y58328D01*
X60604Y58856D01*
X59583Y59130D01*
D02*
G37*
G36*
X53067Y54618D02*
X49555D01*
Y51106D01*
X53067D01*
Y54618D01*
D02*
G37*
G36*
X48555D02*
X45043D01*
Y51106D01*
X48555D01*
Y54618D01*
D02*
G37*
G36*
X44555Y39187D02*
Y35933D01*
X47809D01*
X47555Y36883D01*
X47061Y37739D01*
X46361Y38438D01*
X45505Y38933D01*
X44555Y39187D01*
D02*
G37*
G36*
X43555D02*
X42605Y38933D01*
X41749Y38438D01*
X41050Y37739D01*
X40555Y36883D01*
X40301Y35933D01*
X43555D01*
Y39187D01*
D02*
G37*
G36*
X47809Y34933D02*
X44555D01*
Y31679D01*
X45505Y31933D01*
X46361Y32428D01*
X47061Y33127D01*
X47555Y33983D01*
X47809Y34933D01*
D02*
G37*
G36*
X43555D02*
X40301D01*
X40555Y33983D01*
X41050Y33127D01*
X41749Y32428D01*
X42605Y31933D01*
X43555Y31679D01*
Y34933D01*
D02*
G37*
G36*
X74550Y39189D02*
X73561D01*
X72605Y38933D01*
X71749Y38438D01*
X71050Y37739D01*
X70555Y36883D01*
X70299Y35928D01*
Y34939D01*
X70555Y33983D01*
X71050Y33127D01*
X71749Y32428D01*
X72605Y31933D01*
X73561Y31677D01*
X74550D01*
X75505Y31933D01*
X76361Y32428D01*
X77061Y33127D01*
X77555Y33983D01*
X77811Y34939D01*
Y35928D01*
X77555Y36883D01*
X77061Y37739D01*
X76361Y38438D01*
X75505Y38933D01*
X74550Y39189D01*
D02*
G37*
G36*
X74555Y19502D02*
Y16248D01*
X77810D01*
X77555Y17198D01*
X77061Y18054D01*
X76361Y18754D01*
X75505Y19248D01*
X74555Y19502D01*
D02*
G37*
G36*
X73555D02*
X72605Y19248D01*
X71749Y18754D01*
X71050Y18054D01*
X70555Y17198D01*
X70301Y16248D01*
X73555D01*
Y19502D01*
D02*
G37*
G36*
X77810Y15248D02*
X74555D01*
Y11994D01*
X75505Y12248D01*
X76361Y12743D01*
X77061Y13442D01*
X77555Y14298D01*
X77810Y15248D01*
D02*
G37*
G36*
X73555D02*
X70301D01*
X70555Y14298D01*
X71050Y13442D01*
X71749Y12743D01*
X72605Y12248D01*
X73555Y11994D01*
Y15248D01*
D02*
G37*
G36*
X44550Y19504D02*
X43561D01*
X42605Y19248D01*
X41749Y18754D01*
X41050Y18054D01*
X40555Y17198D01*
X40299Y16242D01*
Y15254D01*
X40555Y14298D01*
X41050Y13442D01*
X41749Y12743D01*
X42605Y12248D01*
X43561Y11992D01*
X44550D01*
X45505Y12248D01*
X46361Y12743D01*
X47061Y13442D01*
X47555Y14298D01*
X47811Y15254D01*
Y16242D01*
X47555Y17198D01*
X47061Y18054D01*
X46361Y18754D01*
X45505Y19248D01*
X44550Y19504D01*
D02*
G37*
G36*
X104027Y20321D02*
X102823D01*
X101660Y20009D01*
X100617Y19407D01*
X99766Y18556D01*
X99164Y17513D01*
X98852Y16350D01*
Y15146D01*
X99164Y13983D01*
X99766Y12940D01*
X100617Y12089D01*
X101660Y11487D01*
X102823Y11175D01*
X104027D01*
X105190Y11487D01*
X106233Y12089D01*
X107084Y12940D01*
X107686Y13983D01*
X107998Y15146D01*
Y16350D01*
X107686Y17513D01*
X107084Y18556D01*
X106233Y19407D01*
X105190Y20009D01*
X104027Y20321D01*
D02*
G37*
G36*
X97998D02*
X88852D01*
Y11175D01*
X97998D01*
Y20321D01*
D02*
G37*
G36*
X24224D02*
X23020D01*
X21857Y20009D01*
X20814Y19407D01*
X19963Y18556D01*
X19361Y17513D01*
X19049Y16350D01*
Y15146D01*
X19361Y13983D01*
X19963Y12940D01*
X20814Y12089D01*
X21857Y11487D01*
X23020Y11175D01*
X24224D01*
X25387Y11487D01*
X26430Y12089D01*
X27281Y12940D01*
X27883Y13983D01*
X28195Y15146D01*
Y16350D01*
X27883Y17513D01*
X27281Y18556D01*
X26430Y19407D01*
X25387Y20009D01*
X24224Y20321D01*
D02*
G37*
G36*
X18195D02*
X9049D01*
Y11175D01*
X18195D01*
Y20321D01*
D02*
G37*
%LPD*%
D18*
X49055Y55118D02*
D03*
D19*
X59055D02*
D03*
X69055D02*
D03*
D20*
X14685Y94488D02*
D03*
X93425D02*
D03*
Y15748D02*
D03*
X13622D02*
D03*
D21*
X24685Y94488D02*
D03*
X103425D02*
D03*
Y15748D02*
D03*
X23622D02*
D03*
D22*
X74055Y94488D02*
D03*
X44055D02*
D03*
Y74803D02*
D03*
X74055D02*
D03*
X44055Y35433D02*
D03*
X74055D02*
D03*
Y15748D02*
D03*
X44055D02*
D03*
M02*
