G04*
G04 #@! TF.GenerationSoftware,Altium Limited,Altium Designer,22.10.1 (41)*
G04*
G04 Layer_Physical_Order=1*
G04 Layer_Color=255*
%FSLAX25Y25*%
%MOIN*%
G70*
G04*
G04 #@! TF.SameCoordinates,A0270BB2-01BD-44B2-A44C-0491C2069839*
G04*
G04*
G04 #@! TF.FilePolarity,Positive*
G04*
G01*
G75*
%ADD12C,0.01000*%
%ADD18R,0.06024X0.06024*%
%ADD19C,0.06024*%
%ADD20R,0.07146X0.07146*%
%ADD21C,0.07146*%
%ADD22C,0.05512*%
D12*
X69055Y60118D02*
Y88938D01*
Y55118D02*
Y60118D01*
X14685Y94488D02*
X19795Y89378D01*
X38945D01*
X44055Y94488D01*
X13622Y15748D02*
X18792Y10578D01*
X38885D01*
X44055Y15748D01*
X23622D02*
Y39285D01*
X44415Y60078D01*
X54095D01*
X59055Y55118D01*
X69055Y60118D02*
X103425Y94488D01*
X78695Y30478D02*
X93425Y15748D01*
X75315Y30478D02*
X78695D01*
X74055Y31738D02*
X75315Y30478D01*
X74055Y31738D02*
Y35433D01*
Y74803D02*
Y75118D01*
X93425Y94488D01*
X59055Y55118D02*
X63595Y50578D01*
X68595D01*
X103425Y15748D01*
X59015Y98978D02*
X69055Y88938D01*
X29175Y98978D02*
X59015D01*
X24685Y94488D02*
X29175Y98978D01*
D18*
X49055Y55118D02*
D03*
D19*
X59055D02*
D03*
X69055D02*
D03*
D20*
X14685Y94488D02*
D03*
X93425D02*
D03*
Y15748D02*
D03*
X13622D02*
D03*
D21*
X24685Y94488D02*
D03*
X103425D02*
D03*
Y15748D02*
D03*
X23622D02*
D03*
D22*
X74055Y94488D02*
D03*
X44055D02*
D03*
Y74803D02*
D03*
X74055D02*
D03*
X44055Y35433D02*
D03*
X74055D02*
D03*
Y15748D02*
D03*
X44055D02*
D03*
M02*
