G04*
G04 #@! TF.GenerationSoftware,Altium Limited,Altium Designer,22.10.1 (41)*
G04*
G04 Layer_Color=32768*
%FSLAX25Y25*%
%MOIN*%
G70*
G04*
G04 #@! TF.SameCoordinates,A0270BB2-01BD-44B2-A44C-0491C2069839*
G04*
G04*
G04 #@! TF.FilePolarity,Positive*
G04*
G01*
G75*
%ADD23C,0.00197*%
D23*
X8886Y87984D02*
X9432Y87152D01*
X10041Y86366D01*
X10711Y85630D01*
X11436Y84949D01*
X12213Y84327D01*
X13036Y83768D01*
X13901Y83276D01*
X14801Y82854D01*
X15732Y82503D01*
X16688Y82227D01*
X17663Y82027D01*
X18650Y81905D01*
X19644Y81860D01*
X20639Y81894D01*
X21627Y82006D01*
X22604Y82196D01*
X23562Y82462D01*
X24497Y82802D01*
X25402Y83215D01*
X26272Y83698D01*
X27101Y84248D01*
X27884Y84862D01*
X28617Y85535D01*
X29294Y86264D01*
X29912Y87044D01*
X30466Y87870D01*
X30954Y88737D01*
X31372Y89640D01*
X31717Y90573D01*
X31988Y91530D01*
X32183Y92506D01*
X32300Y93494D01*
X32339Y94488D01*
X32300Y95482D01*
X32183Y96470D01*
X31988Y97446D01*
X31717Y98403D01*
X31372Y99336D01*
X30954Y100239D01*
X30466Y101106D01*
X29912Y101932D01*
X29294Y102712D01*
X28617Y103441D01*
X27884Y104114D01*
X27101Y104728D01*
X26272Y105278D01*
X25403Y105761D01*
X24497Y106174D01*
X23563Y106515D01*
X22604Y106781D01*
X21627Y106970D01*
X20639Y107082D01*
X19644Y107116D01*
X18650Y107072D01*
X17663Y106949D01*
X16689Y106749D01*
X15733Y106473D01*
X14802Y106123D01*
X13901Y105700D01*
X13036Y105208D01*
X12213Y104649D01*
X11436Y104028D01*
X10711Y103347D01*
X10042Y102611D01*
X9432Y101824D01*
X8887Y100992D01*
X87627Y87984D02*
X88172Y87152D01*
X88782Y86366D01*
X89451Y85630D01*
X90176Y84949D01*
X90953Y84327D01*
X91776Y83768D01*
X92641Y83276D01*
X93542Y82854D01*
X94473Y82503D01*
X95429Y82227D01*
X96403Y82027D01*
X97390Y81905D01*
X98384Y81860D01*
X99379Y81894D01*
X100367Y82006D01*
X101344Y82196D01*
X102303Y82462D01*
X103237Y82802D01*
X104142Y83215D01*
X105012Y83698D01*
X105841Y84248D01*
X106624Y84862D01*
X107357Y85535D01*
X108034Y86264D01*
X108652Y87044D01*
X109206Y87870D01*
X109694Y88737D01*
X110112Y89640D01*
X110457Y90573D01*
X110728Y91530D01*
X110923Y92506D01*
X111040Y93494D01*
X111079Y94488D01*
X111040Y95482D01*
X110923Y96470D01*
X110728Y97446D01*
X110457Y98403D01*
X110112Y99336D01*
X109694Y100239D01*
X109206Y101106D01*
X108652Y101932D01*
X108034Y102712D01*
X107357Y103441D01*
X106625Y104114D01*
X105841Y104728D01*
X105012Y105278D01*
X104143Y105761D01*
X103237Y106174D01*
X102303Y106515D01*
X101344Y106781D01*
X100367Y106970D01*
X99379Y107082D01*
X98384Y107116D01*
X97391Y107072D01*
X96403Y106949D01*
X95429Y106749D01*
X94473Y106473D01*
X93542Y106123D01*
X92641Y105700D01*
X91776Y105208D01*
X90953Y104649D01*
X90176Y104028D01*
X89451Y103347D01*
X88782Y102611D01*
X88172Y101824D01*
X87627Y100992D01*
X87627Y9244D02*
X88172Y8412D01*
X88782Y7626D01*
X89451Y6890D01*
X90176Y6209D01*
X90953Y5587D01*
X91776Y5028D01*
X92641Y4536D01*
X93542Y4113D01*
X94473Y3763D01*
X95429Y3487D01*
X96403Y3287D01*
X97390Y3164D01*
X98384Y3120D01*
X99379Y3154D01*
X100367Y3266D01*
X101344Y3456D01*
X102303Y3721D01*
X103237Y4062D01*
X104142Y4475D01*
X105012Y4958D01*
X105841Y5508D01*
X106624Y6122D01*
X107357Y6795D01*
X108034Y7524D01*
X108652Y8304D01*
X109206Y9130D01*
X109694Y9997D01*
X110112Y10900D01*
X110457Y11833D01*
X110728Y12790D01*
X110923Y13766D01*
X111040Y14754D01*
X111079Y15748D01*
X111040Y16742D01*
X110923Y17730D01*
X110728Y18706D01*
X110457Y19663D01*
X110112Y20596D01*
X109694Y21499D01*
X109206Y22366D01*
X108652Y23192D01*
X108034Y23972D01*
X107357Y24701D01*
X106625Y25374D01*
X105841Y25988D01*
X105012Y26538D01*
X104143Y27021D01*
X103237Y27434D01*
X102303Y27775D01*
X101344Y28040D01*
X100367Y28230D01*
X99379Y28342D01*
X98384Y28376D01*
X97391Y28332D01*
X96403Y28209D01*
X95429Y28009D01*
X94473Y27733D01*
X93542Y27383D01*
X92641Y26960D01*
X91776Y26468D01*
X90953Y25909D01*
X90176Y25288D01*
X89451Y24607D01*
X88782Y23870D01*
X88172Y23084D01*
X87627Y22252D01*
X7824Y9244D02*
X8369Y8412D01*
X8979Y7626D01*
X9648Y6890D01*
X10373Y6209D01*
X11150Y5587D01*
X11973Y5028D01*
X12838Y4536D01*
X13738Y4113D01*
X14670Y3763D01*
X15625Y3487D01*
X16600Y3287D01*
X17587Y3164D01*
X18581Y3120D01*
X19576Y3154D01*
X20564Y3266D01*
X21541Y3456D01*
X22499Y3721D01*
X23434Y4062D01*
X24339Y4475D01*
X25209Y4958D01*
X26038Y5508D01*
X26821Y6122D01*
X27554Y6795D01*
X28231Y7524D01*
X28849Y8304D01*
X29403Y9130D01*
X29891Y9997D01*
X30308Y10900D01*
X30654Y11833D01*
X30925Y12790D01*
X31120Y13766D01*
X31237Y14754D01*
X31276Y15748D01*
X31237Y16742D01*
X31120Y17730D01*
X30925Y18706D01*
X30654Y19663D01*
X30308Y20596D01*
X29891Y21499D01*
X29403Y22366D01*
X28849Y23192D01*
X28231Y23972D01*
X27554Y24701D01*
X26821Y25374D01*
X26038Y25988D01*
X25209Y26538D01*
X24340Y27021D01*
X23434Y27434D01*
X22500Y27775D01*
X21541Y28040D01*
X20564Y28230D01*
X19576Y28342D01*
X18581Y28376D01*
X17587Y28332D01*
X16600Y28209D01*
X15626Y28009D01*
X14670Y27733D01*
X13738Y27383D01*
X12838Y26960D01*
X11973Y26468D01*
X11150Y25909D01*
X10373Y25288D01*
X9648Y24607D01*
X8979Y23870D01*
X8369Y23084D01*
X7824Y22252D01*
X43858Y49528D02*
Y60709D01*
X74252D01*
Y49528D02*
Y60709D01*
X43858Y49528D02*
X74252D01*
X8858Y88032D02*
Y100945D01*
X87598Y88032D02*
Y100945D01*
Y9291D02*
Y22205D01*
X7795Y9291D02*
Y22205D01*
M02*
