G04*
G04 #@! TF.GenerationSoftware,Altium Limited,Altium Designer,21.0.3 (12)*
G04*
G04 Layer_Color=32768*
%FSLAX25Y25*%
%MOIN*%
G70*
G04*
G04 #@! TF.SameCoordinates,1F937BB2-0F7F-430D-ABFA-2F21A117A81B*
G04*
G04*
G04 #@! TF.FilePolarity,Positive*
G04*
G01*
G75*
%ADD11C,0.00787*%
%ADD30C,0.00394*%
%ADD31C,0.00197*%
D11*
X116051Y151000D02*
X116066Y149998D01*
X116110Y148997D01*
X116182Y147998D01*
X116284Y147001D01*
X116415Y146007D01*
X116575Y145018D01*
X116763Y144034D01*
X116980Y143055D01*
X117225Y142084D01*
X117498Y141120D01*
X117800Y140164D01*
X118129Y139218D01*
X118485Y138281D01*
X118869Y137355D01*
X119279Y136441D01*
X119715Y135539D01*
X120178Y134651D01*
X120667Y133775D01*
X121180Y132915D01*
X121719Y132070D01*
X122281Y131241D01*
X122868Y130429D01*
X123478Y129634D01*
X124111Y128857D01*
X124766Y128098D01*
X125443Y127360D01*
X126141Y126641D01*
X126860Y125943D01*
X127599Y125266D01*
X128357Y124611D01*
X129134Y123978D01*
X129929Y123368D01*
X130741Y122781D01*
X131570Y122218D01*
X132415Y121680D01*
X133276Y121166D01*
X134151Y120678D01*
X135039Y120215D01*
X135941Y119779D01*
X136856Y119369D01*
X137781Y118985D01*
X138718Y118629D01*
X139664Y118300D01*
X140620Y117998D01*
X141584Y117725D01*
X142556Y117480D01*
X143534Y117263D01*
X144518Y117075D01*
X145507Y116915D01*
X146501Y116784D01*
X147498Y116682D01*
X148497Y116610D01*
X149498Y116566D01*
X150500Y116551D01*
X151502Y116566D01*
X152503Y116610D01*
X153503Y116682D01*
X154499Y116784D01*
X155493Y116915D01*
X156482Y117075D01*
X157466Y117263D01*
X158444Y117480D01*
X159416Y117725D01*
X160380Y117998D01*
X161336Y118300D01*
X162282Y118629D01*
X163219Y118985D01*
X164145Y119369D01*
X165059Y119779D01*
X165961Y120215D01*
X166849Y120678D01*
X167724Y121166D01*
X168585Y121680D01*
X169430Y122218D01*
X170259Y122781D01*
X171071Y123368D01*
X171866Y123978D01*
X172643Y124611D01*
X173401Y125266D01*
X174140Y125943D01*
X174859Y126641D01*
X175557Y127360D01*
X176234Y128098D01*
X176889Y128857D01*
X177522Y129633D01*
X178132Y130429D01*
X178719Y131241D01*
X179281Y132070D01*
X179820Y132915D01*
X180333Y133775D01*
X180822Y134651D01*
X181284Y135539D01*
X181721Y136441D01*
X182131Y137355D01*
X182515Y138281D01*
X182871Y139218D01*
X183200Y140164D01*
X183502Y141120D01*
X183775Y142084D01*
X184020Y143055D01*
X184237Y144034D01*
X184425Y145018D01*
X184585Y146007D01*
X184716Y147001D01*
X184818Y147997D01*
X184890Y148997D01*
X184934Y149998D01*
X184949Y151000D01*
Y151000D02*
X184934Y152002D01*
X184890Y153003D01*
X184818Y154002D01*
X184716Y154999D01*
X184585Y155993D01*
X184425Y156982D01*
X184237Y157966D01*
X184020Y158944D01*
X183775Y159916D01*
X183502Y160880D01*
X183200Y161836D01*
X182871Y162782D01*
X182515Y163719D01*
X182132Y164645D01*
X181721Y165559D01*
X181285Y166461D01*
X180822Y167349D01*
X180333Y168224D01*
X179820Y169085D01*
X179282Y169930D01*
X178719Y170759D01*
X178132Y171571D01*
X177522Y172366D01*
X176889Y173143D01*
X176234Y173901D01*
X175557Y174640D01*
X174859Y175359D01*
X174140Y176057D01*
X173401Y176734D01*
X172643Y177389D01*
X171866Y178022D01*
X171071Y178632D01*
X170259Y179219D01*
X169430Y179782D01*
X168585Y180320D01*
X167724Y180834D01*
X166849Y181322D01*
X165961Y181785D01*
X165059Y182221D01*
X164145Y182632D01*
X163219Y183015D01*
X162282Y183371D01*
X161336Y183700D01*
X160380Y184002D01*
X159416Y184275D01*
X158444Y184520D01*
X157466Y184737D01*
X156482Y184925D01*
X155493Y185085D01*
X154499Y185216D01*
X153502Y185318D01*
X152503Y185390D01*
X151502Y185434D01*
X150500Y185449D01*
X149498Y185434D01*
X148497Y185390D01*
X147498Y185318D01*
X146501Y185216D01*
X145507Y185085D01*
X144518Y184925D01*
X143534Y184737D01*
X142556Y184520D01*
X141584Y184275D01*
X140620Y184002D01*
X139664Y183700D01*
X138718Y183371D01*
X137781Y183015D01*
X136855Y182632D01*
X135941Y182221D01*
X135039Y181785D01*
X134151Y181322D01*
X133276Y180834D01*
X132415Y180320D01*
X131570Y179782D01*
X130741Y179219D01*
X129929Y178632D01*
X129134Y178022D01*
X128357Y177389D01*
X127599Y176734D01*
X126860Y176057D01*
X126141Y175359D01*
X125443Y174640D01*
X124766Y173901D01*
X124111Y173143D01*
X123478Y172366D01*
X122868Y171571D01*
X122281Y170759D01*
X121718Y169930D01*
X121180Y169085D01*
X120667Y168224D01*
X120178Y167349D01*
X119715Y166461D01*
X119279Y165559D01*
X118869Y164645D01*
X118485Y163719D01*
X118129Y162782D01*
X117800Y161836D01*
X117498Y160880D01*
X117225Y159916D01*
X116980Y158944D01*
X116763Y157966D01*
X116575Y156982D01*
X116415Y155993D01*
X116284Y154999D01*
X116182Y154002D01*
X116110Y153003D01*
X116066Y152002D01*
X116051Y151000D01*
X198417Y188657D02*
X290583D01*
Y158343D02*
Y188657D01*
X198417Y158343D02*
X290583D01*
X198417D02*
Y188657D01*
X260606Y291894D02*
X289394D01*
Y240106D02*
Y291894D01*
X260606Y240106D02*
X289394D01*
X260606D02*
Y291894D01*
X198780Y198343D02*
Y228657D01*
Y198343D02*
X290945D01*
Y228657D01*
X198780D02*
X290945D01*
X198780Y118343D02*
Y148657D01*
Y118343D02*
X290945D01*
Y148657D01*
X198780D02*
X290945D01*
D30*
X153532Y220000D02*
X157469D01*
X155500Y218031D02*
Y221969D01*
X122032Y220500D02*
X125969D01*
X124000Y218531D02*
Y222469D01*
X123000Y274032D02*
Y277969D01*
X121032Y276000D02*
X124969D01*
D31*
X163906Y205610D02*
Y234390D01*
X147094Y205610D02*
Y234390D01*
Y205610D02*
X163906D01*
X147094Y234390D02*
X163906D01*
X132406Y206110D02*
Y234890D01*
X115594Y206110D02*
Y234890D01*
Y206110D02*
X132406D01*
X115594Y234890D02*
X132406D01*
X150138Y256661D02*
Y294339D01*
X189862Y256661D02*
Y294339D01*
X150138D02*
X189862D01*
X150138Y256661D02*
X189862D01*
X117705Y260606D02*
Y291394D01*
Y260606D02*
X128295D01*
X117705Y291394D02*
X128295D01*
Y260606D02*
Y291394D01*
M02*
