M48
;Layer_Color=9474304
;FILE_FORMAT=2:4
INCH,LZ
;TYPE=PLATED
T1F00S00C0.0307
T2F00S00C0.0315
T3F00S00C0.0394
T4F00S00C0.0402
T5F00S00C0.0730
%
T01
X0165Y025987
X0175
X0185
Y029113
X0175
X0165
X0155
Y025987
T02
X0124Y02105
Y02305
X01555Y023
Y021
T03
X013082Y0151
X017019
X020222Y01335
X02875
X028714Y01735
X02875Y02135
X020222
X020186Y01735
T04
X0123Y0266
Y0276
Y0286
T05
X0275Y02475
Y0266
Y02845
M30
