G04*
G04 #@! TF.GenerationSoftware,Altium Limited,Altium Designer,21.0.3 (12)*
G04*
G04 Layer_Color=16711935*
%FSLAX25Y25*%
%MOIN*%
G70*
G04*
G04 #@! TF.SameCoordinates,1F937BB2-0F7F-430D-ABFA-2F21A117A81B*
G04*
G04*
G04 #@! TF.FilePolarity,Positive*
G04*
G01*
G75*
%ADD11C,0.00787*%
%ADD12C,0.00591*%
%ADD13C,0.00500*%
%ADD30C,0.00394*%
D11*
X155394Y255677D02*
X154606D01*
X155394D01*
X209067Y188264D02*
X279933D01*
Y158736D02*
Y188264D01*
X209067Y158736D02*
X279933D01*
X209067D02*
Y188264D01*
X261000Y291500D02*
X289000D01*
Y240500D02*
Y291500D01*
X261000Y240500D02*
X289000D01*
X261000D02*
Y291500D01*
X209429Y198736D02*
Y228264D01*
Y198736D02*
X280295D01*
Y228264D01*
X209429D02*
X280295D01*
X209429Y118736D02*
Y148264D01*
Y118736D02*
X280295D01*
Y148264D01*
X209429D02*
X280295D01*
D12*
X184555Y151000D02*
X184540Y152000D01*
X184496Y152999D01*
X184423Y153996D01*
X184320Y154990D01*
X184189Y155982D01*
X184028Y156968D01*
X183838Y157950D01*
X183620Y158926D01*
X183373Y159895D01*
X183098Y160856D01*
X182794Y161809D01*
X182463Y162752D01*
X182104Y163685D01*
X181718Y164608D01*
X181306Y165518D01*
X180866Y166416D01*
X180400Y167301D01*
X179909Y168172D01*
X179392Y169028D01*
X178850Y169868D01*
X178284Y170692D01*
X177694Y171499D01*
X177081Y172289D01*
X176444Y173060D01*
X175786Y173812D01*
X175105Y174545D01*
X174403Y175257D01*
X173681Y175948D01*
X172938Y176618D01*
X172177Y177265D01*
X171396Y177890D01*
X170598Y178492D01*
X169782Y179070D01*
X168950Y179624D01*
X168102Y180154D01*
X167238Y180658D01*
X166360Y181136D01*
X165469Y181589D01*
X164564Y182015D01*
X163648Y182415D01*
X162720Y182787D01*
X161781Y183132D01*
X160833Y183450D01*
X159876Y183739D01*
X158911Y184000D01*
X157939Y184233D01*
X156960Y184437D01*
X155975Y184612D01*
X154986Y184758D01*
X153993Y184876D01*
X152998Y184963D01*
X151999Y185022D01*
X151000Y185051D01*
X150000D01*
X149001Y185022D01*
X148003Y184963D01*
X147007Y184876D01*
X146014Y184758D01*
X145025Y184612D01*
X144040Y184437D01*
X143061Y184233D01*
X142089Y184000D01*
X141124Y183739D01*
X140167Y183450D01*
X139219Y183132D01*
X138280Y182787D01*
X137352Y182415D01*
X136436Y182015D01*
X135531Y181589D01*
X134640Y181136D01*
X133762Y180658D01*
X132898Y180154D01*
X132050Y179624D01*
X131218Y179070D01*
X130402Y178492D01*
X129604Y177890D01*
X128823Y177265D01*
X128062Y176618D01*
X127319Y175948D01*
X126597Y175257D01*
X125895Y174545D01*
X125214Y173812D01*
X124556Y173060D01*
X123919Y172289D01*
X123306Y171499D01*
X122716Y170692D01*
X122150Y169868D01*
X121608Y169028D01*
X121091Y168172D01*
X120600Y167301D01*
X120134Y166416D01*
X119695Y165518D01*
X119282Y164608D01*
X118896Y163685D01*
X118537Y162752D01*
X118206Y161809D01*
X117902Y160856D01*
X117627Y159895D01*
X117380Y158926D01*
X117162Y157950D01*
X116972Y156968D01*
X116811Y155982D01*
X116680Y154990D01*
X116577Y153996D01*
X116504Y152999D01*
X116460Y152000D01*
X116445Y151000D01*
X116460Y150000D01*
X116504Y149002D01*
X116577Y148004D01*
X116679Y147010D01*
X116811Y146019D01*
X116972Y145032D01*
X117162Y144050D01*
X117380Y143075D01*
X117627Y142106D01*
X117902Y141144D01*
X118205Y140192D01*
X118537Y139248D01*
X118895Y138315D01*
X119281Y137393D01*
X119694Y136482D01*
X120134Y135584D01*
X120600Y134699D01*
X121091Y133828D01*
X121608Y132973D01*
X122149Y132132D01*
X122715Y131308D01*
X123306Y130501D01*
X123919Y129711D01*
X124556Y128940D01*
X125214Y128188D01*
X125895Y127456D01*
X126597Y126743D01*
X127319Y126052D01*
X128061Y125382D01*
X128823Y124735D01*
X129604Y124110D01*
X130402Y123508D01*
X131218Y122930D01*
X132050Y122376D01*
X132898Y121846D01*
X133762Y121342D01*
X134640Y120864D01*
X135531Y120411D01*
X136435Y119985D01*
X137352Y119585D01*
X138280Y119213D01*
X139218Y118868D01*
X140166Y118551D01*
X141123Y118261D01*
X142089Y118000D01*
X143061Y117767D01*
X144040Y117563D01*
X145024Y117388D01*
X146013Y117242D01*
X147006Y117125D01*
X148002Y117037D01*
X149000Y116978D01*
X150000Y116949D01*
X151000D01*
X151999Y116978D01*
X152997Y117037D01*
X153993Y117124D01*
X154986Y117242D01*
X155975Y117388D01*
X156960Y117563D01*
X157938Y117767D01*
X158911Y118000D01*
X159876Y118261D01*
X160833Y118550D01*
X161781Y118868D01*
X162720Y119213D01*
X163647Y119585D01*
X164564Y119985D01*
X165469Y120411D01*
X166360Y120863D01*
X167238Y121342D01*
X168101Y121846D01*
X168950Y122376D01*
X169782Y122930D01*
X170598Y123508D01*
X171396Y124109D01*
X172177Y124734D01*
X172938Y125382D01*
X173681Y126052D01*
X174403Y126743D01*
X175105Y127455D01*
X175786Y128188D01*
X176444Y128940D01*
X177081Y129711D01*
X177694Y130501D01*
X178284Y131308D01*
X178850Y132132D01*
X179392Y132972D01*
X179909Y133828D01*
X180400Y134699D01*
X180866Y135584D01*
X181305Y136482D01*
X181718Y137392D01*
X182104Y138315D01*
X182463Y139248D01*
X182794Y140191D01*
X183098Y141144D01*
X183373Y142105D01*
X183620Y143074D01*
X183838Y144050D01*
X184028Y145032D01*
X184189Y146019D01*
X184320Y147010D01*
X184423Y148004D01*
X184496Y149001D01*
X184540Y150000D01*
X184555Y151000D01*
D13*
X151122Y263000D02*
Y288000D01*
X188878Y263000D02*
Y288000D01*
X151122Y263000D02*
X188878D01*
X151122Y288000D02*
X188878D01*
D30*
X147488Y206004D02*
Y233996D01*
X163512Y206004D02*
Y233996D01*
X147488Y206004D02*
X163512D01*
X147488Y233996D02*
X163512D01*
X115988Y206504D02*
Y234496D01*
X132012Y206504D02*
Y234496D01*
X115988Y206504D02*
X132012D01*
X115988Y234496D02*
X132012D01*
X118098Y261000D02*
Y291000D01*
X127902Y261000D02*
Y291000D01*
X118098Y261000D02*
X127902D01*
X118098Y291000D02*
X127902D01*
M02*
