G04*
G04 #@! TF.GenerationSoftware,Altium Limited,Altium Designer,21.0.3 (12)*
G04*
G04 Layer_Color=16711935*
%FSLAX25Y25*%
%MOIN*%
G70*
G04*
G04 #@! TF.SameCoordinates,1F937BB2-0F7F-430D-ABFA-2F21A117A81B*
G04*
G04*
G04 #@! TF.FilePolarity,Positive*
G04*
G01*
G75*
%ADD11C,0.00787*%
G36*
X264740Y173500D02*
X262979D01*
Y175698D01*
X264740D01*
Y173500D01*
D02*
G37*
G36*
X262100D02*
X260339D01*
Y175698D01*
X262100D01*
Y173500D01*
D02*
G37*
G36*
X259460D02*
X257699D01*
Y175698D01*
X259460D01*
Y173500D01*
D02*
G37*
G36*
X256820D02*
X255060D01*
Y175698D01*
X256820D01*
Y173500D01*
D02*
G37*
G36*
X254181D02*
X252420D01*
Y175698D01*
X254181D01*
Y173500D01*
D02*
G37*
G36*
X251541D02*
X249780D01*
Y175698D01*
X251541D01*
Y173500D01*
D02*
G37*
G36*
X248901D02*
X247140D01*
Y175698D01*
X248901D01*
Y173500D01*
D02*
G37*
G36*
X246261D02*
X244500D01*
Y175698D01*
X246261D01*
Y173500D01*
D02*
G37*
G36*
X287320Y266000D02*
X285560D01*
Y268198D01*
X287320D01*
Y266000D01*
D02*
G37*
G36*
X284681D02*
X282920D01*
Y268198D01*
X284681D01*
Y266000D01*
D02*
G37*
G36*
X282041D02*
X280280D01*
Y268198D01*
X282041D01*
Y266000D01*
D02*
G37*
G36*
X279401D02*
X277640D01*
Y268198D01*
X279401D01*
Y266000D01*
D02*
G37*
G36*
X276761D02*
X275000D01*
Y268198D01*
X276761D01*
Y266000D01*
D02*
G37*
G36*
X259823Y213500D02*
X258062D01*
Y215698D01*
X259823D01*
Y213500D01*
D02*
G37*
G36*
X257183D02*
X255422D01*
Y215698D01*
X257183D01*
Y213500D01*
D02*
G37*
G36*
X254543D02*
X252782D01*
Y215698D01*
X254543D01*
Y213500D01*
D02*
G37*
G36*
X251903D02*
X250142D01*
Y215698D01*
X251903D01*
Y213500D01*
D02*
G37*
G36*
X249263D02*
X247502D01*
Y215698D01*
X249263D01*
Y213500D01*
D02*
G37*
G36*
X246623D02*
X244862D01*
Y215698D01*
X246623D01*
Y213500D01*
D02*
G37*
G36*
X181300Y150259D02*
X179539D01*
Y152456D01*
X181300D01*
Y150259D01*
D02*
G37*
G36*
X178660D02*
X176899D01*
Y152456D01*
X178660D01*
Y150259D01*
D02*
G37*
G36*
X176020D02*
X174259D01*
Y152456D01*
X176020D01*
Y150259D01*
D02*
G37*
G36*
X173380D02*
X171619D01*
Y152456D01*
X173380D01*
Y150259D01*
D02*
G37*
G36*
X170740D02*
X168979D01*
Y152456D01*
X170740D01*
Y150259D01*
D02*
G37*
G36*
X168100D02*
X166340D01*
Y152456D01*
X168100D01*
Y150259D01*
D02*
G37*
G36*
X165460D02*
X163699D01*
Y152456D01*
X165460D01*
Y150259D01*
D02*
G37*
G36*
X162820D02*
X161060D01*
Y152456D01*
X162820D01*
Y150259D01*
D02*
G37*
G36*
X160181D02*
X158420D01*
Y152456D01*
X160181D01*
Y150259D01*
D02*
G37*
G36*
X157541D02*
X155780D01*
Y152456D01*
X157541D01*
Y150259D01*
D02*
G37*
G36*
X154901D02*
X153140D01*
Y152456D01*
X154901D01*
Y150259D01*
D02*
G37*
G36*
X152261D02*
X150500D01*
Y152456D01*
X152261D01*
Y150259D01*
D02*
G37*
G36*
X265102Y133500D02*
X263341D01*
Y135698D01*
X265102D01*
Y133500D01*
D02*
G37*
G36*
X262462D02*
X260702D01*
Y135698D01*
X262462D01*
Y133500D01*
D02*
G37*
G36*
X259823D02*
X258062D01*
Y135698D01*
X259823D01*
Y133500D01*
D02*
G37*
G36*
X257183D02*
X255422D01*
Y135698D01*
X257183D01*
Y133500D01*
D02*
G37*
G36*
X254543D02*
X252782D01*
Y135698D01*
X254543D01*
Y133500D01*
D02*
G37*
G36*
X251903D02*
X250142D01*
Y135698D01*
X251903D01*
Y133500D01*
D02*
G37*
G36*
X249263D02*
X247502D01*
Y135698D01*
X249263D01*
Y133500D01*
D02*
G37*
G36*
X246623D02*
X244862D01*
Y135698D01*
X246623D01*
Y133500D01*
D02*
G37*
%LPC*%
G36*
X264686Y175643D02*
X263034D01*
Y173555D01*
X264686D01*
Y175643D01*
D02*
G37*
G36*
X262046D02*
X260394D01*
Y173555D01*
X262046D01*
Y175643D01*
D02*
G37*
G36*
X259406D02*
X257754D01*
Y173555D01*
X259406D01*
Y175643D01*
D02*
G37*
G36*
X256766D02*
X255114D01*
Y173555D01*
X256766D01*
Y175643D01*
D02*
G37*
G36*
X254126D02*
X252474D01*
Y173555D01*
X254126D01*
Y175643D01*
D02*
G37*
G36*
X251486D02*
X249834D01*
Y173555D01*
X251486D01*
Y175643D01*
D02*
G37*
G36*
X248846D02*
X247195D01*
Y173555D01*
X248846D01*
Y175643D01*
D02*
G37*
G36*
X246206D02*
X244555D01*
Y173555D01*
X246206D01*
Y175643D01*
D02*
G37*
G36*
X287266Y268143D02*
X285614D01*
Y266055D01*
X287266D01*
Y268143D01*
D02*
G37*
G36*
X284626D02*
X282974D01*
Y266055D01*
X284626D01*
Y268143D01*
D02*
G37*
G36*
X281986D02*
X280334D01*
Y266055D01*
X281986D01*
Y268143D01*
D02*
G37*
G36*
X279346D02*
X277695D01*
Y266055D01*
X279346D01*
Y268143D01*
D02*
G37*
G36*
X276706D02*
X275055D01*
Y266055D01*
X276706D01*
Y268143D01*
D02*
G37*
G36*
X259768Y215643D02*
X258116D01*
Y213555D01*
X259768D01*
Y215643D01*
D02*
G37*
G36*
X257128D02*
X255476D01*
Y213555D01*
X257128D01*
Y215643D01*
D02*
G37*
G36*
X254488D02*
X252836D01*
Y213555D01*
X254488D01*
Y215643D01*
D02*
G37*
G36*
X251848D02*
X250197D01*
Y213555D01*
X251848D01*
Y215643D01*
D02*
G37*
G36*
X249208D02*
X247557D01*
Y213555D01*
X249208D01*
Y215643D01*
D02*
G37*
G36*
X246568D02*
X244917D01*
Y213555D01*
X246568D01*
Y215643D01*
D02*
G37*
G36*
X181245Y152402D02*
X179594D01*
Y150313D01*
X181245D01*
Y152402D01*
D02*
G37*
G36*
X178605D02*
X176954D01*
Y150313D01*
X178605D01*
Y152402D01*
D02*
G37*
G36*
X175965D02*
X174314D01*
Y150313D01*
X175965D01*
Y152402D01*
D02*
G37*
G36*
X173326D02*
X171674D01*
Y150313D01*
X173326D01*
Y152402D01*
D02*
G37*
G36*
X170686D02*
X169034D01*
Y150313D01*
X170686D01*
Y152402D01*
D02*
G37*
G36*
X168046D02*
X166394D01*
Y150313D01*
X168046D01*
Y152402D01*
D02*
G37*
G36*
X165406D02*
X163754D01*
Y150313D01*
X165406D01*
Y152402D01*
D02*
G37*
G36*
X162766D02*
X161114D01*
Y150313D01*
X162766D01*
Y152402D01*
D02*
G37*
G36*
X160126D02*
X158474D01*
Y150313D01*
X160126D01*
Y152402D01*
D02*
G37*
G36*
X157486D02*
X155834D01*
Y150313D01*
X157486D01*
Y152402D01*
D02*
G37*
G36*
X154846D02*
X153194D01*
Y150313D01*
X154846D01*
Y152402D01*
D02*
G37*
G36*
X152206D02*
X150555D01*
Y150313D01*
X152206D01*
Y152402D01*
D02*
G37*
G36*
X265048Y135643D02*
X263396D01*
Y133554D01*
X265048D01*
Y135643D01*
D02*
G37*
G36*
X262408D02*
X260756D01*
Y133554D01*
X262408D01*
Y135643D01*
D02*
G37*
G36*
X259768D02*
X258116D01*
Y133554D01*
X259768D01*
Y135643D01*
D02*
G37*
G36*
X257128D02*
X255476D01*
Y133554D01*
X257128D01*
Y135643D01*
D02*
G37*
G36*
X254488D02*
X252836D01*
Y133554D01*
X254488D01*
Y135643D01*
D02*
G37*
G36*
X251848D02*
X250197D01*
Y133554D01*
X251848D01*
Y135643D01*
D02*
G37*
G36*
X249208D02*
X247557D01*
Y133554D01*
X249208D01*
Y135643D01*
D02*
G37*
G36*
X246568D02*
X244917D01*
Y133554D01*
X246568D01*
Y135643D01*
D02*
G37*
%LPD*%
D11*
X198417Y188657D02*
X290583D01*
Y158343D02*
Y188657D01*
X198417Y158343D02*
X290583D01*
X198417D02*
Y188657D01*
X260606Y291894D02*
X289394D01*
Y240106D02*
Y291894D01*
X260606Y240106D02*
X289394D01*
X260606D02*
Y291894D01*
X198780Y198343D02*
Y228657D01*
Y198343D02*
X290945D01*
Y228657D01*
X198780D02*
X290945D01*
X198780Y118343D02*
Y148657D01*
Y118343D02*
X290945D01*
Y148657D01*
X198780D02*
X290945D01*
M02*
